<?xml version="1.0" encoding="UTF-8" standalone="no"?>
<!-- Created with Inkscape (http://www.inkscape.org/) -->

<svg
   xmlns:dc="http://purl.org/dc/elements/1.1/"
   xmlns:cc="http://creativecommons.org/ns#"
   xmlns:rdf="http://www.w3.org/1999/02/22-rdf-syntax-ns#"
   xmlns:svg="http://www.w3.org/2000/svg"
   xmlns="http://www.w3.org/2000/svg"
   xmlns:sodipodi="http://sodipodi.sourceforge.net/DTD/sodipodi-0.dtd"
   xmlns:inkscape="http://www.inkscape.org/namespaces/inkscape"
   id="svg2"
   version="1.1"
   inkscape:version="0.48.2 r9819"
   width="1062.9921"
   height="1062.9921"
   xml:space="preserve"
   sodipodi:docname="Otherlab-Logo_nowWIthText.svg"><metadata
     id="metadata8"><rdf:RDF><cc:Work
         rdf:about=""><dc:format>image/svg+xml</dc:format><dc:type
           rdf:resource="http://purl.org/dc/dcmitype/StillImage" /><dc:title /></cc:Work></rdf:RDF></metadata><defs
     id="defs6" /><sodipodi:namedview
     pagecolor="#ffffff"
     bordercolor="#666666"
     borderopacity="1"
     objecttolerance="10"
     gridtolerance="10"
     guidetolerance="10"
     inkscape:pageopacity="0"
     inkscape:pageshadow="2"
     inkscape:window-width="1174"
     inkscape:window-height="818"
     id="namedview4"
     showgrid="false"
     units="mm"
     inkscape:document-units="mm"
     inkscape:zoom="0.70710678"
     inkscape:cx="-22.436728"
     inkscape:cy="1002.7084"
     inkscape:window-x="0"
     inkscape:window-y="0"
     inkscape:window-maximized="0"
     inkscape:current-layer="g10" /><g
     id="g10"
     inkscape:groupmode="layer"
     inkscape:label="Otherlab-Logo"
     transform="matrix(1.2500,0.0000,0.0000,-1.2500,-122.1205,1153.7020)"><path
       style="fill:#999999;stroke:#000000;stroke-width:1.77165365;stroke-miterlimit:4;stroke-dasharray:none"
       d="M 351.375 365.78125 L 326.90625 374.03125 L 121.25 456.65625 L 14.90625 682.875 L 101.34375 910 L 305.96875 1027.4062 L 477.8125 982.78125 L 584.1875 888.875 L 628.65625 814.84375 L 644.65625 626.9375 L 552.8125 459.1875 L 351.375 365.78125 z M 351.21875 382.34375 L 458.34375 470.34375 L 228.03125 471.71875 L 351.21875 382.34375 z M 307.8125 399.21875 L 207.625 472.125 L 145.34375 463.6875 L 307.8125 399.21875 z M 391.375 400.03125 L 528.5 463.375 L 476.96875 470.0625 L 391.375 400.03125 z M 125.25 472.9375 L 196.5 483.21875 L 44.125 653.21875 L 125.25 472.9375 z M 469.4375 488.1875 L 460.75 713.6875 L 334.8125 594.53125 L 469.4375 488.1875 z M 481.0625 489.78125 L 632.6875 631.4375 L 472.59375 715.71875 L 481.0625 489.78125 z M 210.8125 490.25 L 317.15625 591.9375 L 157.53125 682.59375 L 210.8125 490.25 z M 326.90625 598 L 457.15625 723.78125 L 284.3125 747.1875 L 326.90625 598 z M 314.4375 607.5625 L 273.4375 744.9375 L 160.125 694.8125 L 314.4375 607.5625 z M 629.71875 703.875 L 618.25 812.84375 L 583.28125 867.90625 L 629.71875 703.875 z M 465.625 737.21875 L 557.5 901.875 L 322.8125 941.25 L 465.625 737.21875 z M 126.53125 912.53125 L 304.125 953.5 L 301.3125 1012.5625 L 126.53125 912.53125 z M 525.4375 931.90625 L 473.6875 973.6875 L 377.0625 998.4375 L 525.4375 931.90625 z "
       transform="matrix(0.8,0,0,-0.8,97.6964,922.9616)"
       id="path102" /><text
       xml:space="preserve"
       style="font-size:40px;font-style:normal;font-weight:normal;line-height:125%;letter-spacing:0px;word-spacing:0px;fill:#000000;fill-opacity:1;stroke:none;font-family:Sans"
       x="65.053825"
       y="97.084206"
       id="text3034"
       sodipodi:linespacing="125%"
       transform="matrix(0.8,0,0,-0.8,97.6964,922.9616)"><tspan
         sodipodi:role="line"
         id="tspan3036"
         x="65.053825"
         y="97.084206">Now with text!</tspan></text>
</g></svg>