<?xml version="1.0" encoding="UTF-8" standalone="no"?>
<!-- Created with Inkscape (http://www.inkscape.org/) -->

<svg
   xmlns:dc="http://purl.org/dc/elements/1.1/"
   xmlns:cc="http://creativecommons.org/ns#"
   xmlns:rdf="http://www.w3.org/1999/02/22-rdf-syntax-ns#"
   xmlns:svg="http://www.w3.org/2000/svg"
   xmlns="http://www.w3.org/2000/svg"
   xmlns:sodipodi="http://sodipodi.sourceforge.net/DTD/sodipodi-0.dtd"
   xmlns:inkscape="http://www.inkscape.org/namespaces/inkscape"
   width="720"
   height="720"
   id="svg3115"
   version="1.1"
   inkscape:version="0.48.2 r9819"
   sodipodi:docname="ShapeOko_Calibration_Pattern_01b.svg"
   inkscape:export-filename="C:\Users\Project\Desktop\CNC_Calibration\ShapeOko_Calibration_Pattern_01b.png"
   inkscape:export-xdpi="90"
   inkscape:export-ydpi="90">
  <defs
     id="defs3117" />
  <sodipodi:namedview
     id="base"
     pagecolor="#ffffff"
     bordercolor="#666666"
     borderopacity="1.0"
     inkscape:pageopacity="0.0"
     inkscape:pageshadow="2"
     inkscape:zoom="1"
     inkscape:cx="335"
     inkscape:cy="374.91388"
     inkscape:document-units="in"
     inkscape:current-layer="layer1"
     showgrid="true"
     units="in"
     inkscape:window-width="1440"
     inkscape:window-height="852"
     inkscape:window-x="0"
     inkscape:window-y="0"
     inkscape:window-maximized="1">
    <inkscape:grid
       type="xygrid"
       id="grid3123"
       empspacing="5"
       visible="true"
       enabled="true"
       snapvisiblegridlinesonly="true" />
  </sodipodi:namedview>
  <metadata
     id="metadata3120">
    <rdf:RDF>
      <cc:Work
         rdf:about="">
        <dc:format>image/svg+xml</dc:format>
        <dc:type
           rdf:resource="http://purl.org/dc/dcmitype/StillImage" />
        <dc:title />
      </cc:Work>
    </rdf:RDF>
  </metadata>
  <g
     inkscape:label="Layer 1"
     inkscape:groupmode="layer"
     id="layer1"
     transform="translate(0,-332.35975)">
    <path
       sodipodi:type="arc"
       style="fill:none;stroke:#000000;stroke-opacity:1"
       id="path3175"
       sodipodi:cx="360"
       sodipodi:cy="360"
       sodipodi:rx="270"
       sodipodi:ry="270"
       d="M 630,360 C 630,509.11688 509.11688,630 360,630 210.88312,630 90,509.11688 90,360 90,210.88312 210.88312,90 360,90 509.11688,90 630,210.88312 630,360 z"
       transform="translate(0,332.35975)" />
    <rect
       style="fill:none;stroke:#000000;stroke-opacity:1"
       id="rect3177"
       width="540"
       height="540"
       x="90"
       y="90"
       transform="translate(0,332.35975)" />
    <path
       style="fill:none;stroke:#000000;stroke-width:1px;stroke-linecap:butt;stroke-linejoin:miter;stroke-opacity:1"
       d="m 60,90 c 20,0 20,0 20,0"
       id="path3179"
       inkscape:connector-curvature="0"
       transform="translate(0,332.35975)" />
    <path
       style="fill:none;stroke:#000000;stroke-width:1px;stroke-linecap:butt;stroke-linejoin:miter;stroke-opacity:1"
       d="m 60,630 c 20,0 20,0 20,0"
       id="path3181"
       inkscape:connector-curvature="0"
       transform="translate(0,332.35975)" />
    <path
       style="fill:none;stroke:#000000;stroke-width:1px;stroke-linecap:butt;stroke-linejoin:miter;stroke-opacity:1"
       d="M 70,630 C 70,90 70,90 70,90"
       id="path3183"
       inkscape:connector-curvature="0"
       transform="translate(0,332.35975)" />
    <path
       style="fill:none;stroke:#000000;stroke-width:1px;stroke-linecap:butt;stroke-linejoin:miter;stroke-opacity:1"
       d="m 90,640 c 0,20 0,20 0,20"
       id="path3185"
       inkscape:connector-curvature="0"
       transform="translate(0,332.35975)" />
    <path
       style="fill:none;stroke:#000000;stroke-width:1px;stroke-linecap:butt;stroke-linejoin:miter;stroke-opacity:1"
       d="m 630,640 c 0,20 0,20 0,20"
       id="path3187"
       inkscape:connector-curvature="0"
       transform="translate(0,332.35975)" />
    <path
       style="fill:none;stroke:#000000;stroke-width:1px;stroke-linecap:butt;stroke-linejoin:miter;stroke-opacity:1"
       d="m 90,650 c 540,0 540,0 540,0"
       id="path3189"
       inkscape:connector-curvature="0"
       transform="translate(0,332.35975)" />
    <path
       style="fill:none;stroke:#000000;stroke-width:1px;stroke-linecap:butt;stroke-linejoin:miter;stroke-opacity:1"
       d="M 90,90 C 630,630 630,630 630,630"
       id="path3223"
       inkscape:connector-curvature="0"
       transform="translate(0,332.35975)" />
    <flowRoot
       xml:space="preserve"
       id="flowRoot3227"
       style="font-size:40px;font-style:normal;font-weight:normal;line-height:125%;letter-spacing:0px;word-spacing:0px;fill:#000000;fill-opacity:1;stroke:none;font-family:Sans"
       transform="translate(-1,341.93681)"><flowRegion
         id="flowRegion3229"><rect
           id="rect3231"
           width="45"
           height="43"
           x="21"
           y="347" /></flowRegion><flowPara
         id="flowPara3233">6&quot;</flowPara></flowRoot>    <flowRoot
       xml:space="preserve"
       id="flowRoot3227-9"
       style="font-size:40px;font-style:normal;font-weight:normal;line-height:125%;letter-spacing:0px;word-spacing:0px;fill:#000000;fill-opacity:1;stroke:none;font-family:Sans"
       transform="translate(319,641.93681)"><flowRegion
         id="flowRegion3229-4"><rect
           id="rect3231-8"
           width="45"
           height="43"
           x="21"
           y="347" /></flowRegion><flowPara
         id="flowPara3233-8">6&quot;</flowPara></flowRoot>    <path
       style="fill:none;stroke:#000000;stroke-width:1px;stroke-linecap:butt;stroke-linejoin:miter;stroke-opacity:1"
       d="m 360,90 0,270"
       id="path3268"
       inkscape:connector-curvature="0"
       transform="translate(0,332.35975)" />
    <path
       style="fill:none;stroke:#000000;stroke-width:1px;stroke-linecap:butt;stroke-linejoin:miter;stroke-opacity:1"
       d="m 630,360 -270,0 0,270"
       id="path3270"
       inkscape:connector-curvature="0"
       transform="translate(0,332.35975)" />
    <path
       style="fill:none;stroke:#000000;stroke-width:1px;stroke-linecap:butt;stroke-linejoin:miter;stroke-opacity:1"
       d="M 360,360 90,360"
       id="path3272"
       inkscape:connector-curvature="0"
       transform="translate(0,332.35975)" />
    <flowRoot
       xml:space="preserve"
       id="flowRoot3227-2"
       style="font-size:40px;font-style:normal;font-weight:normal;line-height:125%;letter-spacing:0px;word-spacing:0px;fill:#000000;fill-opacity:1;stroke:none;font-family:Sans"
       transform="translate(469,351.93681)"><flowRegion
         id="flowRegion3229-45"><rect
           id="rect3231-5"
           width="45"
           height="43"
           x="21"
           y="347" /></flowRegion><flowPara
         id="flowPara3233-1">4.5&quot;</flowPara></flowRoot>    <flowRoot
       xml:space="preserve"
       id="flowRoot3301"
       style="font-size:40px;font-style:normal;font-weight:normal;line-height:125%;letter-spacing:0px;word-spacing:0px;fill:#000000;fill-opacity:1;stroke:none;font-family:Sans"
       transform="matrix(0.58792757,0,0,0.58792757,209.55332,476.35737)"><flowRegion
         id="flowRegion3303"><rect
           id="rect3305"
           width="88"
           height="42"
           x="460"
           y="385" /></flowRegion><flowPara
         id="flowPara3307">3&quot;</flowPara></flowRoot>    <flowRoot
       xml:space="preserve"
       id="flowRoot3301-7"
       style="font-size:40px;font-style:normal;font-weight:normal;line-height:125%;letter-spacing:0px;word-spacing:0px;fill:#000000;fill-opacity:1;stroke:none;font-family:Sans"
       transform="matrix(0.58792757,0,0,0.58792757,-52.446682,476.35737)"><flowRegion
         id="flowRegion3303-1"><rect
           id="rect3305-1"
           width="88"
           height="42"
           x="460"
           y="385" /></flowRegion><flowPara
         id="flowPara3307-5">3&quot;</flowPara></flowRoot>    <path
       style="fill:none;stroke:#000000;stroke-width:1px;stroke-linecap:butt;stroke-linejoin:miter;stroke-opacity:1"
       d="m 450,90 c 0,270 0,270 0,270"
       id="path3336"
       inkscape:connector-curvature="0"
       transform="translate(0,332.35975)" />
    <path
       style="fill:none;stroke:#000000;stroke-width:1px;stroke-linecap:butt;stroke-linejoin:miter;stroke-opacity:1"
       d="m 540,90 c 0,270 0,270 0,270"
       id="path3338"
       inkscape:connector-curvature="0"
       transform="translate(0,332.35975)" />
    <path
       style="fill:none;stroke:#000000;stroke-width:1px;stroke-linecap:butt;stroke-linejoin:miter;stroke-opacity:1"
       d="m 360,602.35975 c 270,0 270,0 270,0"
       id="path3340"
       inkscape:connector-curvature="0" />
    <path
       style="fill:none;stroke:#000000;stroke-width:1px;stroke-linecap:butt;stroke-linejoin:miter;stroke-opacity:1"
       d="m 360,180 270,0"
       id="path3342"
       inkscape:connector-curvature="0"
       transform="translate(0,332.35975)" />
    <path
       style="fill:none;stroke:#000000;stroke-width:1px;stroke-linecap:butt;stroke-linejoin:miter;stroke-opacity:1"
       d="m 180,422.35975 c 0,270 0,270 0,270"
       id="path3336-7"
       inkscape:connector-curvature="0" />
    <path
       style="fill:none;stroke:#000000;stroke-width:1px;stroke-linecap:butt;stroke-linejoin:miter;stroke-opacity:1"
       d="m 270,422.35975 c 0,270 0,270 0,270"
       id="path3338-6"
       inkscape:connector-curvature="0" />
    <path
       style="fill:none;stroke:#000000;stroke-width:1px;stroke-linecap:butt;stroke-linejoin:miter;stroke-opacity:1"
       d="m 90,602.35975 c 270,0 270,0 270,0"
       id="path3340-1"
       inkscape:connector-curvature="0" />
    <path
       style="fill:none;stroke:#000000;stroke-width:1px;stroke-linecap:butt;stroke-linejoin:miter;stroke-opacity:1"
       d="m 90,512.35975 270,0"
       id="path3342-4"
       inkscape:connector-curvature="0" />
    <path
       style="fill:none;stroke:#000000;stroke-width:1px;stroke-linecap:butt;stroke-linejoin:miter;stroke-opacity:1"
       d="m 270,180 90,90"
       id="path3380"
       inkscape:connector-curvature="0"
       transform="translate(0,332.35975)"
       sodipodi:nodetypes="cc" />
    <path
       style="fill:none;stroke:#000000;stroke-width:1px;stroke-linecap:butt;stroke-linejoin:miter;stroke-opacity:1"
       d="m 360,180 -90,90"
       id="path3382"
       inkscape:connector-curvature="0"
       transform="translate(0,332.35975)" />
    <path
       style="fill:none;stroke:#000000;stroke-width:0.57735026px;stroke-linecap:butt;stroke-linejoin:miter;stroke-opacity:1"
       d="m 180,622.35975 90,0"
       id="path3386"
       inkscape:connector-curvature="0" />
    <path
       style="fill:none;stroke:#000000;stroke-width:0.57735026px;stroke-linecap:butt;stroke-linejoin:miter;stroke-opacity:1"
       d="m 270,642.35975 -90,0"
       id="path3388"
       inkscape:connector-curvature="0" />
    <path
       style="fill:none;stroke:#000000;stroke-width:0.57735032px;stroke-linecap:butt;stroke-linejoin:miter;stroke-opacity:1"
       d="m 180,662.35975 90,0"
       id="path3390"
       inkscape:connector-curvature="0" />
    <path
       style="fill:none;stroke:#000000;stroke-width:1px;stroke-linecap:butt;stroke-linejoin:miter;stroke-opacity:1"
       d="m 200,602.35975 0,90"
       id="path3392"
       inkscape:connector-curvature="0" />
    <path
       style="fill:none;stroke:#000000;stroke-width:1px;stroke-linecap:butt;stroke-linejoin:miter;stroke-opacity:1"
       d="m 220,602.35975 0,90"
       id="path3394"
       inkscape:connector-curvature="0" />
    <path
       style="fill:none;stroke:#000000;stroke-width:1px;stroke-linecap:butt;stroke-linejoin:miter;stroke-opacity:1"
       d="m 240,602.35975 0,90"
       id="path3396"
       inkscape:connector-curvature="0" />
    <path
       style="fill:none;stroke:#000000;stroke-width:1px;stroke-linecap:butt;stroke-linejoin:miter;stroke-opacity:1"
       d="m 260,602.35975 0,90"
       id="path3398"
       inkscape:connector-curvature="0" />
    <path
       style="fill:none;stroke:#000000;stroke-width:1px;stroke-linecap:butt;stroke-linejoin:miter;stroke-opacity:1"
       d="m 250,602.35975 0,90"
       id="path3400"
       inkscape:connector-curvature="0" />
    <path
       style="fill:none;stroke:#000000;stroke-width:1px;stroke-linecap:butt;stroke-linejoin:miter;stroke-opacity:1"
       d="m 230,602.35975 0,90"
       id="path3402"
       inkscape:connector-curvature="0" />
    <path
       style="fill:none;stroke:#000000;stroke-width:1px;stroke-linecap:butt;stroke-linejoin:miter;stroke-opacity:1"
       d="m 210,602.35975 0,90"
       id="path3404"
       inkscape:connector-curvature="0" />
    <path
       style="fill:none;stroke:#000000;stroke-width:1px;stroke-linecap:butt;stroke-linejoin:miter;stroke-opacity:1"
       d="m 190,602.35975 0,90"
       id="path3406"
       inkscape:connector-curvature="0" />
    <path
       style="fill:none;stroke:#000000;stroke-width:1px;stroke-linecap:butt;stroke-linejoin:miter;stroke-opacity:1"
       d="m 180,612.35975 c 10,0 90,0 90,0"
       id="path3408"
       inkscape:connector-curvature="0" />
    <path
       style="fill:none;stroke:#000000;stroke-width:1px;stroke-linecap:butt;stroke-linejoin:miter;stroke-opacity:1"
       d="m 180,632.35975 90,0"
       id="path3410"
       inkscape:connector-curvature="0" />
    <path
       style="fill:none;stroke:#000000;stroke-width:1px;stroke-linecap:butt;stroke-linejoin:miter;stroke-opacity:1"
       d="m 180,652.35975 c 10,0 90,0 90,0"
       id="path3412"
       inkscape:connector-curvature="0" />
    <path
       style="fill:none;stroke:#000000;stroke-width:1px;stroke-linecap:butt;stroke-linejoin:miter;stroke-opacity:1"
       d="m 180,672.35975 90,0"
       id="path3414"
       inkscape:connector-curvature="0" />
    <path
       style="fill:none;stroke:#000000;stroke-width:1px;stroke-linecap:butt;stroke-linejoin:miter;stroke-opacity:1"
       d="m 180,682.35975 c 10,0 90,0 90,0"
       id="path3416"
       inkscape:connector-curvature="0" />
    <path
       style="fill:none;stroke:#000000;stroke-width:1px;stroke-linecap:butt;stroke-linejoin:miter;stroke-opacity:1"
       d="m 270,360 90,-90"
       id="path3418"
       inkscape:connector-curvature="0"
       transform="translate(0,332.35975)" />
    <path
       style="fill:none;stroke:#000000;stroke-width:1px;stroke-linecap:butt;stroke-linejoin:miter;stroke-opacity:1"
       d="m 270,350 80,-80"
       id="path3420"
       inkscape:connector-curvature="0"
       transform="translate(0,332.35975)" />
    <path
       style="fill:none;stroke:#000000;stroke-width:1px;stroke-linecap:butt;stroke-linejoin:miter;stroke-opacity:1"
       d="m 270,340 70,-70"
       id="path3422"
       inkscape:connector-curvature="0"
       transform="translate(0,332.35975)" />
    <path
       style="fill:none;stroke:#000000;stroke-width:1px;stroke-linecap:butt;stroke-linejoin:miter;stroke-opacity:1"
       d="m 270,330 60,-60"
       id="path3424"
       inkscape:connector-curvature="0"
       transform="translate(0,332.35975)" />
    <path
       style="fill:none;stroke:#000000;stroke-width:1px;stroke-linecap:butt;stroke-linejoin:miter;stroke-opacity:1"
       d="m 270,320 50,-50"
       id="path3426"
       inkscape:connector-curvature="0"
       transform="translate(0,332.35975)" />
    <path
       style="fill:none;stroke:#000000;stroke-width:1px;stroke-linecap:butt;stroke-linejoin:miter;stroke-opacity:1"
       d="m 270,310 40,-40"
       id="path3428"
       inkscape:connector-curvature="0"
       transform="translate(0,332.35975)" />
    <path
       style="fill:none;stroke:#000000;stroke-width:1px;stroke-linecap:butt;stroke-linejoin:miter;stroke-opacity:1"
       d="m 270,300 30,-30"
       id="path3430"
       inkscape:connector-curvature="0"
       transform="translate(0,332.35975)" />
    <path
       style="fill:none;stroke:#000000;stroke-width:1px;stroke-linecap:butt;stroke-linejoin:miter;stroke-opacity:1"
       d="m 270,290 20,-20"
       id="path3432"
       inkscape:connector-curvature="0"
       transform="translate(0,332.35975)" />
    <path
       style="fill:none;stroke:#000000;stroke-width:1px;stroke-linecap:butt;stroke-linejoin:miter;stroke-opacity:1"
       d="m 270,280 10,-10"
       id="path3434"
       inkscape:connector-curvature="0"
       transform="translate(0,332.35975)" />
    <path
       style="fill:none;stroke:#000000;stroke-width:1px;stroke-linecap:butt;stroke-linejoin:miter;stroke-opacity:1"
       d="m 280,360 c 10,-10 80,-80 80,-80"
       id="path3436"
       inkscape:connector-curvature="0"
       transform="translate(0,332.35975)" />
    <path
       style="fill:none;stroke:#000000;stroke-width:1px;stroke-linecap:butt;stroke-linejoin:miter;stroke-opacity:1"
       d="m 290,360 70,-70"
       id="path3438"
       inkscape:connector-curvature="0"
       transform="translate(0,332.35975)" />
    <path
       style="fill:none;stroke:#000000;stroke-width:1px;stroke-linecap:butt;stroke-linejoin:miter;stroke-opacity:1"
       d="m 300,360 60,-60"
       id="path3440"
       inkscape:connector-curvature="0"
       transform="translate(0,332.35975)" />
    <path
       style="fill:none;stroke:#000000;stroke-width:1px;stroke-linecap:butt;stroke-linejoin:miter;stroke-opacity:1"
       d="m 310,360 50,-50"
       id="path3442"
       inkscape:connector-curvature="0"
       transform="translate(0,332.35975)" />
    <path
       style="fill:none;stroke:#000000;stroke-width:1px;stroke-linecap:butt;stroke-linejoin:miter;stroke-opacity:1"
       d="m 320,360 40,-40"
       id="path3444"
       inkscape:connector-curvature="0"
       transform="translate(0,332.35975)" />
    <path
       style="fill:none;stroke:#000000;stroke-width:1px;stroke-linecap:butt;stroke-linejoin:miter;stroke-opacity:1"
       d="m 330,360 30,-30"
       id="path3446"
       inkscape:connector-curvature="0"
       transform="translate(0,332.35975)" />
    <path
       style="fill:none;stroke:#000000;stroke-width:1px;stroke-linecap:butt;stroke-linejoin:miter;stroke-opacity:1"
       d="m 340,360 20,-20"
       id="path3448"
       inkscape:connector-curvature="0"
       transform="translate(0,332.35975)" />
    <path
       style="fill:none;stroke:#000000;stroke-width:1px;stroke-linecap:butt;stroke-linejoin:miter;stroke-opacity:1"
       d="m 350,360 10,-10"
       id="path3450"
       inkscape:connector-curvature="0"
       transform="translate(0,332.35975)" />
    <path
       style="fill:none;stroke:#000000;stroke-width:1px;stroke-linecap:butt;stroke-linejoin:miter;stroke-opacity:1"
       d="m 270,200 70,70"
       id="path3452"
       inkscape:connector-curvature="0"
       transform="translate(0,332.35975)" />
    <path
       style="fill:none;stroke:#000000;stroke-width:1px;stroke-linecap:butt;stroke-linejoin:miter;stroke-opacity:1"
       d="m 270,220 50,50"
       id="path3454"
       inkscape:connector-curvature="0"
       transform="translate(0,332.35975)" />
    <path
       style="fill:none;stroke:#000000;stroke-width:1px;stroke-linecap:butt;stroke-linejoin:miter;stroke-opacity:1"
       d="m 270,240 30,30"
       id="path3456"
       inkscape:connector-curvature="0"
       transform="translate(0,332.35975)" />
    <path
       style="fill:none;stroke:#000000;stroke-width:1px;stroke-linecap:butt;stroke-linejoin:miter;stroke-opacity:1"
       d="m 290,180 70,70"
       id="path3458"
       inkscape:connector-curvature="0"
       transform="translate(0,332.35975)" />
    <path
       style="fill:none;stroke:#000000;stroke-width:1px;stroke-linecap:butt;stroke-linejoin:miter;stroke-opacity:1"
       d="m 310,180 50,50"
       id="path3460"
       inkscape:connector-curvature="0"
       transform="translate(0,332.35975)" />
    <path
       style="fill:none;stroke:#000000;stroke-width:1px;stroke-linecap:butt;stroke-linejoin:miter;stroke-opacity:1"
       d="m 330,180 30,30"
       id="path3462"
       inkscape:connector-curvature="0"
       transform="translate(0,332.35975)" />
    <path
       style="fill:none;stroke:#000000;stroke-width:1px;stroke-linecap:butt;stroke-linejoin:miter;stroke-opacity:1"
       d="m 270,250 70,-70"
       id="path3464"
       inkscape:connector-curvature="0"
       transform="translate(0,332.35975)" />
    <path
       style="fill:none;stroke:#000000;stroke-width:1px;stroke-linecap:butt;stroke-linejoin:miter;stroke-opacity:1"
       d="m 270,230 50,-50"
       id="path3466"
       inkscape:connector-curvature="0"
       transform="translate(0,332.35975)" />
    <path
       style="fill:none;stroke:#000000;stroke-width:1px;stroke-linecap:butt;stroke-linejoin:miter;stroke-opacity:1"
       d="m 270,210 30,-30"
       id="path3468"
       inkscape:connector-curvature="0"
       transform="translate(0,332.35975)" />
    <path
       style="fill:none;stroke:#000000;stroke-width:1px;stroke-linecap:butt;stroke-linejoin:miter;stroke-opacity:1"
       d="m 290,270 70,-70"
       id="path3470"
       inkscape:connector-curvature="0"
       transform="translate(0,332.35975)" />
    <path
       style="fill:none;stroke:#000000;stroke-width:1px;stroke-linecap:butt;stroke-linejoin:miter;stroke-opacity:1"
       d="m 310,270 50,-50"
       id="path3472"
       inkscape:connector-curvature="0"
       transform="translate(0,332.35975)" />
    <path
       style="fill:none;stroke:#000000;stroke-width:1px;stroke-linecap:butt;stroke-linejoin:miter;stroke-opacity:1"
       d="m 330,270 30,-30"
       id="path3474"
       inkscape:connector-curvature="0"
       transform="translate(0,332.35975)" />
    <path
       sodipodi:type="arc"
       style="fill:none;stroke:#000000;stroke-opacity:1"
       id="path3480"
       sodipodi:cx="405"
       sodipodi:cy="315"
       sodipodi:rx="45"
       sodipodi:ry="45"
       d="m 450,315 c 0,24.85281 -20.14719,45 -45,45 -24.85281,0 -45,-20.14719 -45,-45 0,-24.85281 20.14719,-45 45,-45 24.85281,0 45,20.14719 45,45 z"
       transform="translate(0,332.35975)" />
    <path
       style="fill:none;stroke:#000000;stroke-width:1px;stroke-linecap:butt;stroke-linejoin:miter;stroke-opacity:1"
       d="m 350,450 c 20,0 20,0 20,0"
       id="path3482"
       inkscape:connector-curvature="0"
       transform="translate(0,332.35975)" />
    <path
       style="fill:none;stroke:#000000;stroke-width:1px;stroke-linecap:butt;stroke-linejoin:miter;stroke-opacity:1"
       d="m 350,540 20,0"
       id="path3484"
       inkscape:connector-curvature="0"
       transform="translate(0,332.35975)" />
    <flowRoot
       xml:space="preserve"
       id="flowRoot3301-7-2"
       style="font-size:40px;font-style:normal;font-weight:normal;line-height:125%;letter-spacing:0px;word-spacing:0px;fill:#000000;fill-opacity:1;stroke:none;font-family:Sans"
       transform="matrix(0.58792757,0,0,0.58792757,101.55332,590.35737)"><flowRegion
         id="flowRegion3303-1-3"><rect
           id="rect3305-1-2"
           width="88"
           height="42"
           x="460"
           y="385" /></flowRegion><flowPara
         id="flowPara3307-5-2">1&quot;</flowPara></flowRoot>    <path
       style="fill:none;stroke:#000000;stroke-width:1px;stroke-linecap:butt;stroke-linejoin:miter;stroke-opacity:1"
       d="m 450,270 90,-90"
       id="path3513"
       inkscape:connector-curvature="0"
       transform="translate(0,332.35975)" />
    <path
       style="fill:none;stroke:#000000;stroke-width:1px;stroke-linecap:butt;stroke-linejoin:miter;stroke-opacity:1"
       d="M 540,270 450,180"
       id="path3515"
       inkscape:connector-curvature="0"
       transform="translate(0,332.35975)" />
    <path
       style="fill:none;stroke:#000000;stroke-width:1px;stroke-linecap:butt;stroke-linejoin:miter;stroke-opacity:1"
       d="m 470,200 50,0 0,50 -50,0 z"
       id="path3517"
       inkscape:connector-curvature="0"
       transform="translate(0,332.35975)" />
    <path
       style="fill:none;stroke:#000000;stroke-width:1px;stroke-linecap:butt;stroke-linejoin:miter;stroke-opacity:1"
       d="m 370,190 70,0 0,70 -70,0 z"
       id="path3521"
       inkscape:connector-curvature="0"
       transform="translate(0,332.35975)" />
    <path
       style="fill:none;stroke:#000000;stroke-width:1px;stroke-linecap:butt;stroke-linejoin:miter;stroke-opacity:1"
       d="m 380,200 50,0 0,50 -50,0 z"
       id="path3523"
       inkscape:connector-curvature="0"
       transform="translate(0,332.35975)" />
    <path
       style="fill:none;stroke:#000000;stroke-width:1px;stroke-linecap:butt;stroke-linejoin:miter;stroke-opacity:1"
       d="m 390,210 30,0 0,30 -30,0 z"
       id="path3525"
       inkscape:connector-curvature="0"
       transform="translate(0,332.35975)" />
    <path
       style="fill:none;stroke:#000000;stroke-width:1px;stroke-linecap:butt;stroke-linejoin:miter;stroke-opacity:1"
       d="m 400,220 0,10 10,0 0,-10"
       id="path3527"
       inkscape:connector-curvature="0"
       transform="translate(0,332.35975)" />
    <path
       style="fill:none;stroke:#000000;stroke-width:1px;stroke-linecap:butt;stroke-linejoin:miter;stroke-opacity:1"
       d="m 400,220 10,0"
       id="path3529"
       inkscape:connector-curvature="0"
       transform="translate(0,332.35975)" />
    <path
       sodipodi:type="arc"
       style="fill:none;stroke:#000000;stroke-opacity:1"
       id="path3531"
       sodipodi:cx="495"
       sodipodi:cy="315"
       sodipodi:rx="45"
       sodipodi:ry="45"
       d="m 540,315 c 0,24.85281 -20.14719,45 -45,45 -24.85281,0 -45,-20.14719 -45,-45 0,-24.85281 20.14719,-45 45,-45 24.85281,0 45,20.14719 45,45 z"
       transform="translate(0,332.35975)" />
    <path
       sodipodi:type="arc"
       style="fill:none;stroke:#000000;stroke-opacity:1"
       id="path3533"
       sodipodi:cx="495"
       sodipodi:cy="315"
       sodipodi:rx="35"
       sodipodi:ry="35"
       d="m 530,315 c 0,19.32997 -15.67003,35 -35,35 -19.32997,0 -35,-15.67003 -35,-35 0,-19.32997 15.67003,-35 35,-35 19.32997,0 35,15.67003 35,35 z"
       transform="translate(0,332.35975)" />
    <path
       sodipodi:type="arc"
       style="fill:none;stroke:#000000;stroke-opacity:1"
       id="path3535"
       sodipodi:cx="495"
       sodipodi:cy="315"
       sodipodi:rx="25"
       sodipodi:ry="25"
       d="m 520,315 c 0,13.80712 -11.19288,25 -25,25 -13.80712,0 -25,-11.19288 -25,-25 0,-13.80712 11.19288,-25 25,-25 13.80712,0 25,11.19288 25,25 z"
       transform="translate(0,332.35975)" />
    <path
       sodipodi:type="arc"
       style="fill:none;stroke:#000000;stroke-opacity:1"
       id="path3539"
       sodipodi:cx="495"
       sodipodi:cy="315"
       sodipodi:rx="15"
       sodipodi:ry="15"
       d="m 510,315 c 0,8.28427 -6.71573,15 -15,15 -8.28427,0 -15,-6.71573 -15,-15 0,-8.28427 6.71573,-15 15,-15 8.28427,0 15,6.71573 15,15 z"
       transform="translate(0,332.35975)" />
    <path
       sodipodi:type="arc"
       style="fill:none;stroke:#000000;stroke-opacity:1"
       id="path3541"
       sodipodi:cx="495"
       sodipodi:cy="315"
       sodipodi:rx="5"
       sodipodi:ry="5"
       d="m 500,315 c 0,2.76142 -2.23858,5 -5,5 -2.76142,0 -5,-2.23858 -5,-5 0,-2.76142 2.23858,-5 5,-5 2.76142,0 5,2.23858 5,5 z"
       transform="translate(0,332.35975)" />
  </g>
</svg>
