G75*
G71*
%OFA0B0*%
%FSLAX23Y23*%
%IPPOS*%
%LPD*%
%ADD10C,0.1*%
%LPD*%D10*
X0Y0D02*
X0Y100D01*
X0Y199D01*
X0Y299D01*
X0Y399D01*
X0Y498D01*
X0Y598D01*
X0Y698D01*
X0Y798D01*
X0Y897D01*
X0Y997D01*
X0Y1097D01*
X0Y1196D01*
X0Y1296D01*
X0Y1396D01*
X0Y1495D01*
X0Y1595D01*
X0Y1695D01*
X0Y1795D01*
X0Y1894D01*
X0Y1994D01*
X0Y2094D01*
X0Y2193D01*
X0Y2293D01*
X0Y2393D01*
X0Y2492D01*
X0Y2592D01*
X0Y2692D01*
X0Y2791D01*
X0Y2891D01*
X0Y2991D01*
X0Y3091D01*
X0Y3190D01*
X0Y3290D01*
X0Y3390D01*
X0Y3489D01*
X0Y3589D01*
X0Y3689D01*
X0Y3788D01*
X0Y3888D01*
X0Y3988D01*
X0Y4088D01*
X0Y4187D01*
X0Y4287D01*
X0Y4387D01*
X0Y4486D01*
X0Y4586D01*
X0Y4686D01*
X0Y4785D01*
X0Y4885D01*
X0Y4985D01*
X0Y5084D01*
X0Y5184D01*
X0Y5284D01*
X0Y5384D01*
X0Y5483D01*
X0Y5583D01*
X0Y5683D01*
X0Y5782D01*
X0Y5882D01*
X0Y5982D01*
X0Y6081D01*
X0Y6181D01*
X0Y6281D01*
X0Y6380D01*
X0Y6480D01*
X0Y6580D01*
X0Y6680D01*
X0Y6779D01*
X0Y6879D01*
X0Y6979D01*
X0Y7078D01*
X0Y7178D01*
X0Y7278D01*
X0Y7377D01*
X0Y7477D01*
X0Y7577D01*
X0Y7677D01*
X0Y7776D01*
X0Y7876D01*
X0Y7976D01*
X0Y8075D01*
X0Y8175D01*
X0Y8275D01*
X0Y8374D01*
X0Y8474D01*
X0Y8574D01*
X0Y8673D01*
X0Y8773D01*
X0Y8873D01*
X0Y8973D01*
X0Y9072D01*
X0Y9172D01*
X0Y9272D01*
X0Y9371D01*
X0Y9471D01*
X0Y9571D01*
X0Y9670D01*
X0Y9770D01*
X0Y9870D01*
X0Y9970D01*
X0Y10069D01*
X0Y10169D01*
X0Y10269D01*
X0Y10368D01*
X0Y10468D01*
X0Y10568D01*
X0Y10667D01*
X0Y10767D01*
X0Y10867D01*
X0Y10966D01*
X0Y11066D01*
X0Y11166D01*
X0Y11266D01*
X0Y11365D01*
X0Y11465D01*
X0Y11565D01*
X0Y11664D01*
X0Y11764D01*
X0Y11864D01*
X0Y11963D01*
X0Y12063D01*
X0Y12163D01*
X0Y12262D01*
X0Y12362D01*
X0Y12462D01*
X0Y12562D01*
X0Y12661D01*
X0Y12761D01*
X0Y12861D01*
X0Y12960D01*
X0Y13060D01*
X0Y13160D01*
X0Y13259D01*
X0Y13359D01*
X0Y13459D01*
X0Y13559D01*
X0Y13658D01*
X0Y13758D01*
X0Y13858D01*
X0Y13957D01*
X0Y14057D01*
X0Y14157D01*
X0Y14256D01*
X0Y14356D01*
X0Y14456D01*
X0Y14555D01*
X0Y14655D01*
X0Y14755D01*
X0Y14855D01*
X0Y14954D01*
X0Y15054D01*
X0Y15154D01*
X0Y15253D01*
X0Y15353D01*
X0Y15453D01*
X0Y15552D01*
X0Y15652D01*
X0Y15752D01*
X0Y15852D01*
X0Y15951D01*
X0Y16051D01*
X0Y16151D01*
X0Y16250D01*
X0Y16350D01*
X0Y16450D01*
X0Y16549D01*
X0Y16649D01*
X0Y16749D01*
X0Y16848D01*
X0Y16948D01*
X0Y17048D01*
X0Y17148D01*
X0Y17247D01*
X0Y17347D01*
X0Y17447D01*
X0Y17546D01*
X0Y17646D01*
X0Y17746D01*
X0Y17845D01*
X0Y17945D01*
X0Y18045D01*
X0Y18145D01*
X0Y18244D01*
X0Y18344D01*
X0Y18444D01*
X0Y18543D01*
X0Y18643D01*
X0Y18743D01*
X0Y18842D01*
X0Y18942D01*
X0Y19042D01*
X0Y19141D01*
X0Y19241D01*
X0Y19341D01*
X0Y19441D01*
X0Y19540D01*
X0Y19640D01*
X0Y19740D01*
X0Y19839D01*
X0Y19939D01*
X0Y20039D01*
X0Y20138D01*
X0Y20238D01*
X0Y20338D01*
X0Y20438D01*
X0Y20537D01*
X0Y20637D01*
X0Y20737D01*
X0Y20836D01*
X0Y20936D01*
X0Y21036D01*
X0Y21135D01*
X0Y21235D01*
X0Y21335D01*
X0Y21434D01*
X0Y21534D01*
X0Y21634D01*
X0Y21734D01*
X0Y21833D01*
X0Y21933D01*
X0Y22033D01*
X0Y22132D01*
X0Y22232D01*
X0Y22332D01*
X0Y22431D01*
X0Y22531D01*
X0Y22631D01*
X0Y22731D01*
X0Y22830D01*
X0Y22930D01*
X0Y23030D01*
X0Y23129D01*
X0Y23229D01*
X0Y23329D01*
X0Y23428D01*
X0Y23528D01*
X0Y23628D01*
X0Y23727D01*
X0Y23827D01*
X0Y23927D01*
X0Y24027D01*
X0Y24126D01*
X0Y24226D01*
X0Y24326D01*
X0Y24425D01*
X0Y24525D01*
X0Y24625D01*
X0Y24724D01*
X0Y24824D01*
X0Y24924D01*
X0Y25024D01*
X0Y25123D01*
X0Y25223D01*
X0Y25323D01*
X0Y25422D01*
X0Y25522D01*
X0Y25622D01*
X0Y25721D01*
X0Y25821D01*
X0Y25921D01*
X0Y26020D01*
X0Y26120D01*
X0Y26220D01*
X0Y26320D01*
X0Y26419D01*
X0Y26519D01*
X0Y26619D01*
X0Y26718D01*
X0Y26818D01*
X0Y26918D01*
X0Y27017D01*
X0Y27117D01*
X0Y27217D01*
X0Y27317D01*
X0Y27416D01*
X0Y27516D01*
X0Y27616D01*
X0Y27715D01*
X0Y27815D01*
X0Y27915D01*
X0Y28014D01*
X0Y28114D01*
X0Y28214D01*
X0Y28313D01*
X0Y28413D01*
X0Y28513D01*
X0Y28613D01*
X0Y28712D01*
X0Y28812D01*
X0Y28912D01*
X0Y29011D01*
X0Y29111D01*
X0Y29211D01*
X0Y29310D01*
X0Y29410D01*
X0Y29510D01*
X0Y29610D01*
X0Y29709D01*
X0Y29809D01*
X0Y29909D01*
X0Y30008D01*
X0Y30108D01*
X0Y30208D01*
X0Y30307D01*
X0Y30407D01*
X0Y30507D01*
X0Y30607D01*
X0Y30706D01*
X0Y30806D01*
X0Y30906D01*
X0Y31005D01*
X100Y31005D01*
X199Y31005D01*
X299Y31005D01*
X398Y31005D01*
X498Y31005D01*
X598Y31005D01*
X697Y31005D01*
X797Y31005D01*
X897Y31005D01*
X996Y31005D01*
X1096Y31005D01*
X1195Y31005D01*
X1295Y31005D01*
X1395Y31005D01*
X1494Y31005D01*
X1594Y31005D01*
X1694Y31005D01*
X1793Y31005D01*
X1893Y31005D01*
X1992Y31005D01*
X2092Y31005D01*
X2192Y31005D01*
X2291Y31005D01*
X2391Y31005D01*
X2490Y31005D01*
X2590Y31005D01*
X2690Y31005D01*
X2789Y31005D01*
X2889Y31005D01*
X2989Y31005D01*
X3088Y31005D01*
X3188Y31005D01*
X3287Y31005D01*
X3387Y31005D01*
X3487Y31005D01*
X3586Y31005D01*
X3686Y31005D01*
X3785Y31005D01*
X3885Y31005D01*
X3985Y31005D01*
X4084Y31005D01*
X4184Y31005D01*
X4284Y31005D01*
X4383Y31005D01*
X4483Y31005D01*
X4582Y31005D01*
X4682Y31005D01*
X4782Y31005D01*
X4881Y31005D01*
X4981Y31005D01*
X5081Y31005D01*
X5180Y31005D01*
X5280Y31005D01*
X5379Y31005D01*
X5479Y31005D01*
X5579Y31005D01*
X5678Y31005D01*
X5778Y31005D01*
X5877Y31005D01*
X5977Y31005D01*
X6077Y31005D01*
X6176Y31005D01*
X6276Y31005D01*
X6376Y31005D01*
X6475Y31005D01*
X6575Y31005D01*
X6674Y31005D01*
X6774Y31005D01*
X6874Y31005D01*
X6973Y31005D01*
X7073Y31005D01*
X7173Y31005D01*
X7272Y31005D01*
X7372Y31005D01*
X7471Y31005D01*
X7571Y31005D01*
X7671Y31005D01*
X7770Y31005D01*
X7870Y31005D01*
X7969Y31005D01*
X8069Y31005D01*
X8169Y31005D01*
X8268Y31005D01*
X8368Y31005D01*
X8468Y31005D01*
X8567Y31005D01*
X8667Y31005D01*
X8766Y31005D01*
X8866Y31005D01*
X8966Y31005D01*
X9065Y31005D01*
X9165Y31005D01*
X9265Y31005D01*
X9364Y31005D01*
X9464Y31005D01*
X9563Y31005D01*
X9663Y31005D01*
X9763Y31005D01*
X9862Y31005D01*
X9962Y31005D01*
X10061Y31005D01*
X10161Y31005D01*
X10261Y31005D01*
X10360Y31005D01*
X10460Y31005D01*
X10560Y31005D01*
X10659Y31005D01*
X10759Y31005D01*
X10858Y31005D01*
X10958Y31005D01*
X11058Y31005D01*
X11157Y31005D01*
X11257Y31005D01*
X11357Y31005D01*
X11456Y31005D01*
X11556Y31005D01*
X11655Y31005D01*
X11755Y31005D01*
X11855Y31005D01*
X11954Y31005D01*
X12054Y31005D01*
X12153Y31005D01*
X12253Y31005D01*
X12353Y31005D01*
X12452Y31005D01*
X12552Y31005D01*
X12652Y31005D01*
X12751Y31005D01*
X12851Y31005D01*
X12950Y31005D01*
X13050Y31005D01*
X13150Y31005D01*
X13249Y31005D01*
X13349Y31005D01*
X13449Y31005D01*
X13548Y31005D01*
X13648Y31005D01*
X13747Y31005D01*
X13847Y31005D01*
X13947Y31005D01*
X14046Y31005D01*
X14146Y31005D01*
X14245Y31005D01*
X14345Y31005D01*
X14445Y31005D01*
X14544Y31005D01*
X14644Y31005D01*
X14744Y31005D01*
X14843Y31005D01*
X14943Y31005D01*
X15042Y31005D01*
X15142Y31005D01*
X15242Y31005D01*
X15341Y31005D01*
X15441Y31005D01*
X15540Y31005D01*
X15640Y31005D01*
X15740Y31005D01*
X15839Y31005D01*
X15939Y31005D01*
X16039Y31005D01*
X16138Y31005D01*
X16238Y31005D01*
X16337Y31005D01*
X16437Y31005D01*
X16537Y31005D01*
X16636Y31005D01*
X16736Y31005D01*
X16836Y31005D01*
X16935Y31005D01*
X17035Y31005D01*
X17134Y31005D01*
X17234Y31005D01*
X17334Y31005D01*
X17433Y31005D01*
X17533Y31005D01*
X17632Y31005D01*
X17732Y31005D01*
X17832Y31005D01*
X17931Y31005D01*
X18031Y31005D01*
X18131Y31005D01*
X18230Y31005D01*
X18330Y31005D01*
X18429Y31005D01*
X18529Y31005D01*
X18629Y31005D01*
X18728Y31005D01*
X18828Y31005D01*
X18928Y31005D01*
X19027Y31005D01*
X19127Y31005D01*
X19226Y31005D01*
X19326Y31005D01*
X19426Y31005D01*
X19525Y31005D01*
X19625Y31005D01*
X19725Y31005D01*
X19824Y31005D01*
X19924Y31005D01*
X20023Y31005D01*
X20123Y31005D01*
X20223Y31005D01*
X20322Y31005D01*
X20422Y31005D01*
X20521Y31005D01*
X20621Y31005D01*
X20721Y31005D01*
X20820Y31005D01*
X20920Y31005D01*
X21020Y31005D01*
X21119Y31005D01*
X21219Y31005D01*
X21318Y31005D01*
X21418Y31005D01*
X21518Y31005D01*
X21617Y31005D01*
X21717Y31005D01*
X21717Y30906D01*
X21717Y30806D01*
X21717Y30706D01*
X21717Y30607D01*
X21717Y30507D01*
X21717Y30407D01*
X21717Y30307D01*
X21717Y30208D01*
X21717Y30108D01*
X21717Y30008D01*
X21717Y29909D01*
X21717Y29809D01*
X21717Y29709D01*
X21717Y29610D01*
X21717Y29510D01*
X21717Y29410D01*
X21717Y29311D01*
X21717Y29211D01*
X21717Y29111D01*
X21717Y29011D01*
X21717Y28912D01*
X21717Y28812D01*
X21717Y28712D01*
X21717Y28613D01*
X21717Y28513D01*
X21717Y28413D01*
X21717Y28314D01*
X21717Y28214D01*
X21717Y28114D01*
X21717Y28014D01*
X21717Y27915D01*
X21717Y27815D01*
X21717Y27715D01*
X21717Y27616D01*
X21717Y27516D01*
X21717Y27416D01*
X21717Y27317D01*
X21717Y27217D01*
X21717Y27117D01*
X21717Y27018D01*
X21717Y26918D01*
X21717Y26818D01*
X21717Y26718D01*
X21717Y26619D01*
X21717Y26519D01*
X21717Y26419D01*
X21717Y26320D01*
X21717Y26220D01*
X21717Y26120D01*
X21717Y26021D01*
X21717Y25921D01*
X21717Y25821D01*
X21717Y25721D01*
X21717Y25622D01*
X21717Y25522D01*
X21717Y25422D01*
X21717Y25323D01*
X21717Y25223D01*
X21717Y25123D01*
X21717Y25024D01*
X21717Y24924D01*
X21717Y24824D01*
X21717Y24725D01*
X21717Y24625D01*
X21717Y24525D01*
X21717Y24425D01*
X21717Y24326D01*
X21717Y24226D01*
X21717Y24126D01*
X21717Y24027D01*
X21717Y23927D01*
X21717Y23827D01*
X21717Y23728D01*
X21717Y23628D01*
X21717Y23528D01*
X21717Y23428D01*
X21717Y23329D01*
X21717Y23229D01*
X21717Y23129D01*
X21717Y23030D01*
X21717Y22930D01*
X21717Y22830D01*
X21717Y22731D01*
X21717Y22631D01*
X21717Y22531D01*
X21717Y22432D01*
X21717Y22332D01*
X21717Y22232D01*
X21717Y22132D01*
X21717Y22033D01*
X21717Y21933D01*
X21717Y21833D01*
X21717Y21734D01*
X21717Y21634D01*
X21717Y21534D01*
X21717Y21435D01*
X21717Y21335D01*
X21717Y21235D01*
X21717Y21135D01*
X21717Y21036D01*
X21717Y20936D01*
X21717Y20836D01*
X21717Y20737D01*
X21717Y20637D01*
X21717Y20537D01*
X21717Y20438D01*
X21717Y20338D01*
X21717Y20238D01*
X21717Y20139D01*
X21717Y20039D01*
X21717Y19939D01*
X21717Y19839D01*
X21717Y19740D01*
X21717Y19640D01*
X21717Y19540D01*
X21717Y19441D01*
X21717Y19341D01*
X21717Y19241D01*
X21717Y19142D01*
X21717Y19042D01*
X21717Y18942D01*
X21717Y18843D01*
X21717Y18743D01*
X21717Y18643D01*
X21717Y18543D01*
X21717Y18444D01*
X21717Y18344D01*
X21717Y18244D01*
X21717Y18145D01*
X21717Y18045D01*
X21717Y17945D01*
X21717Y17846D01*
X21717Y17746D01*
X21717Y17646D01*
X21717Y17546D01*
X21717Y17447D01*
X21717Y17347D01*
X21717Y17247D01*
X21717Y17148D01*
X21717Y17048D01*
X21717Y16948D01*
X21717Y16849D01*
X21717Y16749D01*
X21717Y16649D01*
X21717Y16550D01*
X21717Y16450D01*
X21717Y16350D01*
X21717Y16250D01*
X21717Y16151D01*
X21717Y16051D01*
X21717Y15951D01*
X21717Y15852D01*
X21717Y15752D01*
X21717Y15652D01*
X21717Y15553D01*
X21717Y15453D01*
X21717Y15353D01*
X21717Y15253D01*
X21717Y15154D01*
X21717Y15054D01*
X21717Y14954D01*
X21717Y14855D01*
X21717Y14755D01*
X21717Y14655D01*
X21717Y14556D01*
X21717Y14456D01*
X21717Y14356D01*
X21717Y14257D01*
X21717Y14157D01*
X21717Y14057D01*
X21717Y13957D01*
X21717Y13858D01*
X21717Y13758D01*
X21717Y13658D01*
X21717Y13559D01*
X21717Y13459D01*
X21717Y13359D01*
X21717Y13260D01*
X21717Y13160D01*
X21717Y13060D01*
X21717Y12961D01*
X21717Y12861D01*
X21717Y12761D01*
X21717Y12661D01*
X21717Y12562D01*
X21717Y12462D01*
X21717Y12362D01*
X21717Y12263D01*
X21717Y12163D01*
X21717Y12063D01*
X21717Y11964D01*
X21717Y11864D01*
X21717Y11764D01*
X21717Y11664D01*
X21717Y11565D01*
X21717Y11465D01*
X21717Y11365D01*
X21717Y11266D01*
X21717Y11166D01*
X21717Y11066D01*
X21717Y10967D01*
X21717Y10867D01*
X21717Y10767D01*
X21717Y10667D01*
X21717Y10568D01*
X21717Y10468D01*
X21717Y10368D01*
X21717Y10269D01*
X21717Y10169D01*
X21717Y10069D01*
X21717Y9970D01*
X21717Y9870D01*
X21717Y9770D01*
X21717Y9671D01*
X21717Y9571D01*
X21717Y9471D01*
X21717Y9371D01*
X21717Y9272D01*
X21717Y9172D01*
X21717Y9072D01*
X21717Y8973D01*
X21717Y8873D01*
X21717Y8773D01*
X21717Y8674D01*
X21717Y8574D01*
X21717Y8474D01*
X21717Y8375D01*
X21717Y8275D01*
X21717Y8175D01*
X21717Y8075D01*
X21717Y7976D01*
X21717Y7876D01*
X21717Y7776D01*
X21717Y7677D01*
X21717Y7577D01*
X21717Y7477D01*
X21717Y7378D01*
X21717Y7278D01*
X21717Y7178D01*
X21717Y7078D01*
X21717Y6979D01*
X21717Y6879D01*
X21717Y6779D01*
X21717Y6680D01*
X21717Y6580D01*
X21717Y6480D01*
X21717Y6381D01*
X21717Y6281D01*
X21717Y6181D01*
X21717Y6082D01*
X21717Y5982D01*
X21717Y5882D01*
X21717Y5782D01*
X21717Y5683D01*
X21717Y5583D01*
X21717Y5483D01*
X21717Y5384D01*
X21717Y5284D01*
X21717Y5184D01*
X21717Y5085D01*
X21717Y4985D01*
X21717Y4885D01*
X21717Y4785D01*
X21717Y4686D01*
X21717Y4586D01*
X21717Y4486D01*
X21717Y4387D01*
X21717Y4287D01*
X21717Y4187D01*
X21717Y4088D01*
X21717Y3988D01*
X21717Y3888D01*
X21717Y3788D01*
X21717Y3689D01*
X21717Y3589D01*
X21717Y3489D01*
X21717Y3390D01*
X21717Y3290D01*
X21717Y3190D01*
X21717Y3091D01*
X21717Y2991D01*
X21717Y2891D01*
X21717Y2792D01*
X21717Y2692D01*
X21717Y2592D01*
X21717Y2492D01*
X21717Y2393D01*
X21717Y2293D01*
X21717Y2193D01*
X21717Y2094D01*
X21717Y1994D01*
X21717Y1894D01*
X21717Y1795D01*
X21717Y1695D01*
X21717Y1595D01*
X21717Y1495D01*
X21717Y1396D01*
X21717Y1296D01*
X21717Y1196D01*
X21717Y1097D01*
X21717Y997D01*
X21717Y897D01*
X21717Y798D01*
X21717Y698D01*
X21717Y598D01*
X21717Y499D01*
X21717Y399D01*
X21717Y299D01*
X21717Y199D01*
X21717Y100D01*
X21717Y0D01*
X21617Y0D01*
X21518Y0D01*
X21418Y0D01*
X21318Y0D01*
X21219Y0D01*
X21119Y0D01*
X21020Y0D01*
X20920Y0D01*
X20820Y0D01*
X20721Y0D01*
X20621Y0D01*
X20522Y0D01*
X20422Y0D01*
X20322Y0D01*
X20223Y0D01*
X20123Y0D01*
X20023Y0D01*
X19924Y0D01*
X19824Y0D01*
X19725Y0D01*
X19625Y0D01*
X19525Y0D01*
X19426Y0D01*
X19326Y0D01*
X19226Y0D01*
X19127Y0D01*
X19027Y0D01*
X18928Y0D01*
X18828Y0D01*
X18728Y0D01*
X18629Y0D01*
X18529Y0D01*
X18430Y0D01*
X18330Y0D01*
X18230Y0D01*
X18131Y0D01*
X18031Y0D01*
X17931Y0D01*
X17832Y0D01*
X17732Y0D01*
X17633Y0D01*
X17533Y0D01*
X17433Y0D01*
X17334Y0D01*
X17234Y0D01*
X17134Y0D01*
X17035Y0D01*
X16935Y0D01*
X16836Y0D01*
X16736Y0D01*
X16636Y0D01*
X16537Y0D01*
X16437Y0D01*
X16338Y0D01*
X16238Y0D01*
X16138Y0D01*
X16039Y0D01*
X15939Y0D01*
X15839Y0D01*
X15740Y0D01*
X15640Y0D01*
X15541Y0D01*
X15441Y0D01*
X15341Y0D01*
X15242Y0D01*
X15142Y0D01*
X15042Y0D01*
X14943Y0D01*
X14843Y0D01*
X14744Y0D01*
X14644Y0D01*
X14544Y0D01*
X14445Y0D01*
X14345Y0D01*
X14246Y0D01*
X14146Y0D01*
X14046Y0D01*
X13947Y0D01*
X13847Y0D01*
X13747Y0D01*
X13648Y0D01*
X13548Y0D01*
X13449Y0D01*
X13349Y0D01*
X13249Y0D01*
X13150Y0D01*
X13050Y0D01*
X12950Y0D01*
X12851Y0D01*
X12751Y0D01*
X12652Y0D01*
X12552Y0D01*
X12452Y0D01*
X12353Y0D01*
X12253Y0D01*
X12154Y0D01*
X12054Y0D01*
X11954Y0D01*
X11855Y0D01*
X11755Y0D01*
X11655Y0D01*
X11556Y0D01*
X11456Y0D01*
X11357Y0D01*
X11257Y0D01*
X11157Y0D01*
X11058Y0D01*
X10958Y0D01*
X10859Y0D01*
X10759Y0D01*
X10659Y0D01*
X10560Y0D01*
X10460Y0D01*
X10360Y0D01*
X10261Y0D01*
X10161Y0D01*
X10062Y0D01*
X9962Y0D01*
X9862Y0D01*
X9763Y0D01*
X9663Y0D01*
X9563Y0D01*
X9464Y0D01*
X9364Y0D01*
X9265Y0D01*
X9165Y0D01*
X9065Y0D01*
X8966Y0D01*
X8866Y0D01*
X8767Y0D01*
X8667Y0D01*
X8567Y0D01*
X8468Y0D01*
X8368Y0D01*
X8268Y0D01*
X8169Y0D01*
X8069Y0D01*
X7970Y0D01*
X7870Y0D01*
X7770Y0D01*
X7671Y0D01*
X7571Y0D01*
X7471Y0D01*
X7372Y0D01*
X7272Y0D01*
X7173Y0D01*
X7073Y0D01*
X6973Y0D01*
X6874Y0D01*
X6774Y0D01*
X6675Y0D01*
X6575Y0D01*
X6475Y0D01*
X6376Y0D01*
X6276Y0D01*
X6176Y0D01*
X6077Y0D01*
X5977Y0D01*
X5878Y0D01*
X5778Y0D01*
X5678Y0D01*
X5579Y0D01*
X5479Y0D01*
X5379Y0D01*
X5280Y0D01*
X5180Y0D01*
X5081Y0D01*
X4981Y0D01*
X4881Y0D01*
X4782Y0D01*
X4682Y0D01*
X4583Y0D01*
X4483Y0D01*
X4383Y0D01*
X4284Y0D01*
X4184Y0D01*
X4084Y0D01*
X3985Y0D01*
X3885Y0D01*
X3786Y0D01*
X3686Y0D01*
X3586Y0D01*
X3487Y0D01*
X3387Y0D01*
X3287Y0D01*
X3188Y0D01*
X3088Y0D01*
X2989Y0D01*
X2889Y0D01*
X2789Y0D01*
X2690Y0D01*
X2590Y0D01*
X2491Y0D01*
X2391Y0D01*
X2291Y0D01*
X2192Y0D01*
X2092Y0D01*
X1992Y0D01*
X1893Y0D01*
X1793Y0D01*
X1694Y0D01*
X1594Y0D01*
X1494Y0D01*
X1395Y0D01*
X1295Y0D01*
X1195Y0D01*
X1096Y0D01*
X996Y0D01*
X897Y0D01*
X797Y0D01*
X697Y0D01*
X598Y0D01*
X498Y0D01*
X399Y0D01*
X299Y0D01*
X199Y0D01*
X100Y0D01*
X0Y0D01*
X0Y0D01*
X0Y0D01*
X0Y0D01*
X0Y0D01*
X0Y0D01*
X0Y0D01*
G36*
X12047Y27327D02*
X10062Y27327D01*
X10405Y27751D01*
X10148Y27905D01*
X9666Y27280D01*
X9666Y26952D01*
X12047Y26952D01*
X12047Y27327D01*
G37*
G36*
X12047Y26234D02*
X11754Y26234D01*
X10941Y25437D01*
X10824Y25334D01*
X10701Y25242D01*
X10639Y25202D01*
X10575Y25167D01*
X10511Y25139D01*
X10446Y25117D01*
X10381Y25104D01*
X10316Y25099D01*
X10270Y25101D01*
X10227Y25109D01*
X10187Y25120D01*
X10149Y25136D01*
X10115Y25156D01*
X10083Y25179D01*
X10054Y25206D01*
X10028Y25235D01*
X10004Y25268D01*
X9984Y25303D01*
X9967Y25340D01*
X9952Y25379D01*
X9941Y25420D01*
X9933Y25462D01*
X9928Y25505D01*
X9926Y25549D01*
X9930Y25628D01*
X9939Y25705D01*
X9963Y25817D01*
X9985Y25889D01*
X10040Y26031D01*
X10087Y26134D01*
X9780Y26152D01*
X9721Y25997D01*
X9673Y25837D01*
X9655Y25754D01*
X9642Y25671D01*
X9633Y25587D01*
X9631Y25502D01*
X9633Y25424D01*
X9639Y25348D01*
X9651Y25274D01*
X9667Y25203D01*
X9688Y25134D01*
X9715Y25069D01*
X9746Y25008D01*
X9783Y24951D01*
X9825Y24899D01*
X9873Y24853D01*
X9926Y24812D01*
X9986Y24778D01*
X10051Y24750D01*
X10122Y24730D01*
X10200Y24718D01*
X10283Y24713D01*
X10364Y24718D01*
X10441Y24733D01*
X10519Y24757D01*
X10595Y24788D01*
X10669Y24826D01*
X10742Y24870D01*
X10883Y24972D01*
X11758Y25777D01*
X11758Y24674D01*
X12047Y24674D01*
X12047Y26234D01*
X12047Y26234D01*
G37*
G36*
X11687Y24099D02*
X11712Y24029D01*
X11735Y23957D01*
X11768Y23808D01*
X11788Y23660D01*
X11794Y23517D01*
X11792Y23459D01*
X11787Y23402D01*
X11779Y23346D01*
X11767Y23293D01*
X11752Y23241D01*
X11733Y23193D01*
X11711Y23147D01*
X11684Y23105D01*
X11655Y23067D01*
X11621Y23032D01*
X11583Y23002D01*
X11541Y22976D01*
X11495Y22956D01*
X11444Y22941D01*
X11389Y22932D01*
X11330Y22928D01*
X11275Y22932D01*
X11225Y22941D01*
X11181Y22956D01*
X11141Y22977D01*
X11105Y23002D01*
X11073Y23033D01*
X11045Y23067D01*
X11021Y23105D01*
X11001Y23146D01*
X10983Y23191D01*
X10970Y23238D01*
X10959Y23287D01*
X10950Y23337D01*
X10942Y23443D01*
X10941Y23810D01*
X10673Y23810D01*
X10672Y23481D01*
X10662Y23366D01*
X10653Y23312D01*
X10641Y23261D01*
X10626Y23213D01*
X10607Y23169D01*
X10586Y23129D01*
X10560Y23092D01*
X10531Y23060D01*
X10498Y23032D01*
X10460Y23008D01*
X10419Y22989D01*
X10372Y22976D01*
X10322Y22967D01*
X10266Y22964D01*
X10217Y22967D01*
X10173Y22976D01*
X10132Y22990D01*
X10096Y23010D01*
X10064Y23034D01*
X10035Y23062D01*
X10009Y23095D01*
X9987Y23130D01*
X9969Y23169D01*
X9953Y23210D01*
X9940Y23253D01*
X9929Y23298D01*
X9922Y23345D01*
X9913Y23441D01*
X9914Y23554D01*
X9930Y23692D01*
X9959Y23832D01*
X10001Y23969D01*
X10026Y24035D01*
X9734Y24057D01*
X9689Y23905D01*
X9657Y23751D01*
X9637Y23594D01*
X9631Y23435D01*
X9638Y23279D01*
X9647Y23201D01*
X9660Y23126D01*
X9678Y23052D01*
X9701Y22982D01*
X9728Y22915D01*
X9761Y22852D01*
X9799Y22794D01*
X9842Y22742D01*
X9891Y22696D01*
X9947Y22657D01*
X10008Y22625D01*
X10076Y22602D01*
X10152Y22587D01*
X10233Y22582D01*
X10289Y22585D01*
X10342Y22591D01*
X10392Y22602D01*
X10440Y22618D01*
X10484Y22637D01*
X10527Y22660D01*
X10566Y22687D01*
X10603Y22718D01*
X10636Y22752D01*
X10668Y22788D01*
X10696Y22828D01*
X10722Y22871D01*
X10745Y22917D01*
X10765Y22965D01*
X10783Y23015D01*
X10798Y23068D01*
X10807Y23013D01*
X10820Y22961D01*
X10836Y22910D01*
X10855Y22861D01*
X10878Y22815D01*
X10904Y22771D01*
X10934Y22730D01*
X10966Y22692D01*
X11002Y22658D01*
X11040Y22627D01*
X11082Y22600D01*
X11127Y22578D01*
X11174Y22560D01*
X11224Y22547D01*
X11278Y22539D01*
X11333Y22536D01*
X11429Y22541D01*
X11518Y22557D01*
X11600Y22584D01*
X11675Y22619D01*
X11744Y22663D01*
X11805Y22714D01*
X11860Y22774D01*
X11909Y22839D01*
X11952Y22910D01*
X11988Y22986D01*
X12019Y23067D01*
X12044Y23152D01*
X12062Y23239D01*
X12076Y23329D01*
X12084Y23421D01*
X12084Y23633D01*
X12070Y23786D01*
X12045Y23935D01*
X12027Y24009D01*
X11994Y24121D01*
X11687Y24099D01*
X11687Y24099D01*
X11687Y24099D01*
G37*
G36*
X10681Y19939D02*
X10549Y19954D01*
X10426Y19980D01*
X10312Y20016D01*
X10208Y20061D01*
X10113Y20116D01*
X10028Y20180D01*
X9951Y20254D01*
X9884Y20337D01*
X9826Y20428D01*
X9777Y20528D01*
X9737Y20637D01*
X9706Y20753D01*
X9684Y20878D01*
X9671Y21011D01*
X9666Y21882D01*
X10814Y21882D01*
X10814Y21493D01*
X9955Y21493D01*
X9959Y21088D01*
X9970Y20992D01*
X9989Y20904D01*
X10014Y20821D01*
X10046Y20744D01*
X10086Y20675D01*
X10132Y20611D01*
X10184Y20555D01*
X10243Y20505D01*
X10308Y20462D01*
X10379Y20424D01*
X10457Y20394D01*
X10540Y20371D01*
X10629Y20354D01*
X10723Y20343D01*
X10823Y20340D01*
X10937Y20344D01*
X11044Y20356D01*
X11144Y20376D01*
X11235Y20403D01*
X11319Y20438D01*
X11396Y20481D01*
X11465Y20531D01*
X11527Y20588D01*
X11582Y20653D01*
X11628Y20725D01*
X11668Y20803D01*
X11700Y20889D01*
X11726Y20981D01*
X11744Y21080D01*
X11754Y21185D01*
X11758Y21493D01*
X10814Y21493D01*
X10814Y21882D01*
X12047Y21882D01*
X12042Y21113D01*
X12028Y20975D01*
X12005Y20844D01*
X11972Y20720D01*
X11930Y20603D01*
X11878Y20493D01*
X11817Y20393D01*
X11745Y20301D01*
X11665Y20218D01*
X11574Y20145D01*
X11474Y20082D01*
X11363Y20030D01*
X11243Y19988D01*
X11113Y19958D01*
X10973Y19939D01*
X10823Y19933D01*
X10681Y19939D01*
G37*
G36*
X9895Y19040D02*
X9867Y19044D01*
X9840Y19051D01*
X9813Y19060D01*
X9789Y19072D01*
X9765Y19087D01*
X9743Y19103D01*
X9723Y19122D01*
X9704Y19142D01*
X9688Y19164D01*
X9673Y19188D01*
X9662Y19213D01*
X9652Y19239D01*
X9645Y19266D01*
X9640Y19295D01*
X9639Y19324D01*
X9640Y19353D01*
X9645Y19382D01*
X9652Y19409D01*
X9662Y19435D01*
X9673Y19460D01*
X9688Y19484D01*
X9704Y19506D01*
X9723Y19526D01*
X9743Y19545D01*
X9765Y19561D01*
X9789Y19575D01*
X9813Y19587D01*
X9840Y19597D01*
X9867Y19604D01*
X9895Y19608D01*
X9924Y19610D01*
X9924Y19563D01*
X9900Y19562D01*
X9875Y19558D01*
X9852Y19553D01*
X9830Y19545D01*
X9809Y19535D01*
X9789Y19523D01*
X9770Y19509D01*
X9752Y19494D01*
X9737Y19477D01*
X9723Y19458D01*
X9710Y19439D01*
X9700Y19418D01*
X9691Y19395D01*
X9685Y19372D01*
X9682Y19349D01*
X9681Y19324D01*
X9682Y19299D01*
X9685Y19276D01*
X9692Y19253D01*
X9700Y19231D01*
X9711Y19210D01*
X9723Y19190D01*
X9737Y19171D01*
X9753Y19154D01*
X9770Y19139D01*
X9789Y19125D01*
X9809Y19114D01*
X9830Y19103D01*
X9853Y19096D01*
X9876Y19089D01*
X9900Y19086D01*
X9924Y19085D01*
X9949Y19086D01*
X9973Y19089D01*
X9996Y19096D01*
X10019Y19103D01*
X10040Y19114D01*
X10060Y19125D01*
X10079Y19139D01*
X10097Y19154D01*
X10113Y19171D01*
X10127Y19190D01*
X10140Y19210D01*
X10150Y19231D01*
X10158Y19253D01*
X10164Y19276D01*
X10168Y19299D01*
X10169Y19324D01*
X10169Y19337D01*
X10168Y19349D01*
X10164Y19372D01*
X10158Y19395D01*
X10150Y19418D01*
X10140Y19439D01*
X10127Y19458D01*
X10113Y19477D01*
X10097Y19494D01*
X10079Y19509D01*
X10060Y19523D01*
X10040Y19535D01*
X10018Y19545D01*
X9996Y19553D01*
X9973Y19558D01*
X9949Y19562D01*
X9924Y19563D01*
X9924Y19610D01*
X9946Y19609D01*
X9968Y19607D01*
X9989Y19603D01*
X10009Y19597D01*
X10029Y19590D01*
X10048Y19582D01*
X10067Y19572D01*
X10085Y19561D01*
X10101Y19549D01*
X10117Y19536D01*
X10132Y19522D01*
X10146Y19506D01*
X10158Y19490D01*
X10169Y19473D01*
X10180Y19455D01*
X10188Y19435D01*
X10198Y19409D01*
X10205Y19381D01*
X10210Y19353D01*
X10211Y19324D01*
X10209Y19295D01*
X10205Y19266D01*
X10198Y19239D01*
X10188Y19213D01*
X10176Y19188D01*
X10162Y19164D01*
X10146Y19142D01*
X10127Y19122D01*
X10107Y19103D01*
X10084Y19087D01*
X10060Y19072D01*
X10036Y19060D01*
X10009Y19051D01*
X9982Y19044D01*
X9953Y19040D01*
X9924Y19038D01*
X9895Y19040D01*
G37*
G36*
X9969Y19242D02*
X9961Y19247D01*
X9953Y19251D01*
X9947Y19256D01*
X9941Y19261D01*
X9936Y19268D01*
X9932Y19275D01*
X9929Y19284D01*
X9926Y19293D01*
X9923Y19277D01*
X9917Y19262D01*
X9909Y19248D01*
X9900Y19236D01*
X9889Y19225D01*
X9875Y19217D01*
X9861Y19212D01*
X9846Y19210D01*
X9824Y19212D01*
X9806Y19219D01*
X9791Y19230D01*
X9779Y19244D01*
X9769Y19260D01*
X9763Y19279D01*
X9760Y19300D01*
X9758Y19322D01*
X9758Y19423D01*
X9851Y19423D01*
X9851Y19380D01*
X9796Y19380D01*
X9797Y19327D01*
X9799Y19311D01*
X9801Y19296D01*
X9805Y19283D01*
X9812Y19272D01*
X9821Y19263D01*
X9832Y19258D01*
X9846Y19256D01*
X9862Y19258D01*
X9874Y19263D01*
X9884Y19272D01*
X9891Y19283D01*
X9897Y19296D01*
X9901Y19311D01*
X9902Y19326D01*
X9903Y19380D01*
X9851Y19380D01*
X9851Y19423D01*
X10092Y19423D01*
X10092Y19380D01*
X9941Y19380D01*
X9942Y19336D01*
X9943Y19324D01*
X9946Y19314D01*
X9951Y19305D01*
X9957Y19299D01*
X9964Y19292D01*
X9974Y19287D01*
X10092Y19232D01*
X10092Y19186D01*
X9969Y19242D01*
X9969Y19242D01*
G37*
G36*
X11983Y15937D02*
X12009Y16003D01*
X12030Y16073D01*
X12048Y16147D01*
X12073Y16298D01*
X12085Y16448D01*
X12086Y16519D01*
X12081Y16658D01*
X12065Y16791D01*
X12039Y16917D01*
X12002Y17036D01*
X11955Y17147D01*
X11899Y17251D01*
X11834Y17346D01*
X11759Y17433D01*
X11675Y17512D01*
X11582Y17580D01*
X11482Y17640D01*
X11373Y17689D01*
X11255Y17728D01*
X11131Y17756D01*
X10998Y17773D01*
X10858Y17780D01*
X10725Y17773D01*
X10596Y17755D01*
X10474Y17726D01*
X10359Y17685D01*
X10251Y17634D01*
X10150Y17573D01*
X10057Y17502D01*
X9972Y17423D01*
X9895Y17334D01*
X9827Y17238D01*
X9768Y17134D01*
X9720Y17023D01*
X9681Y16906D01*
X9653Y16782D01*
X9636Y16653D01*
X9631Y16519D01*
X9636Y16377D01*
X9653Y16227D01*
X9680Y16080D01*
X9699Y16010D01*
X9719Y15945D01*
X10034Y15966D01*
X10010Y16023D01*
X9990Y16084D01*
X9973Y16148D01*
X9947Y16280D01*
X9935Y16412D01*
X9934Y16477D01*
X9939Y16578D01*
X9952Y16675D01*
X9974Y16766D01*
X10003Y16852D01*
X10041Y16931D01*
X10086Y17005D01*
X10138Y17072D01*
X10197Y17133D01*
X10261Y17188D01*
X10332Y17236D01*
X10408Y17277D01*
X10489Y17311D01*
X10575Y17338D01*
X10666Y17357D01*
X10760Y17369D01*
X10858Y17373D01*
X10959Y17369D01*
X11056Y17358D01*
X11148Y17339D01*
X11235Y17313D01*
X11317Y17281D01*
X11392Y17241D01*
X11463Y17194D01*
X11527Y17141D01*
X11585Y17081D01*
X11635Y17015D01*
X11679Y16942D01*
X11716Y16862D01*
X11745Y16776D01*
X11766Y16685D01*
X11778Y16588D01*
X11783Y16484D01*
X11777Y16348D01*
X11759Y16214D01*
X11745Y16148D01*
X11727Y16083D01*
X11693Y15990D01*
X11680Y15959D01*
X11983Y15937D01*
X11983Y15937D01*
G37*
G36*
X12047Y15420D02*
X9666Y15420D01*
X9666Y15031D01*
X12047Y15031D01*
X12047Y15420D01*
X12047Y15420D01*
G37*
G36*
X11180Y13035D02*
X11116Y13064D01*
X11059Y13097D01*
X11032Y13114D01*
X11006Y13133D01*
X10983Y13153D01*
X10961Y13174D01*
X10941Y13196D01*
X10922Y13220D01*
X10906Y13244D01*
X10892Y13270D01*
X10879Y13297D01*
X10869Y13325D01*
X10860Y13354D01*
X10855Y13385D01*
X10844Y13330D01*
X10830Y13276D01*
X10812Y13224D01*
X10790Y13173D01*
X10764Y13126D01*
X10735Y13081D01*
X10703Y13039D01*
X10668Y13000D01*
X10629Y12964D01*
X10588Y12933D01*
X10543Y12905D01*
X10496Y12882D01*
X10446Y12864D01*
X10393Y12850D01*
X10338Y12842D01*
X10280Y12839D01*
X10190Y12844D01*
X10109Y12859D01*
X10036Y12882D01*
X9972Y12914D01*
X9914Y12953D01*
X9864Y13000D01*
X9821Y13053D01*
X9784Y13111D01*
X9753Y13174D01*
X9728Y13241D01*
X9707Y13312D01*
X9691Y13386D01*
X9672Y13539D01*
X9666Y14402D01*
X10321Y14402D01*
X10321Y14021D01*
X9948Y14021D01*
X9951Y13659D01*
X9961Y13561D01*
X9970Y13515D01*
X9981Y13471D01*
X9996Y13430D01*
X10013Y13392D01*
X10035Y13358D01*
X10060Y13327D01*
X10089Y13300D01*
X10123Y13277D01*
X10161Y13259D01*
X10205Y13246D01*
X10254Y13238D01*
X10309Y13235D01*
X10363Y13238D01*
X10413Y13248D01*
X10458Y13263D01*
X10500Y13283D01*
X10536Y13309D01*
X10569Y13338D01*
X10598Y13372D01*
X10624Y13409D01*
X10646Y13449D01*
X10664Y13492D01*
X10680Y13537D01*
X10692Y13583D01*
X10701Y13631D01*
X10707Y13680D01*
X10712Y14021D01*
X10321Y14021D01*
X10321Y14402D01*
X12047Y14402D01*
X12047Y14021D01*
X10998Y14021D01*
X11001Y13742D01*
X11005Y13705D01*
X11012Y13671D01*
X11021Y13639D01*
X11032Y13610D01*
X11045Y13583D01*
X11062Y13557D01*
X11081Y13534D01*
X11103Y13512D01*
X11128Y13492D01*
X11157Y13472D01*
X11189Y13454D01*
X11264Y13417D01*
X12047Y13107D01*
X12047Y12682D01*
X11180Y13035D01*
X11180Y13035D01*
G37*
G36*
X11983Y10576D02*
X12009Y10642D01*
X12030Y10711D01*
X12048Y10785D01*
X12073Y10936D01*
X12085Y11086D01*
X12086Y11158D01*
X12081Y11297D01*
X12065Y11429D01*
X12039Y11555D01*
X12002Y11674D01*
X11955Y11785D01*
X11899Y11889D01*
X11834Y11984D01*
X11759Y12072D01*
X11675Y12150D01*
X11582Y12218D01*
X11482Y12278D01*
X11373Y12327D01*
X11255Y12367D01*
X11131Y12395D01*
X10998Y12412D01*
X10858Y12418D01*
X10725Y12412D01*
X10596Y12393D01*
X10474Y12364D01*
X10359Y12323D01*
X10251Y12272D01*
X10150Y12211D01*
X10057Y12140D01*
X9972Y12061D01*
X9895Y11972D01*
X9827Y11876D01*
X9768Y11773D01*
X9720Y11662D01*
X9681Y11544D01*
X9653Y11421D01*
X9636Y11292D01*
X9631Y11158D01*
X9636Y11015D01*
X9653Y10865D01*
X9680Y10718D01*
X9699Y10648D01*
X9719Y10583D01*
X10034Y10604D01*
X10010Y10661D01*
X9990Y10722D01*
X9973Y10786D01*
X9947Y10918D01*
X9935Y11051D01*
X9934Y11115D01*
X9939Y11217D01*
X9952Y11313D01*
X9974Y11404D01*
X10003Y11490D01*
X10041Y11569D01*
X10086Y11643D01*
X10138Y11710D01*
X10197Y11771D01*
X10261Y11826D01*
X10332Y11874D01*
X10408Y11915D01*
X10489Y11949D01*
X10575Y11976D01*
X10666Y11995D01*
X10760Y12007D01*
X10858Y12011D01*
X10959Y12007D01*
X11056Y11996D01*
X11148Y11977D01*
X11235Y11952D01*
X11317Y11919D01*
X11392Y11879D01*
X11463Y11832D01*
X11527Y11779D01*
X11585Y11719D01*
X11635Y11653D01*
X11679Y11580D01*
X11716Y11500D01*
X11745Y11415D01*
X11766Y11323D01*
X11778Y11226D01*
X11783Y11088D01*
X11774Y10952D01*
X11753Y10819D01*
X11737Y10754D01*
X11717Y10690D01*
X11680Y10597D01*
X11983Y10576D01*
X11983Y10576D01*
G37*
G36*
X11183Y9698D02*
X11247Y9696D01*
X11308Y9689D01*
X11367Y9679D01*
X11423Y9664D01*
X11476Y9645D01*
X11525Y9621D01*
X11571Y9594D01*
X11613Y9562D01*
X11651Y9526D01*
X11684Y9485D01*
X11714Y9440D01*
X11738Y9390D01*
X11757Y9336D01*
X11771Y9278D01*
X11780Y9215D01*
X11783Y9148D01*
X11780Y9081D01*
X11771Y9017D01*
X11758Y8959D01*
X11738Y8905D01*
X11714Y8855D01*
X11686Y8810D01*
X11652Y8769D01*
X11614Y8732D01*
X11572Y8700D01*
X11527Y8672D01*
X11478Y8648D01*
X11424Y8629D01*
X11368Y8614D01*
X11309Y8603D01*
X11247Y8597D01*
X9666Y8595D01*
X9666Y8205D01*
X11285Y8210D01*
X11384Y8224D01*
X11477Y8245D01*
X11564Y8275D01*
X11644Y8313D01*
X11719Y8358D01*
X11787Y8410D01*
X11849Y8470D01*
X11903Y8535D01*
X11951Y8607D01*
X11992Y8685D01*
X12025Y8769D01*
X12052Y8857D01*
X12071Y8951D01*
X12083Y9049D01*
X12086Y9151D01*
X12083Y9254D01*
X12072Y9351D01*
X12053Y9445D01*
X12028Y9532D01*
X11995Y9615D01*
X11955Y9692D01*
X11908Y9763D01*
X11855Y9828D01*
X11795Y9886D01*
X11728Y9938D01*
X11654Y9982D01*
X11574Y10019D01*
X11488Y10048D01*
X11395Y10069D01*
X11296Y10083D01*
X9666Y10087D01*
X9666Y9698D01*
X11183Y9698D01*
X11183Y9698D01*
G37*
G36*
X12047Y7552D02*
X9666Y7552D01*
X9666Y7163D01*
X12047Y7163D01*
X12047Y7552D01*
X12047Y7552D01*
G37*
G36*
X12047Y6007D02*
X9987Y6007D01*
X9987Y6731D01*
X9666Y6731D01*
X9666Y4889D01*
X9987Y4889D01*
X9987Y5617D01*
X12047Y5617D01*
X12047Y6007D01*
G37*
G36*
X11658Y4518D02*
X11692Y4448D01*
X11720Y4380D01*
X11743Y4311D01*
X11762Y4241D01*
X11776Y4170D01*
X11786Y4097D01*
X11794Y3943D01*
X11792Y3900D01*
X11788Y3858D01*
X11782Y3816D01*
X11772Y3775D01*
X11760Y3736D01*
X11745Y3698D01*
X11726Y3662D01*
X11704Y3629D01*
X11680Y3599D01*
X11650Y3571D01*
X11619Y3546D01*
X11583Y3525D01*
X11543Y3509D01*
X11500Y3496D01*
X11452Y3489D01*
X11401Y3486D01*
X11360Y3488D01*
X11322Y3495D01*
X11287Y3505D01*
X11253Y3519D01*
X11223Y3537D01*
X11194Y3558D01*
X11167Y3581D01*
X11141Y3608D01*
X11117Y3638D01*
X11072Y3703D01*
X10861Y4126D01*
X10814Y4208D01*
X10761Y4284D01*
X10731Y4319D01*
X10700Y4352D01*
X10667Y4382D01*
X10630Y4409D01*
X10592Y4434D01*
X10550Y4456D01*
X10506Y4474D01*
X10458Y4488D01*
X10407Y4498D01*
X10353Y4505D01*
X10294Y4507D01*
X10209Y4502D01*
X10131Y4489D01*
X10058Y4467D01*
X9992Y4437D01*
X9931Y4401D01*
X9877Y4358D01*
X9829Y4309D01*
X9786Y4256D01*
X9748Y4198D01*
X9716Y4136D01*
X9689Y4071D01*
X9668Y4004D01*
X9651Y3936D01*
X9640Y3865D01*
X9633Y3796D01*
X9633Y3617D01*
X9645Y3478D01*
X9666Y3345D01*
X9705Y3186D01*
X10019Y3208D01*
X9996Y3266D01*
X9976Y3327D01*
X9959Y3390D01*
X9936Y3517D01*
X9924Y3643D01*
X9924Y3742D01*
X9928Y3780D01*
X9933Y3818D01*
X9941Y3855D01*
X9951Y3892D01*
X9964Y3927D01*
X9980Y3961D01*
X9999Y3993D01*
X10021Y4023D01*
X10046Y4049D01*
X10075Y4073D01*
X10107Y4094D01*
X10143Y4110D01*
X10182Y4122D01*
X10226Y4130D01*
X10273Y4132D01*
X10309Y4131D01*
X10342Y4125D01*
X10372Y4117D01*
X10401Y4105D01*
X10428Y4090D01*
X10453Y4073D01*
X10476Y4054D01*
X10498Y4032D01*
X10519Y4008D01*
X10539Y3982D01*
X10574Y3926D01*
X10780Y3501D01*
X10835Y3406D01*
X10864Y3362D01*
X10896Y3321D01*
X10929Y3282D01*
X10965Y3247D01*
X11004Y3214D01*
X11045Y3186D01*
X11091Y3160D01*
X11140Y3140D01*
X11193Y3123D01*
X11250Y3111D01*
X11313Y3103D01*
X11380Y3101D01*
X11468Y3105D01*
X11549Y3118D01*
X11625Y3138D01*
X11695Y3165D01*
X11759Y3200D01*
X11816Y3241D01*
X11868Y3288D01*
X11915Y3342D01*
X11956Y3400D01*
X11991Y3463D01*
X12020Y3532D01*
X12044Y3603D01*
X12063Y3680D01*
X12076Y3759D01*
X12084Y3841D01*
X12086Y3960D01*
X12078Y4108D01*
X12057Y4263D01*
X12024Y4420D01*
X11990Y4536D01*
X11658Y4518D01*
X11658Y4518D01*
G37*
M02*
