%
M48
METRIC,TZ,000.000
ICI,OFF
T1C0.25
T2C0.856
T3C2.2
T4C0.813
T5C1.02
%
T1
X11502Y13322
T1
X14826Y19825
T2
X9692Y22984
T2
X12192Y22984
T3
X16962Y27694
T3
X4922Y27694
T2
X9692Y24984
T2
X12192Y24984
T4
X3472Y10857
T4
X3472Y8317
T4
X3472Y5777
T4
X3472Y3237
T4
X11092Y3237
T4
X11092Y5777
T4
X11092Y8317
T4
X11092Y10857
T5
X3652Y14815
T5
X6192Y14815
T5
X3652Y19706
T5
X6192Y19706
T5
X15828Y9847
T5
X15828Y7347
T5
X15828Y4847
T5
X18328Y4847
T5
X18328Y7347
T5
X18328Y9847
M30
