G75*
G71*
%OFA0B0*%
%FSLAX23Y23*%
%IPPOS*%
%LPD*%
%ADD10C,0.1*%
%ADD11C,0.111*%
%ADD12C,0.05*%
%LPD*%D10*
X0Y0D02*
X0Y100D01*
X0Y199D01*
X0Y299D01*
X0Y399D01*
X0Y498D01*
X0Y598D01*
X0Y698D01*
X0Y798D01*
X0Y897D01*
X0Y997D01*
X0Y1097D01*
X0Y1196D01*
X0Y1296D01*
X0Y1396D01*
X0Y1495D01*
X0Y1595D01*
X0Y1695D01*
X0Y1795D01*
X0Y1894D01*
X0Y1994D01*
X0Y2094D01*
X0Y2193D01*
X0Y2293D01*
X0Y2393D01*
X0Y2492D01*
X0Y2592D01*
X0Y2692D01*
X0Y2791D01*
X0Y2891D01*
X0Y2991D01*
X0Y3091D01*
X0Y3190D01*
X0Y3290D01*
X0Y3390D01*
X0Y3489D01*
X0Y3589D01*
X0Y3689D01*
X0Y3788D01*
X0Y3888D01*
X0Y3988D01*
X0Y4088D01*
X0Y4187D01*
X0Y4287D01*
X0Y4387D01*
X0Y4486D01*
X0Y4586D01*
X0Y4686D01*
X0Y4785D01*
X0Y4885D01*
X0Y4985D01*
X0Y5084D01*
X0Y5184D01*
X0Y5284D01*
X0Y5384D01*
X0Y5483D01*
X0Y5583D01*
X0Y5683D01*
X0Y5782D01*
X0Y5882D01*
X0Y5982D01*
X0Y6081D01*
X0Y6181D01*
X0Y6281D01*
X0Y6380D01*
X0Y6480D01*
X0Y6580D01*
X0Y6680D01*
X0Y6779D01*
X0Y6879D01*
X0Y6979D01*
X0Y7078D01*
X0Y7178D01*
X0Y7278D01*
X0Y7377D01*
X0Y7477D01*
X0Y7577D01*
X0Y7677D01*
X0Y7776D01*
X0Y7876D01*
X0Y7976D01*
X0Y8075D01*
X0Y8175D01*
X0Y8275D01*
X0Y8374D01*
X0Y8474D01*
X0Y8574D01*
X0Y8673D01*
X0Y8773D01*
X0Y8873D01*
X0Y8973D01*
X0Y9072D01*
X0Y9172D01*
X0Y9272D01*
X0Y9371D01*
X0Y9471D01*
X0Y9571D01*
X0Y9670D01*
X0Y9770D01*
X0Y9870D01*
X0Y9970D01*
X0Y10069D01*
X0Y10169D01*
X0Y10269D01*
X0Y10368D01*
X0Y10468D01*
X0Y10568D01*
X0Y10667D01*
X0Y10767D01*
X0Y10867D01*
X0Y10966D01*
X0Y11066D01*
X0Y11166D01*
X0Y11266D01*
X0Y11365D01*
X0Y11465D01*
X0Y11565D01*
X0Y11664D01*
X0Y11764D01*
X0Y11864D01*
X0Y11963D01*
X0Y12063D01*
X0Y12163D01*
X0Y12262D01*
X0Y12362D01*
X0Y12462D01*
X0Y12562D01*
X0Y12661D01*
X0Y12761D01*
X0Y12861D01*
X0Y12960D01*
X0Y13060D01*
X0Y13160D01*
X0Y13259D01*
X0Y13359D01*
X0Y13459D01*
X0Y13559D01*
X0Y13658D01*
X0Y13758D01*
X0Y13858D01*
X0Y13957D01*
X0Y14057D01*
X0Y14157D01*
X0Y14256D01*
X0Y14356D01*
X0Y14456D01*
X0Y14555D01*
X0Y14655D01*
X0Y14755D01*
X0Y14855D01*
X0Y14954D01*
X0Y15054D01*
X0Y15154D01*
X0Y15253D01*
X0Y15353D01*
X0Y15453D01*
X0Y15552D01*
X0Y15652D01*
X0Y15752D01*
X0Y15852D01*
X0Y15951D01*
X0Y16051D01*
X0Y16151D01*
X0Y16250D01*
X0Y16350D01*
X0Y16450D01*
X0Y16549D01*
X0Y16649D01*
X0Y16749D01*
X0Y16848D01*
X0Y16948D01*
X0Y17048D01*
X0Y17148D01*
X0Y17247D01*
X0Y17347D01*
X0Y17447D01*
X0Y17546D01*
X0Y17646D01*
X0Y17746D01*
X0Y17845D01*
X0Y17945D01*
X0Y18045D01*
X0Y18145D01*
X0Y18244D01*
X0Y18344D01*
X0Y18444D01*
X0Y18543D01*
X0Y18643D01*
X0Y18743D01*
X0Y18842D01*
X0Y18942D01*
X0Y19042D01*
X0Y19141D01*
X0Y19241D01*
X0Y19341D01*
X0Y19441D01*
X0Y19540D01*
X0Y19640D01*
X0Y19740D01*
X0Y19839D01*
X0Y19939D01*
X0Y20039D01*
X0Y20138D01*
X0Y20238D01*
X0Y20338D01*
X0Y20438D01*
X0Y20537D01*
X0Y20637D01*
X0Y20737D01*
X0Y20836D01*
X0Y20936D01*
X0Y21036D01*
X0Y21135D01*
X0Y21235D01*
X0Y21335D01*
X0Y21434D01*
X0Y21534D01*
X0Y21634D01*
X0Y21734D01*
X0Y21833D01*
X0Y21933D01*
X0Y22033D01*
X0Y22132D01*
X0Y22232D01*
X0Y22332D01*
X0Y22431D01*
X0Y22531D01*
X0Y22631D01*
X0Y22731D01*
X0Y22830D01*
X0Y22930D01*
X0Y23030D01*
X0Y23129D01*
X0Y23229D01*
X0Y23329D01*
X0Y23428D01*
X0Y23528D01*
X0Y23628D01*
X0Y23727D01*
X0Y23827D01*
X0Y23927D01*
X0Y24027D01*
X0Y24126D01*
X0Y24226D01*
X0Y24326D01*
X0Y24425D01*
X0Y24525D01*
X0Y24625D01*
X0Y24724D01*
X0Y24824D01*
X0Y24924D01*
X0Y25024D01*
X0Y25123D01*
X0Y25223D01*
X0Y25323D01*
X0Y25422D01*
X0Y25522D01*
X0Y25622D01*
X0Y25721D01*
X0Y25821D01*
X0Y25921D01*
X0Y26020D01*
X0Y26120D01*
X0Y26220D01*
X0Y26320D01*
X0Y26419D01*
X0Y26519D01*
X0Y26619D01*
X0Y26718D01*
X0Y26818D01*
X0Y26918D01*
X0Y27017D01*
X0Y27117D01*
X0Y27217D01*
X0Y27317D01*
X0Y27416D01*
X0Y27516D01*
X0Y27616D01*
X0Y27715D01*
X0Y27815D01*
X0Y27915D01*
X0Y28014D01*
X0Y28114D01*
X0Y28214D01*
X0Y28313D01*
X0Y28413D01*
X0Y28513D01*
X0Y28613D01*
X0Y28712D01*
X0Y28812D01*
X0Y28912D01*
X0Y29011D01*
X0Y29111D01*
X0Y29211D01*
X0Y29310D01*
X0Y29410D01*
X0Y29510D01*
X0Y29610D01*
X0Y29709D01*
X0Y29809D01*
X0Y29909D01*
X0Y30008D01*
X0Y30108D01*
X0Y30208D01*
X0Y30307D01*
X0Y30407D01*
X0Y30507D01*
X0Y30607D01*
X0Y30706D01*
X0Y30806D01*
X0Y30906D01*
X0Y31005D01*
X100Y31005D01*
X199Y31005D01*
X299Y31005D01*
X398Y31005D01*
X498Y31005D01*
X598Y31005D01*
X697Y31005D01*
X797Y31005D01*
X897Y31005D01*
X996Y31005D01*
X1096Y31005D01*
X1195Y31005D01*
X1295Y31005D01*
X1395Y31005D01*
X1494Y31005D01*
X1594Y31005D01*
X1694Y31005D01*
X1793Y31005D01*
X1893Y31005D01*
X1992Y31005D01*
X2092Y31005D01*
X2192Y31005D01*
X2291Y31005D01*
X2391Y31005D01*
X2490Y31005D01*
X2590Y31005D01*
X2690Y31005D01*
X2789Y31005D01*
X2889Y31005D01*
X2989Y31005D01*
X3088Y31005D01*
X3188Y31005D01*
X3287Y31005D01*
X3387Y31005D01*
X3487Y31005D01*
X3586Y31005D01*
X3686Y31005D01*
X3785Y31005D01*
X3885Y31005D01*
X3985Y31005D01*
X4084Y31005D01*
X4184Y31005D01*
X4284Y31005D01*
X4383Y31005D01*
X4483Y31005D01*
X4582Y31005D01*
X4682Y31005D01*
X4782Y31005D01*
X4881Y31005D01*
X4981Y31005D01*
X5081Y31005D01*
X5180Y31005D01*
X5280Y31005D01*
X5379Y31005D01*
X5479Y31005D01*
X5579Y31005D01*
X5678Y31005D01*
X5778Y31005D01*
X5877Y31005D01*
X5977Y31005D01*
X6077Y31005D01*
X6176Y31005D01*
X6276Y31005D01*
X6376Y31005D01*
X6475Y31005D01*
X6575Y31005D01*
X6674Y31005D01*
X6774Y31005D01*
X6874Y31005D01*
X6973Y31005D01*
X7073Y31005D01*
X7173Y31005D01*
X7272Y31005D01*
X7372Y31005D01*
X7471Y31005D01*
X7571Y31005D01*
X7671Y31005D01*
X7770Y31005D01*
X7870Y31005D01*
X7969Y31005D01*
X8069Y31005D01*
X8169Y31005D01*
X8268Y31005D01*
X8368Y31005D01*
X8468Y31005D01*
X8567Y31005D01*
X8667Y31005D01*
X8766Y31005D01*
X8866Y31005D01*
X8966Y31005D01*
X9065Y31005D01*
X9165Y31005D01*
X9265Y31005D01*
X9364Y31005D01*
X9464Y31005D01*
X9563Y31005D01*
X9663Y31005D01*
X9763Y31005D01*
X9862Y31005D01*
X9962Y31005D01*
X10061Y31005D01*
X10161Y31005D01*
X10261Y31005D01*
X10360Y31005D01*
X10460Y31005D01*
X10560Y31005D01*
X10659Y31005D01*
X10759Y31005D01*
X10858Y31005D01*
X10958Y31005D01*
X11058Y31005D01*
X11157Y31005D01*
X11257Y31005D01*
X11357Y31005D01*
X11456Y31005D01*
X11556Y31005D01*
X11655Y31005D01*
X11755Y31005D01*
X11855Y31005D01*
X11954Y31005D01*
X12054Y31005D01*
X12153Y31005D01*
X12253Y31005D01*
X12353Y31005D01*
X12452Y31005D01*
X12552Y31005D01*
X12652Y31005D01*
X12751Y31005D01*
X12851Y31005D01*
X12950Y31005D01*
X13050Y31005D01*
X13150Y31005D01*
X13249Y31005D01*
X13349Y31005D01*
X13449Y31005D01*
X13548Y31005D01*
X13648Y31005D01*
X13747Y31005D01*
X13847Y31005D01*
X13947Y31005D01*
X14046Y31005D01*
X14146Y31005D01*
X14245Y31005D01*
X14345Y31005D01*
X14445Y31005D01*
X14544Y31005D01*
X14644Y31005D01*
X14744Y31005D01*
X14843Y31005D01*
X14943Y31005D01*
X15042Y31005D01*
X15142Y31005D01*
X15242Y31005D01*
X15341Y31005D01*
X15441Y31005D01*
X15540Y31005D01*
X15640Y31005D01*
X15740Y31005D01*
X15839Y31005D01*
X15939Y31005D01*
X16039Y31005D01*
X16138Y31005D01*
X16238Y31005D01*
X16337Y31005D01*
X16437Y31005D01*
X16537Y31005D01*
X16636Y31005D01*
X16736Y31005D01*
X16836Y31005D01*
X16935Y31005D01*
X17035Y31005D01*
X17134Y31005D01*
X17234Y31005D01*
X17334Y31005D01*
X17433Y31005D01*
X17533Y31005D01*
X17632Y31005D01*
X17732Y31005D01*
X17832Y31005D01*
X17931Y31005D01*
X18031Y31005D01*
X18131Y31005D01*
X18230Y31005D01*
X18330Y31005D01*
X18429Y31005D01*
X18529Y31005D01*
X18629Y31005D01*
X18728Y31005D01*
X18828Y31005D01*
X18928Y31005D01*
X19027Y31005D01*
X19127Y31005D01*
X19226Y31005D01*
X19326Y31005D01*
X19426Y31005D01*
X19525Y31005D01*
X19625Y31005D01*
X19725Y31005D01*
X19824Y31005D01*
X19924Y31005D01*
X20023Y31005D01*
X20123Y31005D01*
X20223Y31005D01*
X20322Y31005D01*
X20422Y31005D01*
X20521Y31005D01*
X20621Y31005D01*
X20721Y31005D01*
X20820Y31005D01*
X20920Y31005D01*
X21020Y31005D01*
X21119Y31005D01*
X21219Y31005D01*
X21318Y31005D01*
X21418Y31005D01*
X21518Y31005D01*
X21617Y31005D01*
X21717Y31005D01*
X21717Y30906D01*
X21717Y30806D01*
X21717Y30706D01*
X21717Y30607D01*
X21717Y30507D01*
X21717Y30407D01*
X21717Y30307D01*
X21717Y30208D01*
X21717Y30108D01*
X21717Y30008D01*
X21717Y29909D01*
X21717Y29809D01*
X21717Y29709D01*
X21717Y29610D01*
X21717Y29510D01*
X21717Y29410D01*
X21717Y29311D01*
X21717Y29211D01*
X21717Y29111D01*
X21717Y29011D01*
X21717Y28912D01*
X21717Y28812D01*
X21717Y28712D01*
X21717Y28613D01*
X21717Y28513D01*
X21717Y28413D01*
X21717Y28314D01*
X21717Y28214D01*
X21717Y28114D01*
X21717Y28014D01*
X21717Y27915D01*
X21717Y27815D01*
X21717Y27715D01*
X21717Y27616D01*
X21717Y27516D01*
X21717Y27416D01*
X21717Y27317D01*
X21717Y27217D01*
X21717Y27117D01*
X21717Y27018D01*
X21717Y26918D01*
X21717Y26818D01*
X21717Y26718D01*
X21717Y26619D01*
X21717Y26519D01*
X21717Y26419D01*
X21717Y26320D01*
X21717Y26220D01*
X21717Y26120D01*
X21717Y26021D01*
X21717Y25921D01*
X21717Y25821D01*
X21717Y25721D01*
X21717Y25622D01*
X21717Y25522D01*
X21717Y25422D01*
X21717Y25323D01*
X21717Y25223D01*
X21717Y25123D01*
X21717Y25024D01*
X21717Y24924D01*
X21717Y24824D01*
X21717Y24725D01*
X21717Y24625D01*
X21717Y24525D01*
X21717Y24425D01*
X21717Y24326D01*
X21717Y24226D01*
X21717Y24126D01*
X21717Y24027D01*
X21717Y23927D01*
X21717Y23827D01*
X21717Y23728D01*
X21717Y23628D01*
X21717Y23528D01*
X21717Y23428D01*
X21717Y23329D01*
X21717Y23229D01*
X21717Y23129D01*
X21717Y23030D01*
X21717Y22930D01*
X21717Y22830D01*
X21717Y22731D01*
X21717Y22631D01*
X21717Y22531D01*
X21717Y22432D01*
X21717Y22332D01*
X21717Y22232D01*
X21717Y22132D01*
X21717Y22033D01*
X21717Y21933D01*
X21717Y21833D01*
X21717Y21734D01*
X21717Y21634D01*
X21717Y21534D01*
X21717Y21435D01*
X21717Y21335D01*
X21717Y21235D01*
X21717Y21135D01*
X21717Y21036D01*
X21717Y20936D01*
X21717Y20836D01*
X21717Y20737D01*
X21717Y20637D01*
X21717Y20537D01*
X21717Y20438D01*
X21717Y20338D01*
X21717Y20238D01*
X21717Y20139D01*
X21717Y20039D01*
X21717Y19939D01*
X21717Y19839D01*
X21717Y19740D01*
X21717Y19640D01*
X21717Y19540D01*
X21717Y19441D01*
X21717Y19341D01*
X21717Y19241D01*
X21717Y19142D01*
X21717Y19042D01*
X21717Y18942D01*
X21717Y18843D01*
X21717Y18743D01*
X21717Y18643D01*
X21717Y18543D01*
X21717Y18444D01*
X21717Y18344D01*
X21717Y18244D01*
X21717Y18145D01*
X21717Y18045D01*
X21717Y17945D01*
X21717Y17846D01*
X21717Y17746D01*
X21717Y17646D01*
X21717Y17546D01*
X21717Y17447D01*
X21717Y17347D01*
X21717Y17247D01*
X21717Y17148D01*
X21717Y17048D01*
X21717Y16948D01*
X21717Y16849D01*
X21717Y16749D01*
X21717Y16649D01*
X21717Y16550D01*
X21717Y16450D01*
X21717Y16350D01*
X21717Y16250D01*
X21717Y16151D01*
X21717Y16051D01*
X21717Y15951D01*
X21717Y15852D01*
X21717Y15752D01*
X21717Y15652D01*
X21717Y15553D01*
X21717Y15453D01*
X21717Y15353D01*
X21717Y15253D01*
X21717Y15154D01*
X21717Y15054D01*
X21717Y14954D01*
X21717Y14855D01*
X21717Y14755D01*
X21717Y14655D01*
X21717Y14556D01*
X21717Y14456D01*
X21717Y14356D01*
X21717Y14257D01*
X21717Y14157D01*
X21717Y14057D01*
X21717Y13957D01*
X21717Y13858D01*
X21717Y13758D01*
X21717Y13658D01*
X21717Y13559D01*
X21717Y13459D01*
X21717Y13359D01*
X21717Y13260D01*
X21717Y13160D01*
X21717Y13060D01*
X21717Y12961D01*
X21717Y12861D01*
X21717Y12761D01*
X21717Y12661D01*
X21717Y12562D01*
X21717Y12462D01*
X21717Y12362D01*
X21717Y12263D01*
X21717Y12163D01*
X21717Y12063D01*
X21717Y11964D01*
X21717Y11864D01*
X21717Y11764D01*
X21717Y11664D01*
X21717Y11565D01*
X21717Y11465D01*
X21717Y11365D01*
X21717Y11266D01*
X21717Y11166D01*
X21717Y11066D01*
X21717Y10967D01*
X21717Y10867D01*
X21717Y10767D01*
X21717Y10667D01*
X21717Y10568D01*
X21717Y10468D01*
X21717Y10368D01*
X21717Y10269D01*
X21717Y10169D01*
X21717Y10069D01*
X21717Y9970D01*
X21717Y9870D01*
X21717Y9770D01*
X21717Y9671D01*
X21717Y9571D01*
X21717Y9471D01*
X21717Y9371D01*
X21717Y9272D01*
X21717Y9172D01*
X21717Y9072D01*
X21717Y8973D01*
X21717Y8873D01*
X21717Y8773D01*
X21717Y8674D01*
X21717Y8574D01*
X21717Y8474D01*
X21717Y8375D01*
X21717Y8275D01*
X21717Y8175D01*
X21717Y8075D01*
X21717Y7976D01*
X21717Y7876D01*
X21717Y7776D01*
X21717Y7677D01*
X21717Y7577D01*
X21717Y7477D01*
X21717Y7378D01*
X21717Y7278D01*
X21717Y7178D01*
X21717Y7078D01*
X21717Y6979D01*
X21717Y6879D01*
X21717Y6779D01*
X21717Y6680D01*
X21717Y6580D01*
X21717Y6480D01*
X21717Y6381D01*
X21717Y6281D01*
X21717Y6181D01*
X21717Y6082D01*
X21717Y5982D01*
X21717Y5882D01*
X21717Y5782D01*
X21717Y5683D01*
X21717Y5583D01*
X21717Y5483D01*
X21717Y5384D01*
X21717Y5284D01*
X21717Y5184D01*
X21717Y5085D01*
X21717Y4985D01*
X21717Y4885D01*
X21717Y4785D01*
X21717Y4686D01*
X21717Y4586D01*
X21717Y4486D01*
X21717Y4387D01*
X21717Y4287D01*
X21717Y4187D01*
X21717Y4088D01*
X21717Y3988D01*
X21717Y3888D01*
X21717Y3788D01*
X21717Y3689D01*
X21717Y3589D01*
X21717Y3489D01*
X21717Y3390D01*
X21717Y3290D01*
X21717Y3190D01*
X21717Y3091D01*
X21717Y2991D01*
X21717Y2891D01*
X21717Y2792D01*
X21717Y2692D01*
X21717Y2592D01*
X21717Y2492D01*
X21717Y2393D01*
X21717Y2293D01*
X21717Y2193D01*
X21717Y2094D01*
X21717Y1994D01*
X21717Y1894D01*
X21717Y1795D01*
X21717Y1695D01*
X21717Y1595D01*
X21717Y1495D01*
X21717Y1396D01*
X21717Y1296D01*
X21717Y1196D01*
X21717Y1097D01*
X21717Y997D01*
X21717Y897D01*
X21717Y798D01*
X21717Y698D01*
X21717Y598D01*
X21717Y499D01*
X21717Y399D01*
X21717Y299D01*
X21717Y199D01*
X21717Y100D01*
X21717Y0D01*
X21617Y0D01*
X21518Y0D01*
X21418Y0D01*
X21318Y0D01*
X21219Y0D01*
X21119Y0D01*
X21020Y0D01*
X20920Y0D01*
X20820Y0D01*
X20721Y0D01*
X20621Y0D01*
X20522Y0D01*
X20422Y0D01*
X20322Y0D01*
X20223Y0D01*
X20123Y0D01*
X20023Y0D01*
X19924Y0D01*
X19824Y0D01*
X19725Y0D01*
X19625Y0D01*
X19525Y0D01*
X19426Y0D01*
X19326Y0D01*
X19226Y0D01*
X19127Y0D01*
X19027Y0D01*
X18928Y0D01*
X18828Y0D01*
X18728Y0D01*
X18629Y0D01*
X18529Y0D01*
X18430Y0D01*
X18330Y0D01*
X18230Y0D01*
X18131Y0D01*
X18031Y0D01*
X17931Y0D01*
X17832Y0D01*
X17732Y0D01*
X17633Y0D01*
X17533Y0D01*
X17433Y0D01*
X17334Y0D01*
X17234Y0D01*
X17134Y0D01*
X17035Y0D01*
X16935Y0D01*
X16836Y0D01*
X16736Y0D01*
X16636Y0D01*
X16537Y0D01*
X16437Y0D01*
X16338Y0D01*
X16238Y0D01*
X16138Y0D01*
X16039Y0D01*
X15939Y0D01*
X15839Y0D01*
X15740Y0D01*
X15640Y0D01*
X15541Y0D01*
X15441Y0D01*
X15341Y0D01*
X15242Y0D01*
X15142Y0D01*
X15042Y0D01*
X14943Y0D01*
X14843Y0D01*
X14744Y0D01*
X14644Y0D01*
X14544Y0D01*
X14445Y0D01*
X14345Y0D01*
X14246Y0D01*
X14146Y0D01*
X14046Y0D01*
X13947Y0D01*
X13847Y0D01*
X13747Y0D01*
X13648Y0D01*
X13548Y0D01*
X13449Y0D01*
X13349Y0D01*
X13249Y0D01*
X13150Y0D01*
X13050Y0D01*
X12950Y0D01*
X12851Y0D01*
X12751Y0D01*
X12652Y0D01*
X12552Y0D01*
X12452Y0D01*
X12353Y0D01*
X12253Y0D01*
X12154Y0D01*
X12054Y0D01*
X11954Y0D01*
X11855Y0D01*
X11755Y0D01*
X11655Y0D01*
X11556Y0D01*
X11456Y0D01*
X11357Y0D01*
X11257Y0D01*
X11157Y0D01*
X11058Y0D01*
X10958Y0D01*
X10859Y0D01*
X10759Y0D01*
X10659Y0D01*
X10560Y0D01*
X10460Y0D01*
X10360Y0D01*
X10261Y0D01*
X10161Y0D01*
X10062Y0D01*
X9962Y0D01*
X9862Y0D01*
X9763Y0D01*
X9663Y0D01*
X9563Y0D01*
X9464Y0D01*
X9364Y0D01*
X9265Y0D01*
X9165Y0D01*
X9065Y0D01*
X8966Y0D01*
X8866Y0D01*
X8767Y0D01*
X8667Y0D01*
X8567Y0D01*
X8468Y0D01*
X8368Y0D01*
X8268Y0D01*
X8169Y0D01*
X8069Y0D01*
X7970Y0D01*
X7870Y0D01*
X7770Y0D01*
X7671Y0D01*
X7571Y0D01*
X7471Y0D01*
X7372Y0D01*
X7272Y0D01*
X7173Y0D01*
X7073Y0D01*
X6973Y0D01*
X6874Y0D01*
X6774Y0D01*
X6675Y0D01*
X6575Y0D01*
X6475Y0D01*
X6376Y0D01*
X6276Y0D01*
X6176Y0D01*
X6077Y0D01*
X5977Y0D01*
X5878Y0D01*
X5778Y0D01*
X5678Y0D01*
X5579Y0D01*
X5479Y0D01*
X5379Y0D01*
X5280Y0D01*
X5180Y0D01*
X5081Y0D01*
X4981Y0D01*
X4881Y0D01*
X4782Y0D01*
X4682Y0D01*
X4583Y0D01*
X4483Y0D01*
X4383Y0D01*
X4284Y0D01*
X4184Y0D01*
X4084Y0D01*
X3985Y0D01*
X3885Y0D01*
X3786Y0D01*
X3686Y0D01*
X3586Y0D01*
X3487Y0D01*
X3387Y0D01*
X3287Y0D01*
X3188Y0D01*
X3088Y0D01*
X2989Y0D01*
X2889Y0D01*
X2789Y0D01*
X2690Y0D01*
X2590Y0D01*
X2491Y0D01*
X2391Y0D01*
X2291Y0D01*
X2192Y0D01*
X2092Y0D01*
X1992Y0D01*
X1893Y0D01*
X1793Y0D01*
X1694Y0D01*
X1594Y0D01*
X1494Y0D01*
X1395Y0D01*
X1295Y0D01*
X1195Y0D01*
X1096Y0D01*
X996Y0D01*
X897Y0D01*
X797Y0D01*
X697Y0D01*
X598Y0D01*
X498Y0D01*
X399Y0D01*
X299Y0D01*
X199Y0D01*
X100Y0D01*
X0Y0D01*
X0Y0D01*
X0Y0D01*
X0Y0D01*
X0Y0D01*
X0Y0D01*
D11*
X10414Y28027D02*
X10414Y27444D01*
X10497Y27360D01*
X10775Y27360D01*
X10859Y27444D01*
X10859Y28027D01*
D11*
X11164Y27360D02*
X11081Y27444D01*
X11081Y27944D01*
X11164Y28027D01*
X11386Y28027D01*
X11470Y27944D01*
X11470Y27444D01*
X11386Y27360D01*
X11164Y27360D01*
D11*
X11081Y27527D02*
X11470Y27860D01*
D12*
X4542Y38694D02*
X4542Y38594D01*
X4542Y38494D01*
X4542Y38394D01*
X4542Y38294D01*
X4542Y38194D01*
X4542Y38094D01*
X4542Y37994D01*
X4542Y37894D01*
X4542Y37794D01*
X4542Y37694D01*
X4542Y37594D01*
X4542Y37494D01*
X4542Y37394D01*
X4542Y37294D01*
X4542Y37194D01*
X4542Y37094D01*
X4542Y36994D01*
X4542Y36894D01*
X4542Y36794D01*
X4542Y36694D01*
X4542Y36594D01*
X4542Y36494D01*
X4542Y36394D01*
X4542Y36294D01*
X4542Y36194D01*
X4542Y36094D01*
X4542Y35994D01*
X4542Y35894D01*
X4542Y35794D01*
X4542Y35694D01*
X4542Y35594D01*
X4542Y35494D01*
X4542Y35394D01*
X4542Y35294D01*
X4542Y35194D01*
X4542Y35094D01*
X4542Y34994D01*
X4542Y34894D01*
X4542Y34794D01*
X4542Y34694D01*
X4542Y34594D01*
X4542Y34494D01*
X4542Y34394D01*
X4542Y34294D01*
X4542Y34194D01*
X4542Y34094D01*
X4542Y33994D01*
X4542Y33894D01*
X4542Y33794D01*
X4542Y33694D01*
X4542Y33594D01*
X4542Y33494D01*
X4542Y33394D01*
X4542Y33294D01*
X4542Y33194D01*
X4542Y33094D01*
X4542Y32994D01*
X4542Y32894D01*
X4542Y32794D01*
X4542Y32694D01*
X4542Y32594D01*
X4542Y32494D01*
X4542Y32394D01*
X4542Y32294D01*
X4542Y32194D01*
X4542Y32094D01*
X4542Y31994D01*
X4542Y31894D01*
X4542Y31794D01*
X4542Y31694D01*
X4542Y31594D01*
X4542Y31494D01*
X4542Y31394D01*
X4542Y31294D01*
X4542Y31194D01*
X4542Y31094D01*
X4542Y30994D01*
X4542Y30894D01*
X4542Y30794D01*
X4542Y30694D01*
X4542Y30594D01*
X4542Y30494D01*
X4542Y30394D01*
X4542Y30294D01*
X4542Y30194D01*
X4542Y30094D01*
X4542Y29994D01*
X4542Y29894D01*
X4542Y29794D01*
X4542Y29694D01*
X4542Y29594D01*
X4542Y29494D01*
X4542Y29394D01*
X4542Y29294D01*
X4542Y29194D01*
X4542Y29094D01*
X4542Y28994D01*
X4542Y28894D01*
X4542Y28794D01*
X4542Y28694D01*
X4542Y28594D01*
X4542Y28494D01*
X4542Y28394D01*
X4542Y28294D01*
X4542Y28194D01*
X4542Y28094D01*
X4542Y27994D01*
X4542Y27894D01*
X4542Y27794D01*
X4542Y27694D01*
X4542Y27594D01*
X4542Y27494D01*
X4542Y27394D01*
X4542Y27294D01*
X4542Y27194D01*
X4542Y27094D01*
X4542Y26994D01*
X4542Y26894D01*
X4542Y26794D01*
X4542Y26694D01*
X4542Y26594D01*
X4542Y26494D01*
X4542Y26394D01*
X4542Y26294D01*
X4542Y26194D01*
X4542Y26094D01*
X4542Y25994D01*
X4542Y25894D01*
X4542Y25794D01*
X4542Y25694D01*
X4542Y25594D01*
X4542Y25494D01*
X4542Y25394D01*
X4542Y25294D01*
X4542Y25194D01*
X4542Y25094D01*
X4542Y24994D01*
X4542Y24894D01*
X4542Y24794D01*
X4542Y24694D01*
X4542Y24594D01*
X4542Y24494D01*
X4542Y24394D01*
X4542Y24294D01*
X4542Y24194D01*
X4542Y24094D01*
X4542Y23994D01*
X4542Y23894D01*
X4542Y23794D01*
X4542Y23694D01*
X4542Y23594D01*
X4542Y23494D01*
X4542Y23394D01*
X4542Y23294D01*
X4542Y23194D01*
X4542Y23094D01*
X4542Y22994D01*
X4542Y22894D01*
X4542Y22794D01*
X4542Y22694D01*
X4542Y22594D01*
X4642Y22594D01*
X4742Y22594D01*
X4842Y22594D01*
X4942Y22594D01*
X5042Y22594D01*
X5142Y22594D01*
X5242Y22594D01*
X5342Y22594D01*
X5442Y22594D01*
X5542Y22594D01*
X5642Y22594D01*
X5742Y22594D01*
X5842Y22594D01*
X5942Y22594D01*
X6042Y22594D01*
X6142Y22594D01*
X6242Y22594D01*
X6342Y22594D01*
X6442Y22594D01*
X6542Y22594D01*
X6642Y22594D01*
X6742Y22594D01*
X6842Y22594D01*
X6942Y22594D01*
X7042Y22594D01*
X7142Y22594D01*
X7242Y22594D01*
X7342Y22594D01*
X7442Y22594D01*
X7542Y22594D01*
X7642Y22594D01*
X7742Y22594D01*
X7842Y22594D01*
X7942Y22594D01*
X8042Y22594D01*
X8142Y22594D01*
X8242Y22594D01*
X8342Y22594D01*
X8442Y22594D01*
X8542Y22594D01*
X8642Y22594D01*
X8742Y22594D01*
X8842Y22594D01*
X8942Y22594D01*
X9042Y22594D01*
X9142Y22594D01*
X9242Y22594D01*
X9342Y22594D01*
X9442Y22594D01*
X9542Y22594D01*
X9642Y22594D01*
X9742Y22594D01*
X9842Y22594D01*
X9942Y22594D01*
X10042Y22594D01*
X10142Y22594D01*
X10242Y22594D01*
X10342Y22594D01*
X10442Y22594D01*
X10542Y22594D01*
X10642Y22594D01*
X10742Y22594D01*
X10842Y22594D01*
X10942Y22594D01*
X11042Y22594D01*
X11142Y22594D01*
X11242Y22594D01*
X11342Y22594D01*
X11442Y22594D01*
X11542Y22594D01*
X11642Y22594D01*
X11742Y22594D01*
X11842Y22594D01*
X11942Y22594D01*
X12042Y22594D01*
X12142Y22594D01*
X12242Y22594D01*
X12342Y22594D01*
X12442Y22594D01*
X12542Y22594D01*
X12642Y22594D01*
X12742Y22594D01*
X12842Y22594D01*
X12942Y22594D01*
X13042Y22594D01*
X13142Y22594D01*
X13242Y22594D01*
X13342Y22594D01*
X13442Y22594D01*
X13542Y22594D01*
X13642Y22594D01*
X13742Y22594D01*
X13842Y22594D01*
X13942Y22594D01*
X14042Y22594D01*
X14142Y22594D01*
X14242Y22594D01*
X14342Y22594D01*
X14442Y22594D01*
X14542Y22594D01*
X14642Y22594D01*
X14742Y22594D01*
X14842Y22594D01*
X14942Y22594D01*
X15042Y22594D01*
X15142Y22594D01*
X15242Y22594D01*
X15342Y22594D01*
X15442Y22594D01*
X15542Y22594D01*
X15642Y22594D01*
X15742Y22594D01*
X15842Y22594D01*
X15942Y22594D01*
X16042Y22594D01*
X16142Y22594D01*
X16242Y22594D01*
X16342Y22594D01*
X16442Y22594D01*
X16542Y22594D01*
X16642Y22594D01*
X16742Y22594D01*
X16842Y22594D01*
X16942Y22594D01*
X17042Y22594D01*
X17142Y22594D01*
X17242Y22594D01*
X17342Y22594D01*
X17342Y22694D01*
X17342Y22794D01*
X17342Y22894D01*
X17342Y22994D01*
X17342Y23094D01*
X17342Y23194D01*
X17342Y23294D01*
X17342Y23394D01*
X17342Y23494D01*
X17342Y23594D01*
X17342Y23694D01*
X17342Y23794D01*
X17342Y23894D01*
X17342Y23994D01*
X17342Y24094D01*
X17342Y24194D01*
X17342Y24294D01*
X17342Y24394D01*
X17342Y24494D01*
X17342Y24594D01*
X17342Y24694D01*
X17342Y24794D01*
X17342Y24894D01*
X17342Y24994D01*
X17342Y25094D01*
X17342Y25194D01*
X17342Y25294D01*
X17342Y25394D01*
X17342Y25494D01*
X17342Y25594D01*
X17342Y25694D01*
X17342Y25794D01*
X17342Y25894D01*
X17342Y25994D01*
X17342Y26094D01*
X17342Y26194D01*
X17342Y26294D01*
X17342Y26394D01*
X17342Y26494D01*
X17342Y26594D01*
X17342Y26694D01*
X17342Y26794D01*
X17342Y26894D01*
X17342Y26994D01*
X17342Y27094D01*
X17342Y27194D01*
X17342Y27294D01*
X17342Y27394D01*
X17342Y27494D01*
X17342Y27594D01*
X17342Y27694D01*
X17342Y27794D01*
X17342Y27894D01*
X17342Y27994D01*
X17342Y28094D01*
X17342Y28194D01*
X17342Y28294D01*
X17342Y28394D01*
X17342Y28494D01*
X17342Y28594D01*
X17342Y28694D01*
X17342Y28794D01*
X17342Y28894D01*
X17342Y28994D01*
X17342Y29094D01*
X17342Y29194D01*
X17342Y29294D01*
X17342Y29394D01*
X17342Y29494D01*
X17342Y29594D01*
X17342Y29694D01*
X17342Y29794D01*
X17342Y29894D01*
X17342Y29994D01*
X17342Y30093D01*
X17342Y30194D01*
X17342Y30294D01*
X17342Y30394D01*
X17342Y30494D01*
X17342Y30594D01*
X17342Y30694D01*
X17342Y30794D01*
X17342Y30894D01*
X17342Y30994D01*
X17342Y31094D01*
X17342Y31194D01*
X17342Y31293D01*
X17342Y31394D01*
X17342Y31494D01*
X17342Y31593D01*
X17342Y31693D01*
X17342Y31794D01*
X17342Y31893D01*
X17342Y31994D01*
X17342Y32093D01*
X17342Y32194D01*
X17342Y32294D01*
X17342Y32394D01*
X17342Y32494D01*
X17342Y32594D01*
X17342Y32694D01*
X17342Y32794D01*
X17342Y32894D01*
X17342Y32993D01*
X17342Y33094D01*
X17342Y33193D01*
X17342Y33294D01*
X17342Y33394D01*
X17342Y33493D01*
X17342Y33594D01*
X17342Y33694D01*
X17342Y33794D01*
X17342Y33894D01*
X17342Y33993D01*
X17342Y34094D01*
X17342Y34193D01*
X17342Y34294D01*
X17342Y34393D01*
X17342Y34493D01*
X17342Y34593D01*
X17342Y34694D01*
X17342Y34793D01*
X17342Y34893D01*
X17342Y34994D01*
X17342Y35094D01*
X17342Y35193D01*
X17342Y35294D01*
X17342Y35393D01*
X17342Y35494D01*
X17342Y35594D01*
X17342Y35693D01*
X17342Y35793D01*
X17342Y35894D01*
X17342Y35994D01*
X17342Y36094D01*
X17342Y36193D01*
X17342Y36294D01*
X17342Y36394D01*
X17342Y36494D01*
X17342Y36594D01*
X17342Y36694D01*
X17342Y36793D01*
X17342Y36894D01*
X17342Y36994D01*
X17342Y37093D01*
X17342Y37194D01*
X17342Y37294D01*
X17342Y37394D01*
X17342Y37494D01*
X17342Y37594D01*
X17342Y37694D01*
X17342Y37794D01*
X17342Y37894D01*
X17342Y37994D01*
X17342Y38094D01*
X17342Y38194D01*
X17342Y38294D01*
X17342Y38394D01*
X17342Y38494D01*
X17342Y38594D01*
X17342Y38694D01*
X17242Y38694D01*
X17142Y38694D01*
X17042Y38694D01*
X16942Y38694D01*
X16842Y38694D01*
X16742Y38694D01*
X16642Y38694D01*
X16542Y38694D01*
X16442Y38694D01*
X16342Y38694D01*
X16242Y38694D01*
X16142Y38694D01*
X16042Y38694D01*
X15942Y38694D01*
X15842Y38694D01*
X15742Y38694D01*
X15642Y38694D01*
X15542Y38694D01*
X15442Y38694D01*
X15342Y38694D01*
X15242Y38694D01*
X15142Y38694D01*
X15042Y38694D01*
X14942Y38694D01*
X14842Y38694D01*
X14742Y38694D01*
X14642Y38694D01*
X14542Y38694D01*
X14442Y38694D01*
X14342Y38694D01*
X14242Y38694D01*
X14142Y38694D01*
X14042Y38694D01*
X13942Y38694D01*
X13842Y38694D01*
X13742Y38694D01*
X13642Y38694D01*
X13542Y38694D01*
X13442Y38694D01*
X13342Y38694D01*
X13242Y38694D01*
X13142Y38694D01*
X13042Y38694D01*
X12942Y38694D01*
X12842Y38694D01*
X12742Y38694D01*
X12642Y38694D01*
X12542Y38694D01*
X12442Y38694D01*
X12342Y38694D01*
X12242Y38694D01*
X12142Y38694D01*
X12042Y38694D01*
X11942Y38694D01*
X11842Y38694D01*
X11742Y38694D01*
X11642Y38694D01*
X11542Y38694D01*
X11442Y38694D01*
X11342Y38694D01*
X11242Y38694D01*
X11142Y38694D01*
X11042Y38694D01*
X10942Y38694D01*
X10842Y38694D01*
X10742Y38694D01*
X10642Y38694D01*
X10542Y38694D01*
X10442Y38694D01*
X10342Y38694D01*
X10242Y38694D01*
X10142Y38694D01*
X10042Y38694D01*
X9942Y38694D01*
X9842Y38694D01*
X9742Y38694D01*
X9642Y38694D01*
X9542Y38694D01*
X9442Y38694D01*
X9342Y38694D01*
X9242Y38694D01*
X9142Y38694D01*
X9042Y38694D01*
X8942Y38694D01*
X8842Y38694D01*
X8742Y38694D01*
X8642Y38694D01*
X8542Y38694D01*
X8442Y38694D01*
X8342Y38694D01*
X8242Y38694D01*
X8142Y38694D01*
X8042Y38694D01*
X7942Y38694D01*
X7842Y38694D01*
X7742Y38694D01*
X7642Y38694D01*
X7542Y38694D01*
X7442Y38694D01*
X7342Y38694D01*
X7242Y38694D01*
X7142Y38694D01*
X7042Y38694D01*
X6942Y38694D01*
X6842Y38694D01*
X6742Y38694D01*
X6642Y38694D01*
X6542Y38694D01*
X6442Y38694D01*
X6342Y38694D01*
X6242Y38694D01*
X6142Y38694D01*
X6042Y38694D01*
X5942Y38694D01*
X5842Y38694D01*
X5742Y38694D01*
X5642Y38694D01*
X5542Y38694D01*
X5442Y38694D01*
X5342Y38694D01*
X5242Y38694D01*
X5142Y38694D01*
X5042Y38694D01*
X4942Y38694D01*
X4842Y38694D01*
X4742Y38694D01*
X4642Y38694D01*
X4542Y38694D01*
D11*
X6755Y7380D02*
X6755Y6797D01*
X6838Y6714D01*
X7116Y6714D01*
X7199Y6797D01*
X7199Y7380D01*
D11*
X7421Y7269D02*
X7421Y7297D01*
X7505Y7380D01*
X7727Y7380D01*
X7810Y7297D01*
X7810Y7103D01*
X7421Y6714D01*
X7810Y6714D01*
D11*
X15544Y16123D02*
X15544Y16790D01*
X15878Y16790D01*
X15989Y16679D01*
X15989Y16568D01*
X15878Y16457D01*
X15544Y16457D01*
D11*
X15878Y16457D02*
X15989Y16346D01*
X15989Y16123D01*
D11*
X16211Y16679D02*
X16211Y16707D01*
X16294Y16790D01*
X16517Y16790D01*
X16600Y16707D01*
X16600Y16596D01*
X16461Y16457D01*
X16600Y16318D01*
X16600Y16207D01*
X16517Y16123D01*
X16294Y16123D01*
X16211Y16207D01*
X16211Y16234D01*
D11*
X16378Y16457D02*
X16461Y16457D01*
D11*
X11106Y17032D02*
X11106Y17698D01*
X11439Y17698D01*
X11550Y17587D01*
X11550Y17476D01*
X11439Y17365D01*
X11106Y17365D01*
D11*
X11439Y17365D02*
X11550Y17254D01*
X11550Y17032D01*
D11*
X11912Y17032D02*
X11912Y17698D01*
X11856Y17698D01*
X11773Y17587D01*
D11*
X11773Y17032D02*
X12023Y17032D01*
D11*
X10997Y19451D02*
X10997Y20118D01*
X11330Y20118D01*
X11441Y20007D01*
X11441Y19896D01*
X11330Y19785D01*
X10997Y19785D01*
D11*
X11330Y19785D02*
X11441Y19673D01*
X11441Y19451D01*
D11*
X11747Y19451D02*
X11664Y19535D01*
X11664Y20035D01*
X11747Y20118D01*
X11969Y20118D01*
X12053Y20035D01*
X12053Y19535D01*
X11969Y19451D01*
X11747Y19451D01*
D11*
X11664Y19618D02*
X12053Y19951D01*
D11*
X11037Y14560D02*
X11037Y15227D01*
X11370Y15227D01*
X11481Y15116D01*
X11481Y15005D01*
X11370Y14893D01*
X11037Y14893D01*
D11*
X11370Y14893D02*
X11481Y14782D01*
X11481Y14560D01*
D11*
X11703Y15116D02*
X11703Y15143D01*
X11787Y15227D01*
X12009Y15227D01*
X12092Y15143D01*
X12092Y14949D01*
X11703Y14560D01*
X12092Y14560D01*
D11*
X18277Y16123D02*
X18277Y16790D01*
X18666Y16790D01*
X18777Y16679D01*
X18777Y16234D01*
X18666Y16123D01*
X18277Y16123D01*
D11*
X18999Y16679D02*
X18999Y16707D01*
X19083Y16790D01*
X19305Y16790D01*
X19388Y16707D01*
X19388Y16512D01*
X18999Y16123D01*
X19388Y16123D01*
D11*
X4366Y14482D02*
X4366Y15148D01*
X4755Y15148D01*
X4866Y15037D01*
X4866Y14593D01*
X4755Y14482D01*
X4366Y14482D01*
D11*
X5172Y14482D02*
X5089Y14565D01*
X5089Y15065D01*
X5172Y15148D01*
X5394Y15148D01*
X5477Y15065D01*
X5477Y14565D01*
X5394Y14482D01*
X5172Y14482D01*
D11*
X5089Y14648D02*
X5477Y14982D01*
D12*
X2382Y16085D02*
X2482Y16085D01*
X2581Y16085D01*
X2681Y16085D01*
X2780Y16085D01*
X2880Y16085D01*
X2980Y16085D01*
X3079Y16085D01*
X3179Y16085D01*
X3278Y16085D01*
X3378Y16085D01*
X3478Y16085D01*
X3577Y16085D01*
X3677Y16085D01*
X3776Y16085D01*
X3876Y16085D01*
X3976Y16085D01*
X4075Y16085D01*
X4175Y16085D01*
X4274Y16085D01*
X4374Y16085D01*
X4474Y16085D01*
X4573Y16085D01*
X4673Y16085D01*
X4773Y16085D01*
X4872Y16085D01*
X4972Y16085D01*
X5071Y16085D01*
X5171Y16085D01*
X5271Y16085D01*
X5370Y16085D01*
X5470Y16085D01*
X5569Y16085D01*
X5669Y16085D01*
X5769Y16085D01*
X5868Y16085D01*
X5968Y16085D01*
X6067Y16085D01*
X6167Y16085D01*
X6267Y16085D01*
X6366Y16085D01*
X6466Y16085D01*
X6565Y16085D01*
X6665Y16085D01*
X6765Y16085D01*
X6864Y16085D01*
X6964Y16085D01*
X7063Y16085D01*
X7163Y16085D01*
X7263Y16085D01*
X7362Y16085D01*
X7462Y16085D01*
X7462Y15985D01*
X7462Y15886D01*
X7462Y15786D01*
X7462Y15687D01*
X7462Y15587D01*
X7462Y15487D01*
X7462Y15388D01*
X7462Y15288D01*
X7462Y15188D01*
X7462Y15089D01*
X7462Y14989D01*
X7462Y14890D01*
X7462Y14790D01*
X7462Y14690D01*
X7462Y14591D01*
X7462Y14491D01*
X7462Y14392D01*
X7462Y14292D01*
X7462Y14192D01*
X7462Y14093D01*
X7462Y13993D01*
X7462Y13894D01*
X7462Y13794D01*
X7462Y13694D01*
X7462Y13595D01*
X7412Y13545D01*
X7313Y13545D01*
X7213Y13545D01*
X7113Y13545D01*
X7014Y13545D01*
X6914Y13545D01*
X6814Y13545D01*
X6715Y13545D01*
X6615Y13545D01*
X6516Y13545D01*
X6416Y13545D01*
X6316Y13545D01*
X6217Y13545D01*
X6117Y13545D01*
X6018Y13545D01*
X5918Y13545D01*
X5818Y13545D01*
X5719Y13545D01*
X5619Y13545D01*
X5520Y13545D01*
X5420Y13545D01*
X5320Y13545D01*
X5221Y13545D01*
X5121Y13545D01*
X5022Y13545D01*
X4922Y13545D01*
X4822Y13545D01*
X4723Y13545D01*
X4623Y13545D01*
X4524Y13545D01*
X4424Y13545D01*
X4324Y13545D01*
X4225Y13545D01*
X4125Y13545D01*
X4025Y13545D01*
X3926Y13545D01*
X3826Y13545D01*
X3727Y13545D01*
X3627Y13545D01*
X3527Y13545D01*
X3428Y13545D01*
X3328Y13545D01*
X3229Y13545D01*
X3129Y13545D01*
X3029Y13545D01*
X2930Y13545D01*
X2830Y13545D01*
X2731Y13545D01*
X2631Y13545D01*
X2531Y13545D01*
X2432Y13545D01*
X2382Y13595D01*
X2382Y13694D01*
X2382Y13794D01*
X2382Y13894D01*
X2382Y13993D01*
X2382Y14093D01*
X2382Y14192D01*
X2382Y14292D01*
X2382Y14392D01*
X2382Y14491D01*
X2382Y14591D01*
X2382Y14690D01*
X2382Y14790D01*
X2382Y14890D01*
X2382Y14989D01*
X2382Y15089D01*
X2382Y15188D01*
X2382Y15288D01*
X2382Y15388D01*
X2382Y15487D01*
X2382Y15587D01*
X2382Y15687D01*
X2382Y15786D01*
X2382Y15886D01*
X2382Y15985D01*
X2382Y16085D01*
D11*
X4436Y19373D02*
X4436Y20039D01*
X4825Y20039D01*
X4936Y19928D01*
X4936Y19484D01*
X4825Y19373D01*
X4436Y19373D01*
D11*
X5297Y19373D02*
X5297Y20039D01*
X5241Y20039D01*
X5158Y19928D01*
D11*
X5158Y19373D02*
X5408Y19373D01*
D12*
X2382Y20976D02*
X2482Y20976D01*
X2581Y20976D01*
X2681Y20976D01*
X2780Y20976D01*
X2880Y20976D01*
X2980Y20976D01*
X3079Y20976D01*
X3179Y20976D01*
X3278Y20976D01*
X3378Y20976D01*
X3478Y20976D01*
X3577Y20976D01*
X3677Y20976D01*
X3776Y20976D01*
X3876Y20976D01*
X3976Y20976D01*
X4075Y20976D01*
X4175Y20976D01*
X4274Y20976D01*
X4374Y20976D01*
X4474Y20976D01*
X4573Y20976D01*
X4673Y20976D01*
X4773Y20976D01*
X4872Y20976D01*
X4972Y20976D01*
X5071Y20976D01*
X5171Y20976D01*
X5271Y20976D01*
X5370Y20976D01*
X5470Y20976D01*
X5569Y20976D01*
X5669Y20976D01*
X5769Y20976D01*
X5868Y20976D01*
X5968Y20976D01*
X6067Y20976D01*
X6167Y20976D01*
X6267Y20976D01*
X6366Y20976D01*
X6466Y20976D01*
X6565Y20976D01*
X6665Y20976D01*
X6765Y20976D01*
X6864Y20976D01*
X6964Y20976D01*
X7063Y20976D01*
X7163Y20976D01*
X7263Y20976D01*
X7362Y20976D01*
X7462Y20976D01*
X7462Y20877D01*
X7462Y20777D01*
X7462Y20677D01*
X7462Y20578D01*
X7462Y20478D01*
X7462Y20378D01*
X7462Y20279D01*
X7462Y20179D01*
X7462Y20080D01*
X7462Y19980D01*
X7462Y19880D01*
X7462Y19781D01*
X7462Y19681D01*
X7462Y19582D01*
X7462Y19482D01*
X7462Y19382D01*
X7462Y19283D01*
X7462Y19183D01*
X7462Y19084D01*
X7462Y18984D01*
X7462Y18884D01*
X7462Y18785D01*
X7462Y18685D01*
X7462Y18586D01*
X7462Y18486D01*
X7412Y18436D01*
X7313Y18436D01*
X7213Y18436D01*
X7113Y18436D01*
X7014Y18436D01*
X6914Y18436D01*
X6814Y18436D01*
X6715Y18436D01*
X6615Y18436D01*
X6516Y18436D01*
X6416Y18436D01*
X6316Y18436D01*
X6217Y18436D01*
X6117Y18436D01*
X6018Y18436D01*
X5918Y18436D01*
X5818Y18436D01*
X5719Y18436D01*
X5619Y18436D01*
X5520Y18436D01*
X5420Y18436D01*
X5320Y18436D01*
X5221Y18436D01*
X5121Y18436D01*
X5022Y18436D01*
X4922Y18436D01*
X4822Y18436D01*
X4723Y18436D01*
X4623Y18436D01*
X4524Y18436D01*
X4424Y18436D01*
X4324Y18436D01*
X4225Y18436D01*
X4125Y18436D01*
X4025Y18436D01*
X3926Y18436D01*
X3826Y18436D01*
X3727Y18436D01*
X3627Y18436D01*
X3527Y18436D01*
X3428Y18436D01*
X3328Y18436D01*
X3229Y18436D01*
X3129Y18436D01*
X3029Y18436D01*
X2930Y18436D01*
X2830Y18436D01*
X2731Y18436D01*
X2631Y18436D01*
X2531Y18436D01*
X2432Y18436D01*
X2382Y18486D01*
X2382Y18586D01*
X2382Y18685D01*
X2382Y18785D01*
X2382Y18884D01*
X2382Y18984D01*
X2382Y19084D01*
X2382Y19183D01*
X2382Y19283D01*
X2382Y19382D01*
X2382Y19482D01*
X2382Y19582D01*
X2382Y19681D01*
X2382Y19781D01*
X2382Y19880D01*
X2382Y19980D01*
X2382Y20080D01*
X2382Y20179D01*
X2382Y20279D01*
X2382Y20378D01*
X2382Y20478D01*
X2382Y20578D01*
X2382Y20677D01*
X2382Y20777D01*
X2382Y20877D01*
X2382Y20976D01*
D11*
X16619Y7680D02*
X16619Y7097D01*
X16703Y7014D01*
X16981Y7014D01*
X17064Y7097D01*
X17064Y7680D01*
D11*
X17425Y7014D02*
X17425Y7680D01*
X17369Y7680D01*
X17286Y7569D01*
D11*
X17286Y7014D02*
X17536Y7014D01*
D12*
X14078Y11347D02*
X14078Y11247D01*
X14078Y11147D01*
X14078Y11047D01*
X14078Y10947D01*
X14078Y10847D01*
X14078Y10747D01*
X14078Y10647D01*
X14078Y10547D01*
X14078Y10447D01*
X14078Y10347D01*
X14078Y10247D01*
X14078Y10147D01*
X14078Y10047D01*
X14078Y9947D01*
X14078Y9847D01*
X14078Y9747D01*
X14078Y9647D01*
X14078Y9547D01*
X14078Y9447D01*
X14078Y9347D01*
X14078Y9247D01*
X14078Y9147D01*
X14078Y9047D01*
X14078Y8947D01*
X14078Y8847D01*
X14078Y8747D01*
X14078Y8647D01*
X14078Y8547D01*
X14078Y8447D01*
X14078Y8347D01*
X14078Y8247D01*
X14078Y8147D01*
X14078Y8047D01*
X14078Y7947D01*
X14078Y7847D01*
X14078Y7747D01*
X14078Y7647D01*
X14078Y7547D01*
X14078Y7447D01*
X14078Y7347D01*
X14078Y7247D01*
X14078Y7147D01*
X14078Y7047D01*
X14078Y6947D01*
X14078Y6847D01*
X14078Y6747D01*
X14078Y6647D01*
X14078Y6547D01*
X14078Y6447D01*
X14078Y6347D01*
X14078Y6247D01*
X14078Y6147D01*
X14078Y6047D01*
X14078Y5947D01*
X14078Y5847D01*
X14078Y5747D01*
X14078Y5647D01*
X14078Y5547D01*
X14078Y5447D01*
X14078Y5347D01*
X14078Y5247D01*
X14078Y5147D01*
X14078Y5047D01*
X14078Y4947D01*
X14078Y4847D01*
X14078Y4747D01*
X14078Y4647D01*
X14078Y4547D01*
X14078Y4447D01*
X14078Y4347D01*
X14078Y4247D01*
X14078Y4147D01*
X14078Y4047D01*
X14078Y3947D01*
X14078Y3847D01*
X14078Y3747D01*
X14078Y3647D01*
X14078Y3547D01*
X14078Y3447D01*
X14078Y3347D01*
X14178Y3347D01*
X14278Y3347D01*
X14378Y3347D01*
X14478Y3347D01*
X14578Y3347D01*
X14678Y3347D01*
X14778Y3347D01*
X14878Y3347D01*
X14978Y3347D01*
X15078Y3347D01*
X15178Y3347D01*
X15278Y3347D01*
X15378Y3347D01*
X15478Y3347D01*
X15578Y3347D01*
X15678Y3347D01*
X15778Y3347D01*
X15878Y3347D01*
X15978Y3347D01*
X16078Y3347D01*
X16178Y3347D01*
X16278Y3347D01*
X16378Y3347D01*
X16478Y3347D01*
X16578Y3347D01*
X16678Y3347D01*
X16778Y3347D01*
X16878Y3347D01*
X16978Y3347D01*
X17078Y3347D01*
X17178Y3347D01*
X17278Y3347D01*
X17378Y3347D01*
X17478Y3347D01*
X17578Y3347D01*
X17678Y3347D01*
X17778Y3347D01*
X17878Y3347D01*
X17978Y3347D01*
X18078Y3347D01*
X18178Y3347D01*
X18278Y3347D01*
X18378Y3347D01*
X18478Y3347D01*
X18578Y3347D01*
X18678Y3347D01*
X18778Y3347D01*
X18878Y3347D01*
X18978Y3347D01*
X19078Y3347D01*
X19178Y3347D01*
X19278Y3347D01*
X19378Y3347D01*
X19478Y3347D01*
X19578Y3347D01*
X19678Y3347D01*
X19778Y3347D01*
X19878Y3347D01*
X19978Y3347D01*
X20078Y3347D01*
X20078Y3447D01*
X20078Y3547D01*
X20078Y3647D01*
X20078Y3747D01*
X20078Y3847D01*
X20078Y3947D01*
X20078Y4047D01*
X20078Y4147D01*
X20078Y4247D01*
X20078Y4347D01*
X20078Y4447D01*
X20078Y4547D01*
X20078Y4647D01*
X20078Y4747D01*
X20078Y4847D01*
X20078Y4947D01*
X20078Y5047D01*
X20078Y5147D01*
X20078Y5247D01*
X20078Y5347D01*
X20078Y5447D01*
X20078Y5547D01*
X20078Y5647D01*
X20078Y5747D01*
X20078Y5847D01*
X20078Y5947D01*
X20078Y6047D01*
X20078Y6147D01*
X20078Y6247D01*
X20078Y6347D01*
X20078Y6447D01*
X20078Y6547D01*
X20078Y6647D01*
X20078Y6747D01*
X20078Y6847D01*
X20078Y6947D01*
X20078Y7047D01*
X20078Y7147D01*
X20078Y7247D01*
X20078Y7347D01*
X20078Y7447D01*
X20078Y7547D01*
X20078Y7647D01*
X20078Y7747D01*
X20078Y7847D01*
X20078Y7947D01*
X20078Y8047D01*
X20078Y8147D01*
X20078Y8247D01*
X20078Y8347D01*
X20078Y8447D01*
X20078Y8547D01*
X20078Y8647D01*
X20078Y8747D01*
X20078Y8847D01*
X20078Y8947D01*
X20078Y9047D01*
X20078Y9147D01*
X20078Y9247D01*
X20078Y9347D01*
X20078Y9447D01*
X20078Y9547D01*
X20078Y9647D01*
X20078Y9747D01*
X20078Y9847D01*
X20078Y9947D01*
X20078Y10047D01*
X20078Y10147D01*
X20078Y10247D01*
X20078Y10347D01*
X20078Y10447D01*
X20078Y10547D01*
X20078Y10647D01*
X20078Y10747D01*
X20078Y10847D01*
X20078Y10947D01*
X20078Y11047D01*
X20078Y11147D01*
X20078Y11247D01*
X20078Y11347D01*
X19978Y11347D01*
X19878Y11347D01*
X19778Y11347D01*
X19678Y11347D01*
X19578Y11347D01*
X19478Y11347D01*
X19378Y11347D01*
X19278Y11347D01*
X19178Y11347D01*
X19078Y11347D01*
X18978Y11347D01*
X18878Y11347D01*
X18778Y11347D01*
X18678Y11347D01*
X18578Y11347D01*
X18478Y11347D01*
X18378Y11347D01*
X18278Y11347D01*
X18178Y11347D01*
X18078Y11347D01*
X17978Y11347D01*
X17878Y11347D01*
X17778Y11347D01*
X17678Y11347D01*
X17578Y11347D01*
X17478Y11347D01*
X17378Y11347D01*
X17278Y11347D01*
X17178Y11347D01*
X17078Y11347D01*
X16978Y11347D01*
X16878Y11347D01*
X16778Y11347D01*
X16678Y11347D01*
X16578Y11347D01*
X16478Y11347D01*
X16378Y11347D01*
X16278Y11347D01*
X16178Y11347D01*
X16078Y11347D01*
X15978Y11347D01*
X15878Y11347D01*
X15778Y11347D01*
X15678Y11347D01*
X15578Y11347D01*
X15478Y11347D01*
X15378Y11347D01*
X15278Y11347D01*
X15178Y11347D01*
X15078Y11347D01*
X14978Y11347D01*
X14878Y11347D01*
X14778Y11347D01*
X14678Y11347D01*
X14578Y11347D01*
X14478Y11347D01*
X14378Y11347D01*
X14278Y11347D01*
X14178Y11347D01*
X14078Y11347D01*
M02*
