M48
;Layer_Color=9474304
;FILE_FORMAT=4:3
METRIC
;TYPE=PLATED
T1F00S00C0.500
T2F00S00C0.800
T3F00S00C1.200
T4F00S00C3.000
%
T01
X0021900Y0014000
X0024300Y0014000
X0022700Y0016000
X0023500Y0017100
X0021100Y0017100
X0022300Y0023900
X0015800Y0022000
X0019400Y0030000
X0012000Y0022100
X0010200Y0021900
X0009675Y0016025
T02
X0004000Y0010000
X0004000Y0012000
X0004000Y0014000
X0013220Y0007500
X0013220Y0004960
X0015760Y0004960
X0018300Y0004960
X0018300Y0007500
X0015760Y0007500
X0020840Y0007500
X0023380Y0007500
X0025920Y0007500
X0028460Y0007500
X0031000Y0007500
X0031000Y0004960
X0028460Y0004960
X0025920Y0004960
X0023380Y0004960
X0020840Y0004960
X0040200Y0010000
X0040200Y0012000
X0040200Y0014000
X0040200Y0016000
X0040200Y0018000
X0040200Y0020000
X0040200Y0022000
X0040200Y0024000
X0028000Y0028000
X0028000Y0030000
X0026000Y0030000
X0024000Y0030000
X0024000Y0028000
X0026000Y0028000
X0004000Y0024000
X0004000Y0022000
X0004000Y0020000
X0004000Y0018000
X0004000Y0016000
T03
X0015164Y0027215
X0015164Y0031715
X0009164Y0031715
X0009164Y0027215
T04
X0004000Y0004000
X0040200Y0004000
X0040200Y0030000
X0004000Y0030000
M30
