%FSAX43Y43*%
%MOMM*%
G71*
G01*
G75*
G04 Layer_Physical_Order=2*
G04 Layer_Color=16711680*
%ADD10R,0.550X1.750*%
%ADD11R,1.750X0.550*%
%ADD12R,0.900X0.950*%
%ADD13R,1.000X0.950*%
%ADD14R,1.700X0.350*%
%ADD15R,0.950X0.900*%
%ADD16C,0.600*%
%ADD17C,0.300*%
%ADD18C,0.400*%
%ADD19C,0.200*%
%ADD20C,5.000*%
%ADD21C,2.000*%
%ADD22C,1.200*%
%ADD23R,1.200X1.200*%
%ADD24R,1.200X1.200*%
%ADD25C,1.200*%
%ADD26R,1.200X1.200*%
%ADD27C,0.800*%
%ADD28C,1.000*%
%ADD29C,0.500*%
D16*
X0037900Y0028000D02*
X0041700Y0024200D01*
X0041700Y0015500D02*
X0041700Y0024200D01*
X0040200Y0014000D02*
X0041700Y0015500D01*
X0029900Y0028000D02*
X0037900Y0028000D01*
X0028000Y0028000D02*
X0029900Y0028000D01*
X0029900Y0030700D01*
X0038600Y0025600D02*
X0040200Y0024000D01*
X0005600Y0025600D02*
X0038600Y0025600D01*
X0029200Y0031400D02*
X0029900Y0030700D01*
X0020800Y0031400D02*
X0029200Y0031400D01*
X0019400Y0030000D02*
X0020800Y0031400D01*
X0018878Y0028000D02*
X0024000Y0028000D01*
X0015164Y0031715D02*
X0018878Y0028000D01*
X0009675Y0016025D02*
X0009675Y0021375D01*
X0009675Y0016000D02*
X0009675Y0016025D01*
X0009675Y0021375D02*
X0010200Y0021900D01*
X0009000Y0023000D02*
X0035200Y0023000D01*
X0004000Y0018000D02*
X0009000Y0023000D01*
X0010240Y0031715D02*
X0015164Y0031715D01*
X0004500Y0022000D02*
X0007300Y0024800D01*
X0004000Y0022000D02*
X0004500Y0022000D01*
X0007300Y0024800D02*
X0037400Y0024800D01*
X0035200Y0023000D02*
X0040200Y0018000D01*
X0037400Y0024800D02*
X0040200Y0022000D01*
X0004000Y0024000D02*
X0005600Y0025600D01*
D17*
X0016950Y0021250D02*
X0021100Y0017100D01*
X0014639Y0022100D02*
X0015489Y0021250D01*
X0012000Y0022100D02*
X0014639Y0022100D01*
X0015489Y0021250D02*
X0016950Y0021250D01*
X0018600Y0022000D02*
X0023500Y0017100D01*
X0015800Y0022000D02*
X0018600Y0022000D01*
D19*
X0035600Y0031300D02*
X0036300Y0031300D01*
X0037200Y0032700D01*
X0036600Y0033500D02*
X0037200Y0032700D01*
X0035300Y0033500D02*
X0036600Y0033500D01*
X0034700Y0032700D02*
X0035300Y0033500D01*
X0034700Y0032700D02*
X0035600Y0031300D01*
X0035600Y0032000D02*
X0035600Y0032666D01*
X0035933Y0033000D01*
X0036266Y0032666D01*
X0036266Y0032000D01*
X0036266Y0032500D01*
X0035600Y0032500D01*
D20*
X0040200Y0004000D02*
D03*
X0004000Y0004000D02*
D03*
X0040200Y0030000D02*
D03*
X0004000Y0030000D02*
D03*
D21*
X0009164Y0027215D02*
D03*
X0009164Y0031715D02*
D03*
X0015164Y0027215D02*
D03*
X0015164Y0031715D02*
D03*
D22*
X0004000Y0024000D02*
D03*
X0004000Y0022000D02*
D03*
X0004000Y0020000D02*
D03*
X0004000Y0018000D02*
D03*
X0004000Y0016000D02*
D03*
X0004000Y0014000D02*
D03*
X0004000Y0012000D02*
D03*
X0028000Y0028000D02*
D03*
X0026000Y0030000D02*
D03*
X0026000Y0028000D02*
D03*
X0024000Y0030000D02*
D03*
X0024000Y0028000D02*
D03*
X0040200Y0024000D02*
D03*
X0040200Y0022000D02*
D03*
X0040200Y0020000D02*
D03*
X0040200Y0018000D02*
D03*
X0040200Y0016000D02*
D03*
X0040200Y0014000D02*
D03*
X0040200Y0012000D02*
D03*
D23*
X0004000Y0010000D02*
D03*
X0040200Y0010000D02*
D03*
D24*
X0028000Y0030000D02*
D03*
D25*
X0013220Y0004960D02*
D03*
X0015760Y0004960D02*
D03*
X0018300Y0004960D02*
D03*
X0013220Y0007500D02*
D03*
X0015760Y0007500D02*
D03*
X0018300Y0007500D02*
D03*
X0028460Y0007500D02*
D03*
X0025920Y0007500D02*
D03*
X0023380Y0007500D02*
D03*
X0020840Y0007500D02*
D03*
X0031000Y0004960D02*
D03*
X0028460Y0004960D02*
D03*
X0025920Y0004960D02*
D03*
X0023380Y0004960D02*
D03*
X0020840Y0004960D02*
D03*
D26*
X0031000Y0007500D02*
D03*
D27*
X0019400Y0030000D02*
D03*
X0009675Y0016025D02*
D03*
X0015800Y0022000D02*
D03*
X0012000Y0022100D02*
D03*
X0023500Y0017100D02*
D03*
X0021100Y0017100D02*
D03*
X0010200Y0021900D02*
D03*
X0022300Y0023900D02*
D03*
X0024300Y0014000D02*
D03*
X0022700Y0016000D02*
D03*
X0021900Y0014000D02*
D03*
D28*
X0024300Y0014000D02*
X0040200Y0014000D01*
X0021900Y0014000D02*
X0024300Y0014000D01*
X0004000Y0014000D02*
X0021900Y0014000D01*
X0022700Y0016000D02*
X0040200Y0016000D01*
X0009675Y0016000D02*
X0022700Y0016000D01*
X0004000Y0016000D02*
X0009675Y0016000D01*
X0009164Y0030064D02*
X0009164Y0031715D01*
X0005900Y0026800D02*
X0009164Y0030064D01*
X0004100Y0026800D02*
X0005900Y0026800D01*
X0002300Y0025000D02*
X0004100Y0026800D01*
X0002300Y0017700D02*
X0002300Y0025000D01*
X0002300Y0017700D02*
X0004000Y0016000D01*
X0010180Y0008000D02*
X0013220Y0004960D01*
X0002900Y0008000D02*
X0010180Y0008000D01*
X0002000Y0008900D02*
X0002900Y0008000D01*
X0002000Y0008900D02*
X0002000Y0014000D01*
X0004000Y0016000D01*
X0028460Y0004960D02*
X0031000Y0004960D01*
X0025920Y0004960D02*
X0028460Y0004960D01*
X0023380Y0004960D02*
X0025920Y0004960D01*
X0020840Y0004960D02*
X0023380Y0004960D01*
X0018300Y0004960D02*
X0020840Y0004960D01*
X0015760Y0004960D02*
X0018300Y0004960D01*
X0013220Y0004960D02*
X0015760Y0004960D01*
X0004000Y0012000D02*
X0040200Y0012000D01*
X0004000Y0010000D02*
X0040200Y0010000D01*
D29*
X0036300Y0023900D02*
X0040200Y0020000D01*
X0022300Y0023900D02*
X0036300Y0023900D01*
M02*
