%FSAX43Y43*%
%MOMM*%
G71*
G01*
G75*
G04 Layer_Color=65535*
%ADD10R,0.550X1.750*%
%ADD11R,1.750X0.550*%
%ADD12R,0.900X0.950*%
%ADD13R,1.000X0.950*%
%ADD14R,1.700X0.350*%
%ADD15R,0.950X0.900*%
%ADD16C,0.600*%
%ADD17C,0.300*%
%ADD18C,0.400*%
%ADD19C,0.200*%
%ADD20C,5.000*%
%ADD21C,2.000*%
%ADD22C,1.200*%
%ADD23R,1.200X1.200*%
%ADD24R,1.200X1.200*%
%ADD25C,1.200*%
%ADD26R,1.200X1.200*%
%ADD27C,0.800*%
%ADD28C,1.000*%
%ADD29C,0.500*%
%ADD30C,0.254*%
%ADD31C,0.250*%
D16*
X0020750Y0014150D02*
G03*
X0020750Y0014150I-0000300J0000000D01*
G01*
X0011900Y0020650D02*
G03*
X0011900Y0020650I-0000300J0000000D01*
G01*
D19*
X0019450Y0013150D02*
X0025150Y0013150D01*
X0019450Y0018850D02*
X0025150Y0018850D01*
X0019450Y0013150D02*
X0019450Y0018850D01*
X0025150Y0013150D02*
X0025150Y0018850D01*
X0010164Y0032465D02*
X0014164Y0032465D01*
X0009164Y0028465D02*
X0009164Y0030465D01*
X0010164Y0026465D02*
X0014164Y0026465D01*
X0015164Y0028465D02*
X0015164Y0030465D01*
X0017350Y0027800D02*
X0017350Y0028000D01*
X0018050Y0027800D02*
X0018050Y0028000D01*
X0019800Y0027750D02*
X0019800Y0028050D01*
X0019000Y0027750D02*
X0019000Y0028050D01*
X0009400Y0024750D02*
X0012600Y0024750D01*
X0009400Y0019650D02*
X0012600Y0019650D01*
X0009400Y0019650D02*
X0009400Y0024750D01*
X0012600Y0019650D02*
X0012600Y0024750D01*
X0008800Y0018650D02*
X0009000Y0018650D01*
X0008800Y0017950D02*
X0009000Y0017950D01*
X0023650Y0024300D02*
X0023650Y0024500D01*
X0024350Y0024300D02*
X0024350Y0024500D01*
X0004900Y0009100D02*
X0004900Y0024900D01*
X0003100Y0024900D02*
X0004900Y0024900D01*
X0003100Y0009100D02*
X0003100Y0024900D01*
X0003100Y0009100D02*
X0004900Y0009100D01*
X0028900Y0027100D02*
X0028900Y0030900D01*
X0023100Y0027100D02*
X0028900Y0027100D01*
X0023100Y0027100D02*
X0023100Y0030900D01*
X0028900Y0030900D01*
X0022200Y0010150D02*
X0022400Y0010150D01*
X0022200Y0009450D02*
X0022400Y0009450D01*
X0041100Y0009100D02*
X0041100Y0024900D01*
X0039300Y0024900D02*
X0041100Y0024900D01*
X0039300Y0009100D02*
X0039300Y0024900D01*
X0039300Y0009100D02*
X0041100Y0009100D01*
X0032270Y0000550D02*
X0032270Y0008500D01*
X0011950Y0008500D02*
X0032270Y0008500D01*
X0011950Y0000550D02*
X0011950Y0008500D01*
X0011950Y0000550D02*
X0032270Y0000550D01*
X0011950Y0003050D02*
X0032270Y0003050D01*
X0036600Y0033500D02*
X0037200Y0032700D01*
X0036300Y0031300D02*
X0037200Y0032700D01*
X0035600Y0031300D02*
X0036300Y0031300D01*
X0034700Y0032700D02*
X0035600Y0031300D01*
X0034700Y0032700D02*
X0035300Y0033500D01*
X0036600Y0033500D01*
X0035700Y0007000D02*
X0035700Y0006000D01*
X0035700Y0006500D01*
X0036366Y0006500D01*
X0036366Y0007000D01*
X0036366Y0006000D01*
X0037366Y0006000D02*
X0036700Y0006000D01*
X0037366Y0006666D01*
X0037366Y0006833D01*
X0037200Y0007000D01*
X0036866Y0007000D01*
X0036700Y0006833D01*
X0007000Y0007000D02*
X0007000Y0006000D01*
X0007000Y0006500D01*
X0007666Y0006500D01*
X0007666Y0007000D01*
X0007666Y0006000D01*
X0008000Y0006000D02*
X0008333Y0006000D01*
X0008166Y0006000D01*
X0008166Y0007000D01*
X0008000Y0006833D01*
X0019300Y0022700D02*
X0019633Y0022700D01*
X0019467Y0022700D01*
X0019467Y0021700D01*
X0019300Y0021700D01*
X0019633Y0021700D01*
X0020800Y0022533D02*
X0020633Y0022700D01*
X0020300Y0022700D01*
X0020133Y0022533D01*
X0020133Y0021867D01*
X0020300Y0021700D01*
X0020633Y0021700D01*
X0020800Y0021867D01*
X0021133Y0021700D02*
X0021466Y0021700D01*
X0021299Y0021700D01*
X0021299Y0022700D01*
X0021133Y0022533D01*
X0035500Y0028500D02*
X0035500Y0027500D01*
X0035500Y0028000D01*
X0036166Y0028000D01*
X0036166Y0028500D01*
X0036166Y0027500D01*
X0037000Y0027500D02*
X0037000Y0028500D01*
X0036500Y0028000D01*
X0037166Y0028000D01*
X0005900Y0027000D02*
X0005900Y0026000D01*
X0005900Y0026500D01*
X0006566Y0026500D01*
X0006566Y0027000D01*
X0006566Y0026000D01*
X0006900Y0026833D02*
X0007066Y0027000D01*
X0007400Y0027000D01*
X0007566Y0026833D01*
X0007566Y0026666D01*
X0007400Y0026500D01*
X0007233Y0026500D01*
X0007400Y0026500D01*
X0007566Y0026333D01*
X0007566Y0026167D01*
X0007400Y0026000D01*
X0007066Y0026000D01*
X0006900Y0026167D01*
X0007166Y0033233D02*
X0007000Y0033400D01*
X0006667Y0033400D01*
X0006500Y0033233D01*
X0006500Y0033066D01*
X0006667Y0032900D01*
X0007000Y0032900D01*
X0007166Y0032733D01*
X0007166Y0032567D01*
X0007000Y0032400D01*
X0006667Y0032400D01*
X0006500Y0032567D01*
X0007500Y0032400D02*
X0007833Y0032400D01*
X0007666Y0032400D01*
X0007666Y0033400D01*
X0007500Y0033233D01*
X0017367Y0025266D02*
X0017200Y0025100D01*
X0017200Y0024767D01*
X0017367Y0024600D01*
X0018033Y0024600D01*
X0018200Y0024767D01*
X0018200Y0025100D01*
X0018033Y0025266D01*
X0018200Y0025600D02*
X0018200Y0025933D01*
X0018200Y0025766D01*
X0017200Y0025766D01*
X0017367Y0025600D01*
X0019900Y0024600D02*
X0018900Y0024600D01*
X0018900Y0025100D01*
X0019067Y0025266D01*
X0019400Y0025266D01*
X0019567Y0025100D01*
X0019567Y0024600D01*
X0019567Y0024933D02*
X0019900Y0025266D01*
X0019900Y0025600D02*
X0019900Y0025933D01*
X0019900Y0025766D01*
X0018900Y0025766D01*
X0019067Y0025600D01*
X0010100Y0026100D02*
X0010433Y0026100D01*
X0010267Y0026100D01*
X0010267Y0025100D01*
X0010100Y0025100D01*
X0010433Y0025100D01*
X0011600Y0025933D02*
X0011433Y0026100D01*
X0011100Y0026100D01*
X0010933Y0025933D01*
X0010933Y0025267D01*
X0011100Y0025100D01*
X0011433Y0025100D01*
X0011600Y0025267D01*
X0012599Y0025100D02*
X0011933Y0025100D01*
X0012599Y0025766D01*
X0012599Y0025933D01*
X0012433Y0026100D01*
X0012099Y0026100D01*
X0011933Y0025933D01*
X0011366Y0018633D02*
X0011200Y0018800D01*
X0010867Y0018800D01*
X0010700Y0018633D01*
X0010700Y0017967D01*
X0010867Y0017800D01*
X0011200Y0017800D01*
X0011366Y0017967D01*
X0012366Y0017800D02*
X0011700Y0017800D01*
X0012366Y0018466D01*
X0012366Y0018633D01*
X0012200Y0018800D01*
X0011866Y0018800D01*
X0011700Y0018633D01*
X0025167Y0024166D02*
X0025000Y0024000D01*
X0025000Y0023667D01*
X0025167Y0023500D01*
X0025833Y0023500D01*
X0026000Y0023667D01*
X0026000Y0024000D01*
X0025833Y0024166D01*
X0026000Y0025000D02*
X0025000Y0025000D01*
X0025500Y0024500D01*
X0025500Y0025166D01*
X0003966Y0026400D02*
X0003633Y0026400D01*
X0003800Y0026400D01*
X0003800Y0025567D01*
X0003633Y0025400D01*
X0003467Y0025400D01*
X0003300Y0025567D01*
X0004300Y0025400D02*
X0004633Y0025400D01*
X0004466Y0025400D01*
X0004466Y0026400D01*
X0004300Y0026233D01*
X0021366Y0031000D02*
X0021033Y0031000D01*
X0021200Y0031000D01*
X0021200Y0030167D01*
X0021033Y0030000D01*
X0020867Y0030000D01*
X0020700Y0030167D01*
X0022366Y0030000D02*
X0021700Y0030000D01*
X0022366Y0030666D01*
X0022366Y0030833D01*
X0022200Y0031000D01*
X0021866Y0031000D01*
X0021700Y0030833D01*
X0019466Y0010133D02*
X0019300Y0010300D01*
X0018967Y0010300D01*
X0018800Y0010133D01*
X0018800Y0009467D01*
X0018967Y0009300D01*
X0019300Y0009300D01*
X0019466Y0009467D01*
X0019800Y0010133D02*
X0019966Y0010300D01*
X0020300Y0010300D01*
X0020466Y0010133D01*
X0020466Y0009966D01*
X0020300Y0009800D01*
X0020133Y0009800D01*
X0020300Y0009800D01*
X0020466Y0009633D01*
X0020466Y0009467D01*
X0020300Y0009300D01*
X0019966Y0009300D01*
X0019800Y0009467D01*
X0039966Y0026400D02*
X0039633Y0026400D01*
X0039800Y0026400D01*
X0039800Y0025567D01*
X0039633Y0025400D01*
X0039467Y0025400D01*
X0039300Y0025567D01*
X0040300Y0026233D02*
X0040466Y0026400D01*
X0040800Y0026400D01*
X0040966Y0026233D01*
X0040966Y0026066D01*
X0040800Y0025900D01*
X0040633Y0025900D01*
X0040800Y0025900D01*
X0040966Y0025733D01*
X0040966Y0025567D01*
X0040800Y0025400D01*
X0040466Y0025400D01*
X0040300Y0025567D01*
X0012705Y0010298D02*
X0012372Y0010298D01*
X0012538Y0010298D01*
X0012538Y0009465D01*
X0012372Y0009299D01*
X0012205Y0009299D01*
X0012039Y0009465D01*
X0013538Y0009299D02*
X0013538Y0010298D01*
X0013038Y0009799D01*
X0013705Y0009799D01*
X0035600Y0032000D02*
X0035600Y0032666D01*
X0035933Y0033000D01*
X0036266Y0032666D01*
X0036266Y0032000D01*
X0036266Y0032500D01*
X0035600Y0032500D01*
X0017000Y0032000D02*
X0017000Y0032800D01*
X0017400Y0033200D01*
X0017800Y0032800D01*
X0017800Y0032000D01*
X0017800Y0032600D01*
X0017000Y0032600D01*
X0019399Y0033200D02*
X0019799Y0033200D01*
X0019599Y0033200D01*
X0019599Y0032000D01*
X0019399Y0032000D01*
X0019799Y0032000D01*
X0021598Y0033200D02*
X0021598Y0032000D01*
X0022198Y0032000D01*
X0022398Y0032200D01*
X0022398Y0032400D01*
X0022198Y0032600D01*
X0021598Y0032600D01*
X0022198Y0032600D01*
X0022398Y0032800D01*
X0022398Y0033000D01*
X0022198Y0033200D01*
X0021598Y0033200D01*
X0022798Y0032800D02*
X0022798Y0032200D01*
X0022998Y0032000D01*
X0023598Y0032000D01*
X0023598Y0032800D01*
X0024198Y0033000D02*
X0024198Y0032800D01*
X0023998Y0032800D01*
X0024398Y0032800D01*
X0024198Y0032800D01*
X0024198Y0032200D01*
X0024398Y0032000D01*
X0025197Y0033000D02*
X0025197Y0032800D01*
X0024997Y0032800D01*
X0025397Y0032800D01*
X0025197Y0032800D01*
X0025197Y0032200D01*
X0025397Y0032000D01*
X0026597Y0032000D02*
X0026197Y0032000D01*
X0025997Y0032200D01*
X0025997Y0032600D01*
X0026197Y0032800D01*
X0026597Y0032800D01*
X0026797Y0032600D01*
X0026797Y0032400D01*
X0025997Y0032400D01*
X0027197Y0032800D02*
X0027197Y0032000D01*
X0027197Y0032400D01*
X0027397Y0032600D01*
X0027597Y0032800D01*
X0027796Y0032800D01*
X0028396Y0032800D02*
X0028396Y0032200D01*
X0028596Y0032000D01*
X0028796Y0032200D01*
X0028996Y0032000D01*
X0029196Y0032200D01*
X0029196Y0032800D01*
X0029796Y0032000D02*
X0030196Y0032000D01*
X0030396Y0032200D01*
X0030396Y0032600D01*
X0030196Y0032800D01*
X0029796Y0032800D01*
X0029596Y0032600D01*
X0029596Y0032200D01*
X0029796Y0032000D01*
X0030796Y0032800D02*
X0030796Y0032000D01*
X0030796Y0032400D01*
X0030995Y0032600D01*
X0031195Y0032800D01*
X0031395Y0032800D01*
X0032195Y0033000D02*
X0032195Y0032800D01*
X0031995Y0032800D01*
X0032395Y0032800D01*
X0032195Y0032800D01*
X0032195Y0032200D01*
X0032395Y0032000D01*
X0032995Y0033200D02*
X0032995Y0032000D01*
X0032995Y0032600D01*
X0033195Y0032800D01*
X0033595Y0032800D01*
X0033795Y0032600D01*
X0033795Y0032000D01*
D30*
X0043200Y0004000D02*
G03*
X0043200Y0004000I-0003000J0000000D01*
G01*
X0007000Y0004000D02*
G03*
X0007000Y0004000I-0003000J0000000D01*
G01*
X0043200Y0030000D02*
G03*
X0043200Y0030000I-0003000J0000000D01*
G01*
X0007000Y0030000D02*
G03*
X0007000Y0030000I-0003000J0000000D01*
G01*
X0014164Y0029465D02*
G03*
X0014164Y0029465I-0002000J0000000D01*
G01*
D31*
X0018800Y0011875D02*
G03*
X0018800Y0011875I-0000125J0000000D01*
G01*
X0013975Y0019200D02*
G03*
X0013975Y0019200I-0000125J0000000D01*
G01*
M02*
