%FSAX43Y43*%
%MOMM*%
G71*
G01*
G75*
G04 Layer_Color=8388736*
%ADD10R,0.550X1.750*%
%ADD11R,1.750X0.550*%
%ADD12R,0.900X0.950*%
%ADD13R,1.000X0.950*%
%ADD14R,1.700X0.350*%
%ADD15R,0.950X0.900*%
%ADD16C,0.600*%
%ADD17C,0.300*%
%ADD18C,0.400*%
%ADD19C,0.200*%
%ADD20C,5.000*%
%ADD21C,2.000*%
%ADD22C,1.200*%
%ADD23R,1.200X1.200*%
%ADD24R,1.200X1.200*%
%ADD25C,1.200*%
%ADD26R,1.200X1.200*%
%ADD27C,0.800*%
%ADD28C,1.000*%
%ADD29C,0.500*%
%ADD30C,0.254*%
%ADD31C,0.250*%
%ADD32R,0.753X1.953*%
%ADD33R,1.953X0.753*%
%ADD34R,1.103X1.153*%
%ADD35R,1.203X1.153*%
%ADD36R,1.903X0.553*%
%ADD37R,1.153X1.103*%
%ADD38C,5.203*%
%ADD39C,2.203*%
%ADD40C,1.403*%
%ADD41R,1.403X1.403*%
%ADD42R,1.403X1.403*%
%ADD43C,1.403*%
%ADD44R,1.403X1.403*%
%ADD45C,1.003*%
D32*
X0019500Y0011875D02*
D03*
X0020300Y0011875D02*
D03*
X0021100Y0011875D02*
D03*
X0021900Y0011875D02*
D03*
X0022700Y0011875D02*
D03*
X0023500Y0011875D02*
D03*
X0024300Y0011875D02*
D03*
X0025100Y0011875D02*
D03*
X0025100Y0020125D02*
D03*
X0024300Y0020125D02*
D03*
X0023500Y0020125D02*
D03*
X0022700Y0020125D02*
D03*
X0021900Y0020125D02*
D03*
X0021100Y0020125D02*
D03*
X0020300Y0020125D02*
D03*
X0019500Y0020125D02*
D03*
D33*
X0026425Y0013200D02*
D03*
X0026425Y0014000D02*
D03*
X0026425Y0014800D02*
D03*
X0026425Y0015600D02*
D03*
X0026425Y0016400D02*
D03*
X0026425Y0017200D02*
D03*
X0026425Y0018000D02*
D03*
X0026425Y0018800D02*
D03*
X0018175Y0018800D02*
D03*
X0018175Y0018000D02*
D03*
X0018175Y0017200D02*
D03*
X0018175Y0016400D02*
D03*
X0018175Y0015600D02*
D03*
X0018175Y0014800D02*
D03*
X0018175Y0014000D02*
D03*
X0018175Y0013200D02*
D03*
D34*
X0017700Y0027125D02*
D03*
X0017700Y0028675D02*
D03*
X0024000Y0023625D02*
D03*
X0024000Y0025175D02*
D03*
D35*
X0019400Y0028725D02*
D03*
X0019400Y0027075D02*
D03*
D36*
X0008150Y0024475D02*
D03*
X0008150Y0023825D02*
D03*
X0008150Y0023175D02*
D03*
X0008150Y0022525D02*
D03*
X0008150Y0021875D02*
D03*
X0008150Y0021225D02*
D03*
X0008150Y0020575D02*
D03*
X0008150Y0019925D02*
D03*
X0013850Y0024475D02*
D03*
X0013850Y0023825D02*
D03*
X0013850Y0023175D02*
D03*
X0013850Y0022525D02*
D03*
X0013850Y0021875D02*
D03*
X0013850Y0021225D02*
D03*
X0013850Y0020575D02*
D03*
X0013850Y0019925D02*
D03*
D37*
X0008125Y0018300D02*
D03*
X0009675Y0018300D02*
D03*
X0021525Y0009800D02*
D03*
X0023075Y0009800D02*
D03*
D38*
X0040200Y0004000D02*
D03*
X0004000Y0004000D02*
D03*
X0040200Y0030000D02*
D03*
X0004000Y0030000D02*
D03*
D39*
X0009164Y0027215D02*
D03*
X0009164Y0031715D02*
D03*
X0015164Y0027215D02*
D03*
X0015164Y0031715D02*
D03*
D40*
X0004000Y0024000D02*
D03*
X0004000Y0022000D02*
D03*
X0004000Y0020000D02*
D03*
X0004000Y0018000D02*
D03*
X0004000Y0016000D02*
D03*
X0004000Y0014000D02*
D03*
X0004000Y0012000D02*
D03*
X0028000Y0028000D02*
D03*
X0026000Y0030000D02*
D03*
X0026000Y0028000D02*
D03*
X0024000Y0030000D02*
D03*
X0024000Y0028000D02*
D03*
X0040200Y0024000D02*
D03*
X0040200Y0022000D02*
D03*
X0040200Y0020000D02*
D03*
X0040200Y0018000D02*
D03*
X0040200Y0016000D02*
D03*
X0040200Y0014000D02*
D03*
X0040200Y0012000D02*
D03*
D41*
X0004000Y0010000D02*
D03*
X0040200Y0010000D02*
D03*
D42*
X0028000Y0030000D02*
D03*
D43*
X0013220Y0004960D02*
D03*
X0015760Y0004960D02*
D03*
X0018300Y0004960D02*
D03*
X0013220Y0007500D02*
D03*
X0015760Y0007500D02*
D03*
X0018300Y0007500D02*
D03*
X0028460Y0007500D02*
D03*
X0025920Y0007500D02*
D03*
X0023380Y0007500D02*
D03*
X0020840Y0007500D02*
D03*
X0031000Y0004960D02*
D03*
X0028460Y0004960D02*
D03*
X0025920Y0004960D02*
D03*
X0023380Y0004960D02*
D03*
X0020840Y0004960D02*
D03*
D44*
X0031000Y0007500D02*
D03*
D45*
X0019400Y0030000D02*
D03*
X0009675Y0016025D02*
D03*
X0015800Y0022000D02*
D03*
X0012000Y0022100D02*
D03*
X0023500Y0017100D02*
D03*
X0021100Y0017100D02*
D03*
X0010200Y0021900D02*
D03*
X0022300Y0023900D02*
D03*
X0024300Y0014000D02*
D03*
X0022700Y0016000D02*
D03*
X0021900Y0014000D02*
D03*
M02*
