G75*
%MOIN*%
%OFA0B0*%
%FSLAX25Y25*%
%IPPOS*%
%LPD*%
%AMOC8*
5,1,8,0,0,1.08239X$1,22.5*
%
%ADD10C,0.02000*%
%ADD11R,0.26000X0.18000*%
%ADD12C,0.03000*%
%ADD13R,0.31000X0.18500*%
%ADD14R,0.17000X0.18000*%
%ADD15R,0.12000X0.18000*%
%ADD16R,0.06000X0.18500*%
%ADD17C,0.01600*%
%ADD18R,0.07000X0.11500*%
%ADD19R,0.16000X0.06500*%
%ADD20OC8,0.15000*%
%ADD21C,0.40000*%
%ADD22C,0.01320*%
%ADD23C,0.01040*%
%ADD24C,0.05000*%
%ADD25C,0.02300*%
%ADD26C,0.01200*%
%ADD27C,0.01000*%
D10*
X0029500Y0031787D02*
X0029500Y0051915D01*
X0022000Y0051915D01*
X0022000Y0033715D01*
X0026495Y0033715D01*
X0028332Y0032954D01*
X0029500Y0031787D01*
X0029500Y0033701D02*
X0026530Y0033701D01*
X0029500Y0035699D02*
X0022000Y0035699D01*
X0022000Y0037698D02*
X0029500Y0037698D01*
X0029500Y0039696D02*
X0022000Y0039696D01*
X0022000Y0041695D02*
X0029500Y0041695D01*
X0029500Y0043693D02*
X0022000Y0043693D01*
X0022000Y0045692D02*
X0029500Y0045692D01*
X0029500Y0047690D02*
X0022000Y0047690D01*
X0022000Y0049689D02*
X0029500Y0049689D01*
X0029500Y0051687D02*
X0022000Y0051687D01*
X0022000Y0058515D02*
X0022000Y0066515D01*
X0029500Y0066215D01*
X0029500Y0058515D01*
X0022000Y0058515D01*
X0022000Y0059681D02*
X0029500Y0059681D01*
X0029500Y0061680D02*
X0022000Y0061680D01*
X0022000Y0063678D02*
X0029500Y0063678D01*
X0029500Y0065677D02*
X0022000Y0065677D01*
X0022000Y0074715D02*
X0022000Y0108715D01*
X0026495Y0108715D01*
X0028332Y0109477D01*
X0028471Y0109615D01*
X0029442Y0109615D01*
X0029000Y0074715D01*
X0022000Y0074715D01*
X0022000Y0075669D02*
X0029012Y0075669D01*
X0029037Y0077668D02*
X0022000Y0077668D01*
X0022000Y0079666D02*
X0029063Y0079666D01*
X0029088Y0081665D02*
X0022000Y0081665D01*
X0022000Y0083663D02*
X0029113Y0083663D01*
X0029139Y0085662D02*
X0022000Y0085662D01*
X0022000Y0087660D02*
X0029164Y0087660D01*
X0029189Y0089659D02*
X0022000Y0089659D01*
X0022000Y0091657D02*
X0029214Y0091657D01*
X0029240Y0093656D02*
X0022000Y0093656D01*
X0022000Y0095654D02*
X0029265Y0095654D01*
X0029290Y0097653D02*
X0022000Y0097653D01*
X0022000Y0099651D02*
X0029316Y0099651D01*
X0029341Y0101650D02*
X0022000Y0101650D01*
X0022000Y0103648D02*
X0029366Y0103648D01*
X0029392Y0105647D02*
X0022000Y0105647D01*
X0022000Y0107646D02*
X0029417Y0107646D01*
X0165000Y0125215D02*
X0167500Y0130715D01*
X0166000Y0131715D01*
X0165699Y0132920D01*
X0166881Y0140388D01*
X0167638Y0142715D01*
X0169500Y0142715D01*
X0169183Y0147471D01*
X0169306Y0147850D01*
X0171627Y0152405D01*
X0172000Y0152715D01*
X0179000Y0153215D01*
X0179500Y0148715D01*
X0184500Y0149715D01*
X0188000Y0151715D01*
X0188000Y0158215D01*
X0189000Y0161715D01*
X0196500Y0159715D01*
X0196500Y0157215D01*
X0196000Y0150715D01*
X0199000Y0150715D01*
X0202500Y0149715D01*
X0202000Y0144715D01*
X0206000Y0142215D01*
X0209000Y0135715D01*
X0210500Y0132215D01*
X0215500Y0128215D01*
X0214000Y0126715D01*
X0210000Y0128715D01*
X0210000Y0123215D01*
X0208000Y0121215D01*
X0209500Y0114215D01*
X0216500Y0113715D01*
X0215000Y0117715D01*
X0217500Y0121715D01*
X0219000Y0122215D01*
X0220500Y0118715D01*
X0224000Y0114215D01*
X0228000Y0113215D01*
X0238500Y0111715D01*
X0243500Y0110215D01*
X0246500Y0106715D01*
X0250000Y0097715D01*
X0250660Y0091448D01*
X0250233Y0090985D01*
X0243549Y0085783D01*
X0240000Y0083862D01*
X0240000Y0085715D01*
X0233000Y0092715D01*
X0228000Y0091715D01*
X0222500Y0090715D01*
X0219500Y0097215D01*
X0220500Y0103715D01*
X0223500Y0107715D01*
X0220500Y0110215D01*
X0217500Y0109215D01*
X0215500Y0106215D01*
X0211500Y0104215D01*
X0199500Y0110715D01*
X0193000Y0115215D01*
X0189500Y0110215D01*
X0197000Y0105715D01*
X0196500Y0104715D01*
X0188000Y0107715D01*
X0185500Y0109215D01*
X0182500Y0110715D01*
X0179000Y0114715D01*
X0177000Y0119715D01*
X0174000Y0124215D01*
X0173000Y0126215D01*
X0172000Y0127215D01*
X0169000Y0129215D01*
X0165000Y0125215D01*
X0165189Y0125632D02*
X0165417Y0125632D01*
X0166098Y0127631D02*
X0167415Y0127631D01*
X0167006Y0129629D02*
X0213733Y0129629D01*
X0161417Y0128715D02*
X0161433Y0130042D01*
X0161482Y0131369D01*
X0161564Y0132694D01*
X0161677Y0134016D01*
X0161824Y0135335D01*
X0162002Y0136651D01*
X0162213Y0137961D01*
X0162456Y0139266D01*
X0162731Y0140565D01*
X0163038Y0141856D01*
X0163376Y0143140D01*
X0163746Y0144414D01*
X0164147Y0145680D01*
X0164578Y0146935D01*
X0165041Y0148179D01*
X0165534Y0149412D01*
X0166057Y0150632D01*
X0166610Y0151838D01*
X0167192Y0153031D01*
X0167803Y0154210D01*
X0168443Y0155372D01*
X0169111Y0156519D01*
X0169808Y0157649D01*
X0170532Y0158762D01*
X0171283Y0159856D01*
X0172060Y0160932D01*
X0172864Y0161989D01*
X0173693Y0163025D01*
X0174548Y0164041D01*
X0175427Y0165035D01*
X0176331Y0166007D01*
X0177258Y0166957D01*
X0178208Y0167884D01*
X0179180Y0168788D01*
X0180174Y0169667D01*
X0181190Y0170522D01*
X0182226Y0171351D01*
X0183283Y0172155D01*
X0184359Y0172932D01*
X0185453Y0173683D01*
X0186566Y0174407D01*
X0187696Y0175104D01*
X0188843Y0175772D01*
X0190005Y0176412D01*
X0191184Y0177023D01*
X0192377Y0177605D01*
X0193583Y0178158D01*
X0194803Y0178681D01*
X0196036Y0179174D01*
X0197280Y0179637D01*
X0198535Y0180068D01*
X0199801Y0180469D01*
X0201075Y0180839D01*
X0202359Y0181177D01*
X0203650Y0181484D01*
X0204949Y0181759D01*
X0206254Y0182002D01*
X0207564Y0182213D01*
X0208880Y0182391D01*
X0210199Y0182538D01*
X0211521Y0182651D01*
X0212846Y0182733D01*
X0214173Y0182782D01*
X0215500Y0182798D01*
X0216827Y0182782D01*
X0218154Y0182733D01*
X0219479Y0182651D01*
X0220801Y0182538D01*
X0222120Y0182391D01*
X0223436Y0182213D01*
X0224746Y0182002D01*
X0226051Y0181759D01*
X0227350Y0181484D01*
X0228641Y0181177D01*
X0229925Y0180839D01*
X0231199Y0180469D01*
X0232465Y0180068D01*
X0233720Y0179637D01*
X0234964Y0179174D01*
X0236197Y0178681D01*
X0237417Y0178158D01*
X0238623Y0177605D01*
X0239816Y0177023D01*
X0240995Y0176412D01*
X0242157Y0175772D01*
X0243304Y0175104D01*
X0244434Y0174407D01*
X0245547Y0173683D01*
X0246641Y0172932D01*
X0247717Y0172155D01*
X0248774Y0171351D01*
X0249810Y0170522D01*
X0250826Y0169667D01*
X0251820Y0168788D01*
X0252792Y0167884D01*
X0253742Y0166957D01*
X0254669Y0166007D01*
X0255573Y0165035D01*
X0256452Y0164041D01*
X0257307Y0163025D01*
X0258136Y0161989D01*
X0258940Y0160932D01*
X0259717Y0159856D01*
X0260468Y0158762D01*
X0261192Y0157649D01*
X0261889Y0156519D01*
X0262557Y0155372D01*
X0263197Y0154210D01*
X0263808Y0153031D01*
X0264390Y0151838D01*
X0264943Y0150632D01*
X0265466Y0149412D01*
X0265959Y0148179D01*
X0266422Y0146935D01*
X0266853Y0145680D01*
X0267254Y0144414D01*
X0267624Y0143140D01*
X0267962Y0141856D01*
X0268269Y0140565D01*
X0268544Y0139266D01*
X0268787Y0137961D01*
X0268998Y0136651D01*
X0269176Y0135335D01*
X0269323Y0134016D01*
X0269436Y0132694D01*
X0269518Y0131369D01*
X0269567Y0130042D01*
X0269583Y0128715D01*
X0269567Y0127388D01*
X0269518Y0126061D01*
X0269436Y0124736D01*
X0269323Y0123414D01*
X0269176Y0122095D01*
X0268998Y0120779D01*
X0268787Y0119469D01*
X0268544Y0118164D01*
X0268269Y0116865D01*
X0267962Y0115574D01*
X0267624Y0114290D01*
X0267254Y0113016D01*
X0266853Y0111750D01*
X0266422Y0110495D01*
X0265959Y0109251D01*
X0265466Y0108018D01*
X0264943Y0106798D01*
X0264390Y0105592D01*
X0263808Y0104399D01*
X0263197Y0103220D01*
X0262557Y0102058D01*
X0261889Y0100911D01*
X0261192Y0099781D01*
X0260468Y0098668D01*
X0259717Y0097574D01*
X0258940Y0096498D01*
X0258136Y0095441D01*
X0257307Y0094405D01*
X0256452Y0093389D01*
X0255573Y0092395D01*
X0254669Y0091423D01*
X0253742Y0090473D01*
X0252792Y0089546D01*
X0251820Y0088642D01*
X0250826Y0087763D01*
X0249810Y0086908D01*
X0248774Y0086079D01*
X0247717Y0085275D01*
X0246641Y0084498D01*
X0245547Y0083747D01*
X0244434Y0083023D01*
X0243304Y0082326D01*
X0242157Y0081658D01*
X0240995Y0081018D01*
X0239816Y0080407D01*
X0238623Y0079825D01*
X0237417Y0079272D01*
X0236197Y0078749D01*
X0234964Y0078256D01*
X0233720Y0077793D01*
X0232465Y0077362D01*
X0231199Y0076961D01*
X0229925Y0076591D01*
X0228641Y0076253D01*
X0227350Y0075946D01*
X0226051Y0075671D01*
X0224746Y0075428D01*
X0223436Y0075217D01*
X0222120Y0075039D01*
X0220801Y0074892D01*
X0219479Y0074779D01*
X0218154Y0074697D01*
X0216827Y0074648D01*
X0215500Y0074632D01*
X0214173Y0074648D01*
X0212846Y0074697D01*
X0211521Y0074779D01*
X0210199Y0074892D01*
X0208880Y0075039D01*
X0207564Y0075217D01*
X0206254Y0075428D01*
X0204949Y0075671D01*
X0203650Y0075946D01*
X0202359Y0076253D01*
X0201075Y0076591D01*
X0199801Y0076961D01*
X0198535Y0077362D01*
X0197280Y0077793D01*
X0196036Y0078256D01*
X0194803Y0078749D01*
X0193583Y0079272D01*
X0192377Y0079825D01*
X0191184Y0080407D01*
X0190005Y0081018D01*
X0188843Y0081658D01*
X0187696Y0082326D01*
X0186566Y0083023D01*
X0185453Y0083747D01*
X0184359Y0084498D01*
X0183283Y0085275D01*
X0182226Y0086079D01*
X0181190Y0086908D01*
X0180174Y0087763D01*
X0179180Y0088642D01*
X0178208Y0089546D01*
X0177258Y0090473D01*
X0176331Y0091423D01*
X0175427Y0092395D01*
X0174548Y0093389D01*
X0173693Y0094405D01*
X0172864Y0095441D01*
X0172060Y0096498D01*
X0171283Y0097574D01*
X0170532Y0098668D01*
X0169808Y0099781D01*
X0169111Y0100911D01*
X0168443Y0102058D01*
X0167803Y0103220D01*
X0167192Y0104399D01*
X0166610Y0105592D01*
X0166057Y0106798D01*
X0165534Y0108018D01*
X0165041Y0109251D01*
X0164578Y0110495D01*
X0164147Y0111750D01*
X0163746Y0113016D01*
X0163376Y0114290D01*
X0163038Y0115574D01*
X0162731Y0116865D01*
X0162456Y0118164D01*
X0162213Y0119469D01*
X0162002Y0120779D01*
X0161824Y0122095D01*
X0161677Y0123414D01*
X0161564Y0124736D01*
X0161482Y0126061D01*
X0161433Y0127388D01*
X0161417Y0128715D01*
X0166132Y0131628D02*
X0211235Y0131628D01*
X0209895Y0133626D02*
X0165811Y0133626D01*
X0166127Y0135625D02*
X0209039Y0135625D01*
X0208120Y0137623D02*
X0166444Y0137623D01*
X0166760Y0139622D02*
X0207197Y0139622D01*
X0206275Y0141620D02*
X0167282Y0141620D01*
X0169440Y0143619D02*
X0203755Y0143619D01*
X0202090Y0145617D02*
X0169307Y0145617D01*
X0169230Y0147616D02*
X0202290Y0147616D01*
X0202490Y0149614D02*
X0183994Y0149614D01*
X0187820Y0151613D02*
X0196069Y0151613D01*
X0196223Y0153611D02*
X0188000Y0153611D01*
X0188000Y0155610D02*
X0196376Y0155610D01*
X0196500Y0157608D02*
X0188000Y0157608D01*
X0188398Y0159607D02*
X0196500Y0159607D01*
X0189413Y0161605D02*
X0188969Y0161605D01*
X0179178Y0151613D02*
X0171223Y0151613D01*
X0170205Y0149614D02*
X0179400Y0149614D01*
X0171377Y0127631D02*
X0210000Y0127631D01*
X0210000Y0125632D02*
X0173292Y0125632D01*
X0174388Y0123634D02*
X0210000Y0123634D01*
X0208420Y0121635D02*
X0175720Y0121635D01*
X0177032Y0119637D02*
X0208338Y0119637D01*
X0208767Y0117638D02*
X0177831Y0117638D01*
X0178630Y0115640D02*
X0209195Y0115640D01*
X0215029Y0117638D02*
X0221338Y0117638D01*
X0220105Y0119637D02*
X0216201Y0119637D01*
X0217450Y0121635D02*
X0219249Y0121635D01*
X0214915Y0127631D02*
X0212170Y0127631D01*
X0215778Y0115640D02*
X0222892Y0115640D01*
X0226298Y0113641D02*
X0195274Y0113641D01*
X0191898Y0113641D02*
X0179940Y0113641D01*
X0181689Y0111643D02*
X0190499Y0111643D01*
X0190452Y0109644D02*
X0184643Y0109644D01*
X0188198Y0107646D02*
X0193783Y0107646D01*
X0193861Y0105647D02*
X0196966Y0105647D01*
X0201478Y0109644D02*
X0218786Y0109644D01*
X0221186Y0109644D02*
X0243990Y0109644D01*
X0245703Y0107646D02*
X0223448Y0107646D01*
X0221949Y0105647D02*
X0246916Y0105647D01*
X0247693Y0103648D02*
X0220490Y0103648D01*
X0220182Y0101650D02*
X0248470Y0101650D01*
X0249247Y0099651D02*
X0219875Y0099651D01*
X0219567Y0097653D02*
X0250007Y0097653D01*
X0250217Y0095654D02*
X0220220Y0095654D01*
X0221143Y0093656D02*
X0250427Y0093656D01*
X0250638Y0091657D02*
X0234058Y0091657D01*
X0236057Y0089659D02*
X0248529Y0089659D01*
X0245962Y0087660D02*
X0238055Y0087660D01*
X0240000Y0085662D02*
X0243326Y0085662D01*
X0227681Y0091657D02*
X0222065Y0091657D01*
X0214363Y0105647D02*
X0208857Y0105647D01*
X0205168Y0107646D02*
X0216453Y0107646D01*
X0198161Y0111643D02*
X0238743Y0111643D01*
X0262500Y0134215D02*
X0265342Y0132666D01*
X0264118Y0140388D01*
X0261694Y0147850D01*
X0258132Y0154840D01*
X0253520Y0161188D01*
X0247972Y0166736D01*
X0241625Y0171347D01*
X0234634Y0174909D01*
X0227172Y0177334D01*
X0219673Y0178522D01*
X0221500Y0171215D01*
X0219500Y0165715D01*
X0219000Y0159715D01*
X0222000Y0157215D01*
X0224500Y0160215D01*
X0227000Y0161215D01*
X0230000Y0162215D01*
X0230000Y0169715D01*
X0234000Y0170215D01*
X0241000Y0169715D01*
X0237500Y0163215D01*
X0234000Y0156215D01*
X0228000Y0158215D01*
X0225000Y0155215D01*
X0224500Y0143715D01*
X0229500Y0138715D01*
X0238000Y0140215D01*
X0242000Y0147715D01*
X0249000Y0147215D01*
X0257000Y0142715D01*
X0262500Y0134215D01*
X0263580Y0133626D02*
X0265189Y0133626D01*
X0264873Y0135625D02*
X0261588Y0135625D01*
X0260295Y0137623D02*
X0264556Y0137623D01*
X0264240Y0139622D02*
X0259002Y0139622D01*
X0257709Y0141620D02*
X0263718Y0141620D01*
X0263069Y0143619D02*
X0255394Y0143619D01*
X0251841Y0145617D02*
X0262419Y0145617D01*
X0261770Y0147616D02*
X0243396Y0147616D01*
X0241947Y0147616D02*
X0224670Y0147616D01*
X0224756Y0149614D02*
X0260795Y0149614D01*
X0259777Y0151613D02*
X0224843Y0151613D01*
X0224930Y0153611D02*
X0258758Y0153611D01*
X0257573Y0155610D02*
X0225394Y0155610D01*
X0227393Y0157608D02*
X0229822Y0157608D01*
X0228170Y0161605D02*
X0219157Y0161605D01*
X0219130Y0159607D02*
X0223993Y0159607D01*
X0222327Y0157608D02*
X0221529Y0157608D01*
X0219324Y0163604D02*
X0230000Y0163604D01*
X0230000Y0165602D02*
X0219491Y0165602D01*
X0220186Y0167601D02*
X0230000Y0167601D01*
X0230000Y0169599D02*
X0220912Y0169599D01*
X0221404Y0171598D02*
X0241133Y0171598D01*
X0240937Y0169599D02*
X0244031Y0169599D01*
X0246782Y0167601D02*
X0239861Y0167601D01*
X0238785Y0165602D02*
X0249106Y0165602D01*
X0251104Y0163604D02*
X0237709Y0163604D01*
X0236695Y0161605D02*
X0253103Y0161605D01*
X0254669Y0159607D02*
X0235696Y0159607D01*
X0234696Y0157608D02*
X0256121Y0157608D01*
X0240881Y0145617D02*
X0224583Y0145617D01*
X0224597Y0143619D02*
X0239815Y0143619D01*
X0238749Y0141620D02*
X0226595Y0141620D01*
X0228594Y0139622D02*
X0234635Y0139622D01*
X0213000Y0169215D02*
X0210000Y0167715D01*
X0206000Y0169215D01*
X0208500Y0171215D01*
X0206000Y0176215D01*
X0210000Y0175715D01*
X0211500Y0173715D01*
X0213500Y0173215D01*
X0213000Y0169215D01*
X0213048Y0169599D02*
X0206480Y0169599D01*
X0205000Y0171715D02*
X0202000Y0171715D01*
X0203000Y0173715D01*
X0205000Y0171715D01*
X0203119Y0173596D02*
X0202940Y0173596D01*
X0206310Y0175595D02*
X0210090Y0175595D01*
X0211976Y0173596D02*
X0207310Y0173596D01*
X0208309Y0171598D02*
X0213298Y0171598D01*
X0220405Y0175595D02*
X0232525Y0175595D01*
X0237211Y0173596D02*
X0220905Y0173596D01*
X0219906Y0177593D02*
X0225534Y0177593D01*
X0288500Y0109132D02*
X0289505Y0108715D01*
X0302000Y0108715D01*
X0302000Y0096442D01*
X0301911Y0096816D01*
X0301307Y0097655D01*
X0300427Y0098199D01*
X0288432Y0100144D01*
X0288500Y0104215D01*
X0288500Y0109132D01*
X0288500Y0107646D02*
X0302000Y0107646D01*
X0302000Y0105647D02*
X0288500Y0105647D01*
X0288491Y0103648D02*
X0302000Y0103648D01*
X0302000Y0101650D02*
X0288457Y0101650D01*
X0291471Y0099651D02*
X0302000Y0099651D01*
X0302000Y0097653D02*
X0301308Y0097653D01*
X0302000Y0094890D02*
X0302000Y0074215D01*
X0288000Y0074215D01*
X0288345Y0094891D01*
X0299594Y0093066D01*
X0300601Y0093304D01*
X0301440Y0093909D01*
X0301984Y0094789D01*
X0302000Y0094890D01*
X0302000Y0093656D02*
X0301089Y0093656D01*
X0302000Y0091657D02*
X0288291Y0091657D01*
X0288257Y0089659D02*
X0302000Y0089659D01*
X0302000Y0087660D02*
X0288224Y0087660D01*
X0288191Y0085662D02*
X0302000Y0085662D01*
X0302000Y0083663D02*
X0288157Y0083663D01*
X0288124Y0081665D02*
X0302000Y0081665D01*
X0302000Y0079666D02*
X0288091Y0079666D01*
X0288058Y0077668D02*
X0302000Y0077668D01*
X0302000Y0075669D02*
X0288024Y0075669D01*
X0288000Y0066715D02*
X0302000Y0066337D01*
X0302000Y0033715D01*
X0289505Y0033715D01*
X0287668Y0032954D01*
X0287500Y0032787D01*
X0287500Y0044215D01*
X0287700Y0052415D01*
X0294156Y0052415D01*
X0295369Y0052918D01*
X0296298Y0053846D01*
X0296800Y0055059D01*
X0296800Y0056372D01*
X0296298Y0057585D01*
X0295369Y0058513D01*
X0294156Y0059015D01*
X0287861Y0059015D01*
X0288000Y0064715D01*
X0288000Y0066715D01*
X0288000Y0065677D02*
X0302000Y0065677D01*
X0302000Y0063678D02*
X0287975Y0063678D01*
X0287926Y0061680D02*
X0302000Y0061680D01*
X0302000Y0059681D02*
X0287877Y0059681D01*
X0296137Y0053686D02*
X0302000Y0053686D01*
X0302000Y0055684D02*
X0296800Y0055684D01*
X0296200Y0057683D02*
X0302000Y0057683D01*
X0302000Y0051687D02*
X0287682Y0051687D01*
X0287633Y0049689D02*
X0302000Y0049689D01*
X0302000Y0047690D02*
X0287585Y0047690D01*
X0287536Y0045692D02*
X0302000Y0045692D01*
X0302000Y0043693D02*
X0287500Y0043693D01*
X0287500Y0041695D02*
X0302000Y0041695D01*
X0302000Y0039696D02*
X0287500Y0039696D01*
X0287500Y0037698D02*
X0302000Y0037698D01*
X0302000Y0035699D02*
X0287500Y0035699D01*
X0287500Y0033701D02*
X0289470Y0033701D01*
X0288324Y0093656D02*
X0295958Y0093656D01*
D11*
X0105000Y0149715D03*
X0092000Y0149715D03*
X0058500Y0149715D03*
X0042000Y0149715D03*
D12*
X0058500Y0156715D02*
X0058500Y0157215D01*
X0069000Y0157215D01*
X0063299Y0164215D02*
X0063301Y0164365D01*
X0063307Y0164516D01*
X0063317Y0164666D01*
X0063331Y0164816D01*
X0063349Y0164965D01*
X0063370Y0165114D01*
X0063396Y0165263D01*
X0063426Y0165410D01*
X0063459Y0165557D01*
X0063497Y0165703D01*
X0063538Y0165847D01*
X0063583Y0165991D01*
X0063631Y0166133D01*
X0063684Y0166274D01*
X0063740Y0166414D01*
X0063800Y0166552D01*
X0063864Y0166689D01*
X0063931Y0166823D01*
X0064001Y0166956D01*
X0064075Y0167087D01*
X0064153Y0167216D01*
X0064234Y0167343D01*
X0064318Y0167468D01*
X0064406Y0167590D01*
X0064496Y0167710D01*
X0064590Y0167828D01*
X0064687Y0167943D01*
X0064787Y0168056D01*
X0064890Y0168166D01*
X0064995Y0168273D01*
X0065104Y0168377D01*
X0065215Y0168478D01*
X0065329Y0168577D01*
X0065445Y0168672D01*
X0065564Y0168764D01*
X0065686Y0168854D01*
X0065809Y0168939D01*
X0065935Y0169022D01*
X0066063Y0169101D01*
X0066193Y0169177D01*
X0066325Y0169249D01*
X0066459Y0169318D01*
X0066594Y0169384D01*
X0066732Y0169445D01*
X0066871Y0169503D01*
X0067011Y0169558D01*
X0067153Y0169608D01*
X0067296Y0169655D01*
X0067440Y0169698D01*
X0067585Y0169738D01*
X0067731Y0169773D01*
X0067879Y0169805D01*
X0068027Y0169832D01*
X0068175Y0169856D01*
X0068324Y0169876D01*
X0068474Y0169892D01*
X0068624Y0169904D01*
X0068774Y0169912D01*
X0068925Y0169916D01*
X0069075Y0169916D01*
X0069226Y0169912D01*
X0069376Y0169904D01*
X0069526Y0169892D01*
X0069676Y0169876D01*
X0069825Y0169856D01*
X0069973Y0169832D01*
X0070121Y0169805D01*
X0070269Y0169773D01*
X0070415Y0169738D01*
X0070560Y0169698D01*
X0070704Y0169655D01*
X0070847Y0169608D01*
X0070989Y0169558D01*
X0071129Y0169503D01*
X0071268Y0169445D01*
X0071406Y0169384D01*
X0071541Y0169318D01*
X0071675Y0169249D01*
X0071807Y0169177D01*
X0071937Y0169101D01*
X0072065Y0169022D01*
X0072191Y0168939D01*
X0072314Y0168854D01*
X0072436Y0168764D01*
X0072555Y0168672D01*
X0072671Y0168577D01*
X0072785Y0168478D01*
X0072896Y0168377D01*
X0073005Y0168273D01*
X0073110Y0168166D01*
X0073213Y0168056D01*
X0073313Y0167943D01*
X0073410Y0167828D01*
X0073504Y0167710D01*
X0073594Y0167590D01*
X0073682Y0167468D01*
X0073766Y0167343D01*
X0073847Y0167216D01*
X0073925Y0167087D01*
X0073999Y0166956D01*
X0074069Y0166823D01*
X0074136Y0166689D01*
X0074200Y0166552D01*
X0074260Y0166414D01*
X0074316Y0166274D01*
X0074369Y0166133D01*
X0074417Y0165991D01*
X0074462Y0165847D01*
X0074503Y0165703D01*
X0074541Y0165557D01*
X0074574Y0165410D01*
X0074604Y0165263D01*
X0074630Y0165114D01*
X0074651Y0164965D01*
X0074669Y0164816D01*
X0074683Y0164666D01*
X0074693Y0164516D01*
X0074699Y0164365D01*
X0074701Y0164215D01*
X0074699Y0164065D01*
X0074693Y0163914D01*
X0074683Y0163764D01*
X0074669Y0163614D01*
X0074651Y0163465D01*
X0074630Y0163316D01*
X0074604Y0163167D01*
X0074574Y0163020D01*
X0074541Y0162873D01*
X0074503Y0162727D01*
X0074462Y0162583D01*
X0074417Y0162439D01*
X0074369Y0162297D01*
X0074316Y0162156D01*
X0074260Y0162016D01*
X0074200Y0161878D01*
X0074136Y0161741D01*
X0074069Y0161607D01*
X0073999Y0161474D01*
X0073925Y0161343D01*
X0073847Y0161214D01*
X0073766Y0161087D01*
X0073682Y0160962D01*
X0073594Y0160840D01*
X0073504Y0160720D01*
X0073410Y0160602D01*
X0073313Y0160487D01*
X0073213Y0160374D01*
X0073110Y0160264D01*
X0073005Y0160157D01*
X0072896Y0160053D01*
X0072785Y0159952D01*
X0072671Y0159853D01*
X0072555Y0159758D01*
X0072436Y0159666D01*
X0072314Y0159576D01*
X0072191Y0159491D01*
X0072065Y0159408D01*
X0071937Y0159329D01*
X0071807Y0159253D01*
X0071675Y0159181D01*
X0071541Y0159112D01*
X0071406Y0159046D01*
X0071268Y0158985D01*
X0071129Y0158927D01*
X0070989Y0158872D01*
X0070847Y0158822D01*
X0070704Y0158775D01*
X0070560Y0158732D01*
X0070415Y0158692D01*
X0070269Y0158657D01*
X0070121Y0158625D01*
X0069973Y0158598D01*
X0069825Y0158574D01*
X0069676Y0158554D01*
X0069526Y0158538D01*
X0069376Y0158526D01*
X0069226Y0158518D01*
X0069075Y0158514D01*
X0068925Y0158514D01*
X0068774Y0158518D01*
X0068624Y0158526D01*
X0068474Y0158538D01*
X0068324Y0158554D01*
X0068175Y0158574D01*
X0068027Y0158598D01*
X0067879Y0158625D01*
X0067731Y0158657D01*
X0067585Y0158692D01*
X0067440Y0158732D01*
X0067296Y0158775D01*
X0067153Y0158822D01*
X0067011Y0158872D01*
X0066871Y0158927D01*
X0066732Y0158985D01*
X0066594Y0159046D01*
X0066459Y0159112D01*
X0066325Y0159181D01*
X0066193Y0159253D01*
X0066063Y0159329D01*
X0065935Y0159408D01*
X0065809Y0159491D01*
X0065686Y0159576D01*
X0065564Y0159666D01*
X0065445Y0159758D01*
X0065329Y0159853D01*
X0065215Y0159952D01*
X0065104Y0160053D01*
X0064995Y0160157D01*
X0064890Y0160264D01*
X0064787Y0160374D01*
X0064687Y0160487D01*
X0064590Y0160602D01*
X0064496Y0160720D01*
X0064406Y0160840D01*
X0064318Y0160962D01*
X0064234Y0161087D01*
X0064153Y0161214D01*
X0064075Y0161343D01*
X0064001Y0161474D01*
X0063931Y0161607D01*
X0063864Y0161741D01*
X0063800Y0161878D01*
X0063740Y0162016D01*
X0063684Y0162156D01*
X0063631Y0162297D01*
X0063583Y0162439D01*
X0063538Y0162583D01*
X0063497Y0162727D01*
X0063459Y0162873D01*
X0063426Y0163020D01*
X0063396Y0163167D01*
X0063370Y0163316D01*
X0063349Y0163465D01*
X0063331Y0163614D01*
X0063317Y0163764D01*
X0063307Y0163914D01*
X0063301Y0164065D01*
X0063299Y0164215D01*
X0063410Y0164215D02*
X0063412Y0164364D01*
X0063418Y0164514D01*
X0063428Y0164663D01*
X0063442Y0164812D01*
X0063460Y0164960D01*
X0063482Y0165108D01*
X0063508Y0165255D01*
X0063537Y0165402D01*
X0063571Y0165547D01*
X0063609Y0165692D01*
X0063650Y0165835D01*
X0063695Y0165978D01*
X0063744Y0166119D01*
X0063797Y0166259D01*
X0063854Y0166397D01*
X0063914Y0166534D01*
X0063978Y0166669D01*
X0064045Y0166803D01*
X0064116Y0166934D01*
X0064190Y0167064D01*
X0064268Y0167191D01*
X0064349Y0167317D01*
X0064434Y0167440D01*
X0064522Y0167561D01*
X0064613Y0167679D01*
X0064707Y0167795D01*
X0064804Y0167909D01*
X0064905Y0168020D01*
X0065008Y0168128D01*
X0065114Y0168233D01*
X0065223Y0168336D01*
X0065334Y0168435D01*
X0065448Y0168532D01*
X0065565Y0168625D01*
X0065684Y0168715D01*
X0065806Y0168802D01*
X0065929Y0168886D01*
X0066055Y0168967D01*
X0066183Y0169044D01*
X0066314Y0169117D01*
X0066446Y0169187D01*
X0066579Y0169254D01*
X0066715Y0169317D01*
X0066852Y0169376D01*
X0066991Y0169431D01*
X0067131Y0169483D01*
X0067273Y0169531D01*
X0067415Y0169576D01*
X0067559Y0169616D01*
X0067704Y0169653D01*
X0067850Y0169685D01*
X0067997Y0169714D01*
X0068144Y0169739D01*
X0068292Y0169760D01*
X0068440Y0169777D01*
X0068589Y0169790D01*
X0068739Y0169799D01*
X0068888Y0169804D01*
X0069037Y0169805D01*
X0069187Y0169802D01*
X0069336Y0169795D01*
X0069485Y0169784D01*
X0069634Y0169769D01*
X0069782Y0169750D01*
X0069930Y0169727D01*
X0070077Y0169700D01*
X0070223Y0169670D01*
X0070368Y0169635D01*
X0070513Y0169596D01*
X0070656Y0169554D01*
X0070798Y0169508D01*
X0070939Y0169458D01*
X0071079Y0169404D01*
X0071217Y0169347D01*
X0071353Y0169286D01*
X0071488Y0169221D01*
X0071621Y0169153D01*
X0071752Y0169081D01*
X0071881Y0169005D01*
X0072008Y0168927D01*
X0072133Y0168845D01*
X0072255Y0168759D01*
X0072376Y0168671D01*
X0072494Y0168579D01*
X0072609Y0168484D01*
X0072722Y0168386D01*
X0072832Y0168285D01*
X0072939Y0168181D01*
X0073044Y0168074D01*
X0073146Y0167965D01*
X0073245Y0167853D01*
X0073340Y0167738D01*
X0073433Y0167620D01*
X0073522Y0167501D01*
X0073609Y0167379D01*
X0073692Y0167254D01*
X0073771Y0167128D01*
X0073847Y0166999D01*
X0073920Y0166869D01*
X0073989Y0166736D01*
X0074055Y0166602D01*
X0074117Y0166466D01*
X0074175Y0166328D01*
X0074230Y0166189D01*
X0074281Y0166049D01*
X0074328Y0165907D01*
X0074371Y0165764D01*
X0074411Y0165620D01*
X0074446Y0165474D01*
X0074478Y0165328D01*
X0074506Y0165182D01*
X0074530Y0165034D01*
X0074550Y0164886D01*
X0074566Y0164737D01*
X0074578Y0164588D01*
X0074586Y0164439D01*
X0074590Y0164290D01*
X0074590Y0164140D01*
X0074586Y0163991D01*
X0074578Y0163842D01*
X0074566Y0163693D01*
X0074550Y0163544D01*
X0074530Y0163396D01*
X0074506Y0163248D01*
X0074478Y0163102D01*
X0074446Y0162956D01*
X0074411Y0162810D01*
X0074371Y0162666D01*
X0074328Y0162523D01*
X0074281Y0162381D01*
X0074230Y0162241D01*
X0074175Y0162102D01*
X0074117Y0161964D01*
X0074055Y0161828D01*
X0073989Y0161694D01*
X0073920Y0161561D01*
X0073847Y0161431D01*
X0073771Y0161302D01*
X0073692Y0161176D01*
X0073609Y0161051D01*
X0073522Y0160929D01*
X0073433Y0160810D01*
X0073340Y0160692D01*
X0073245Y0160577D01*
X0073146Y0160465D01*
X0073044Y0160356D01*
X0072939Y0160249D01*
X0072832Y0160145D01*
X0072722Y0160044D01*
X0072609Y0159946D01*
X0072494Y0159851D01*
X0072376Y0159759D01*
X0072255Y0159671D01*
X0072133Y0159585D01*
X0072008Y0159503D01*
X0071881Y0159425D01*
X0071752Y0159349D01*
X0071621Y0159277D01*
X0071488Y0159209D01*
X0071353Y0159144D01*
X0071217Y0159083D01*
X0071079Y0159026D01*
X0070939Y0158972D01*
X0070798Y0158922D01*
X0070656Y0158876D01*
X0070513Y0158834D01*
X0070368Y0158795D01*
X0070223Y0158760D01*
X0070077Y0158730D01*
X0069930Y0158703D01*
X0069782Y0158680D01*
X0069634Y0158661D01*
X0069485Y0158646D01*
X0069336Y0158635D01*
X0069187Y0158628D01*
X0069037Y0158625D01*
X0068888Y0158626D01*
X0068739Y0158631D01*
X0068589Y0158640D01*
X0068440Y0158653D01*
X0068292Y0158670D01*
X0068144Y0158691D01*
X0067997Y0158716D01*
X0067850Y0158745D01*
X0067704Y0158777D01*
X0067559Y0158814D01*
X0067415Y0158854D01*
X0067273Y0158899D01*
X0067131Y0158947D01*
X0066991Y0158999D01*
X0066852Y0159054D01*
X0066715Y0159113D01*
X0066579Y0159176D01*
X0066446Y0159243D01*
X0066314Y0159313D01*
X0066183Y0159386D01*
X0066055Y0159463D01*
X0065929Y0159544D01*
X0065806Y0159628D01*
X0065684Y0159715D01*
X0065565Y0159805D01*
X0065448Y0159898D01*
X0065334Y0159995D01*
X0065223Y0160094D01*
X0065114Y0160197D01*
X0065008Y0160302D01*
X0064905Y0160410D01*
X0064804Y0160521D01*
X0064707Y0160635D01*
X0064613Y0160751D01*
X0064522Y0160869D01*
X0064434Y0160990D01*
X0064349Y0161113D01*
X0064268Y0161239D01*
X0064190Y0161366D01*
X0064116Y0161496D01*
X0064045Y0161627D01*
X0063978Y0161761D01*
X0063914Y0161896D01*
X0063854Y0162033D01*
X0063797Y0162171D01*
X0063744Y0162311D01*
X0063695Y0162452D01*
X0063650Y0162595D01*
X0063609Y0162738D01*
X0063571Y0162883D01*
X0063537Y0163028D01*
X0063508Y0163175D01*
X0063482Y0163322D01*
X0063460Y0163470D01*
X0063442Y0163618D01*
X0063428Y0163767D01*
X0063418Y0163916D01*
X0063412Y0164066D01*
X0063410Y0164215D01*
X0096000Y0155215D02*
X0074000Y0205715D01*
X0063477Y0248215D02*
X0063479Y0248363D01*
X0063485Y0248511D01*
X0063495Y0248659D01*
X0063509Y0248807D01*
X0063527Y0248954D01*
X0063549Y0249101D01*
X0063574Y0249247D01*
X0063604Y0249392D01*
X0063637Y0249537D01*
X0063675Y0249680D01*
X0063716Y0249823D01*
X0063761Y0249964D01*
X0063810Y0250104D01*
X0063863Y0250243D01*
X0063919Y0250380D01*
X0063979Y0250515D01*
X0064042Y0250649D01*
X0064110Y0250782D01*
X0064180Y0250912D01*
X0064254Y0251040D01*
X0064332Y0251167D01*
X0064413Y0251291D01*
X0064497Y0251413D01*
X0064585Y0251533D01*
X0064675Y0251650D01*
X0064769Y0251765D01*
X0064866Y0251877D01*
X0064966Y0251987D01*
X0065069Y0252094D01*
X0065174Y0252198D01*
X0065282Y0252299D01*
X0065393Y0252398D01*
X0065507Y0252493D01*
X0065623Y0252585D01*
X0065742Y0252674D01*
X0065863Y0252760D01*
X0065986Y0252843D01*
X0066111Y0252922D01*
X0066239Y0252998D01*
X0066368Y0253070D01*
X0066499Y0253139D01*
X0066632Y0253205D01*
X0066767Y0253267D01*
X0066904Y0253325D01*
X0067042Y0253379D01*
X0067181Y0253430D01*
X0067322Y0253477D01*
X0067463Y0253520D01*
X0067606Y0253559D01*
X0067750Y0253595D01*
X0067895Y0253626D01*
X0068041Y0253654D01*
X0068187Y0253678D01*
X0068334Y0253698D01*
X0068482Y0253714D01*
X0068630Y0253726D01*
X0068778Y0253734D01*
X0068926Y0253738D01*
X0069074Y0253738D01*
X0069222Y0253734D01*
X0069370Y0253726D01*
X0069518Y0253714D01*
X0069666Y0253698D01*
X0069813Y0253678D01*
X0069959Y0253654D01*
X0070105Y0253626D01*
X0070250Y0253595D01*
X0070394Y0253559D01*
X0070537Y0253520D01*
X0070678Y0253477D01*
X0070819Y0253430D01*
X0070958Y0253379D01*
X0071096Y0253325D01*
X0071233Y0253267D01*
X0071368Y0253205D01*
X0071501Y0253139D01*
X0071632Y0253070D01*
X0071762Y0252998D01*
X0071889Y0252922D01*
X0072014Y0252843D01*
X0072137Y0252760D01*
X0072258Y0252674D01*
X0072377Y0252585D01*
X0072493Y0252493D01*
X0072607Y0252398D01*
X0072718Y0252299D01*
X0072826Y0252198D01*
X0072931Y0252094D01*
X0073034Y0251987D01*
X0073134Y0251877D01*
X0073231Y0251765D01*
X0073325Y0251650D01*
X0073415Y0251533D01*
X0073503Y0251413D01*
X0073587Y0251291D01*
X0073668Y0251167D01*
X0073746Y0251040D01*
X0073820Y0250912D01*
X0073890Y0250782D01*
X0073958Y0250649D01*
X0074021Y0250515D01*
X0074081Y0250380D01*
X0074137Y0250243D01*
X0074190Y0250104D01*
X0074239Y0249964D01*
X0074284Y0249823D01*
X0074325Y0249680D01*
X0074363Y0249537D01*
X0074396Y0249392D01*
X0074426Y0249247D01*
X0074451Y0249101D01*
X0074473Y0248954D01*
X0074491Y0248807D01*
X0074505Y0248659D01*
X0074515Y0248511D01*
X0074521Y0248363D01*
X0074523Y0248215D01*
X0074521Y0248067D01*
X0074515Y0247919D01*
X0074505Y0247771D01*
X0074491Y0247623D01*
X0074473Y0247476D01*
X0074451Y0247329D01*
X0074426Y0247183D01*
X0074396Y0247038D01*
X0074363Y0246893D01*
X0074325Y0246750D01*
X0074284Y0246607D01*
X0074239Y0246466D01*
X0074190Y0246326D01*
X0074137Y0246187D01*
X0074081Y0246050D01*
X0074021Y0245915D01*
X0073958Y0245781D01*
X0073890Y0245648D01*
X0073820Y0245518D01*
X0073746Y0245390D01*
X0073668Y0245263D01*
X0073587Y0245139D01*
X0073503Y0245017D01*
X0073415Y0244897D01*
X0073325Y0244780D01*
X0073231Y0244665D01*
X0073134Y0244553D01*
X0073034Y0244443D01*
X0072931Y0244336D01*
X0072826Y0244232D01*
X0072718Y0244131D01*
X0072607Y0244032D01*
X0072493Y0243937D01*
X0072377Y0243845D01*
X0072258Y0243756D01*
X0072137Y0243670D01*
X0072014Y0243587D01*
X0071889Y0243508D01*
X0071761Y0243432D01*
X0071632Y0243360D01*
X0071501Y0243291D01*
X0071368Y0243225D01*
X0071233Y0243163D01*
X0071096Y0243105D01*
X0070958Y0243051D01*
X0070819Y0243000D01*
X0070678Y0242953D01*
X0070537Y0242910D01*
X0070394Y0242871D01*
X0070250Y0242835D01*
X0070105Y0242804D01*
X0069959Y0242776D01*
X0069813Y0242752D01*
X0069666Y0242732D01*
X0069518Y0242716D01*
X0069370Y0242704D01*
X0069222Y0242696D01*
X0069074Y0242692D01*
X0068926Y0242692D01*
X0068778Y0242696D01*
X0068630Y0242704D01*
X0068482Y0242716D01*
X0068334Y0242732D01*
X0068187Y0242752D01*
X0068041Y0242776D01*
X0067895Y0242804D01*
X0067750Y0242835D01*
X0067606Y0242871D01*
X0067463Y0242910D01*
X0067322Y0242953D01*
X0067181Y0243000D01*
X0067042Y0243051D01*
X0066904Y0243105D01*
X0066767Y0243163D01*
X0066632Y0243225D01*
X0066499Y0243291D01*
X0066368Y0243360D01*
X0066238Y0243432D01*
X0066111Y0243508D01*
X0065986Y0243587D01*
X0065863Y0243670D01*
X0065742Y0243756D01*
X0065623Y0243845D01*
X0065507Y0243937D01*
X0065393Y0244032D01*
X0065282Y0244131D01*
X0065174Y0244232D01*
X0065069Y0244336D01*
X0064966Y0244443D01*
X0064866Y0244553D01*
X0064769Y0244665D01*
X0064675Y0244780D01*
X0064585Y0244897D01*
X0064497Y0245017D01*
X0064413Y0245139D01*
X0064332Y0245263D01*
X0064254Y0245390D01*
X0064180Y0245518D01*
X0064110Y0245648D01*
X0064042Y0245781D01*
X0063979Y0245915D01*
X0063919Y0246050D01*
X0063863Y0246187D01*
X0063810Y0246326D01*
X0063761Y0246466D01*
X0063716Y0246607D01*
X0063675Y0246750D01*
X0063637Y0246893D01*
X0063604Y0247038D01*
X0063574Y0247183D01*
X0063549Y0247329D01*
X0063527Y0247476D01*
X0063509Y0247623D01*
X0063495Y0247771D01*
X0063485Y0247919D01*
X0063479Y0248067D01*
X0063477Y0248215D01*
X0063479Y0248363D01*
X0063485Y0248511D01*
X0063495Y0248659D01*
X0063509Y0248807D01*
X0063527Y0248954D01*
X0063549Y0249101D01*
X0063574Y0249247D01*
X0063604Y0249392D01*
X0063637Y0249537D01*
X0063675Y0249680D01*
X0063716Y0249823D01*
X0063761Y0249964D01*
X0063810Y0250104D01*
X0063863Y0250243D01*
X0063919Y0250380D01*
X0063979Y0250515D01*
X0064042Y0250649D01*
X0064110Y0250782D01*
X0064180Y0250912D01*
X0064254Y0251040D01*
X0064332Y0251167D01*
X0064413Y0251291D01*
X0064497Y0251413D01*
X0064585Y0251533D01*
X0064675Y0251650D01*
X0064769Y0251765D01*
X0064866Y0251877D01*
X0064966Y0251987D01*
X0065069Y0252094D01*
X0065174Y0252198D01*
X0065282Y0252299D01*
X0065393Y0252398D01*
X0065507Y0252493D01*
X0065623Y0252585D01*
X0065742Y0252674D01*
X0065863Y0252760D01*
X0065986Y0252843D01*
X0066111Y0252922D01*
X0066239Y0252998D01*
X0066368Y0253070D01*
X0066499Y0253139D01*
X0066632Y0253205D01*
X0066767Y0253267D01*
X0066904Y0253325D01*
X0067042Y0253379D01*
X0067181Y0253430D01*
X0067322Y0253477D01*
X0067463Y0253520D01*
X0067606Y0253559D01*
X0067750Y0253595D01*
X0067895Y0253626D01*
X0068041Y0253654D01*
X0068187Y0253678D01*
X0068334Y0253698D01*
X0068482Y0253714D01*
X0068630Y0253726D01*
X0068778Y0253734D01*
X0068926Y0253738D01*
X0069074Y0253738D01*
X0069222Y0253734D01*
X0069370Y0253726D01*
X0069518Y0253714D01*
X0069666Y0253698D01*
X0069813Y0253678D01*
X0069959Y0253654D01*
X0070105Y0253626D01*
X0070250Y0253595D01*
X0070394Y0253559D01*
X0070537Y0253520D01*
X0070678Y0253477D01*
X0070819Y0253430D01*
X0070958Y0253379D01*
X0071096Y0253325D01*
X0071233Y0253267D01*
X0071368Y0253205D01*
X0071501Y0253139D01*
X0071632Y0253070D01*
X0071762Y0252998D01*
X0071889Y0252922D01*
X0072014Y0252843D01*
X0072137Y0252760D01*
X0072258Y0252674D01*
X0072377Y0252585D01*
X0072493Y0252493D01*
X0072607Y0252398D01*
X0072718Y0252299D01*
X0072826Y0252198D01*
X0072931Y0252094D01*
X0073034Y0251987D01*
X0073134Y0251877D01*
X0073231Y0251765D01*
X0073325Y0251650D01*
X0073415Y0251533D01*
X0073503Y0251413D01*
X0073587Y0251291D01*
X0073668Y0251167D01*
X0073746Y0251040D01*
X0073820Y0250912D01*
X0073890Y0250782D01*
X0073958Y0250649D01*
X0074021Y0250515D01*
X0074081Y0250380D01*
X0074137Y0250243D01*
X0074190Y0250104D01*
X0074239Y0249964D01*
X0074284Y0249823D01*
X0074325Y0249680D01*
X0074363Y0249537D01*
X0074396Y0249392D01*
X0074426Y0249247D01*
X0074451Y0249101D01*
X0074473Y0248954D01*
X0074491Y0248807D01*
X0074505Y0248659D01*
X0074515Y0248511D01*
X0074521Y0248363D01*
X0074523Y0248215D01*
X0074521Y0248067D01*
X0074515Y0247919D01*
X0074505Y0247771D01*
X0074491Y0247623D01*
X0074473Y0247476D01*
X0074451Y0247329D01*
X0074426Y0247183D01*
X0074396Y0247038D01*
X0074363Y0246893D01*
X0074325Y0246750D01*
X0074284Y0246607D01*
X0074239Y0246466D01*
X0074190Y0246326D01*
X0074137Y0246187D01*
X0074081Y0246050D01*
X0074021Y0245915D01*
X0073958Y0245781D01*
X0073890Y0245648D01*
X0073820Y0245518D01*
X0073746Y0245390D01*
X0073668Y0245263D01*
X0073587Y0245139D01*
X0073503Y0245017D01*
X0073415Y0244897D01*
X0073325Y0244780D01*
X0073231Y0244665D01*
X0073134Y0244553D01*
X0073034Y0244443D01*
X0072931Y0244336D01*
X0072826Y0244232D01*
X0072718Y0244131D01*
X0072607Y0244032D01*
X0072493Y0243937D01*
X0072377Y0243845D01*
X0072258Y0243756D01*
X0072137Y0243670D01*
X0072014Y0243587D01*
X0071889Y0243508D01*
X0071761Y0243432D01*
X0071632Y0243360D01*
X0071501Y0243291D01*
X0071368Y0243225D01*
X0071233Y0243163D01*
X0071096Y0243105D01*
X0070958Y0243051D01*
X0070819Y0243000D01*
X0070678Y0242953D01*
X0070537Y0242910D01*
X0070394Y0242871D01*
X0070250Y0242835D01*
X0070105Y0242804D01*
X0069959Y0242776D01*
X0069813Y0242752D01*
X0069666Y0242732D01*
X0069518Y0242716D01*
X0069370Y0242704D01*
X0069222Y0242696D01*
X0069074Y0242692D01*
X0068926Y0242692D01*
X0068778Y0242696D01*
X0068630Y0242704D01*
X0068482Y0242716D01*
X0068334Y0242732D01*
X0068187Y0242752D01*
X0068041Y0242776D01*
X0067895Y0242804D01*
X0067750Y0242835D01*
X0067606Y0242871D01*
X0067463Y0242910D01*
X0067322Y0242953D01*
X0067181Y0243000D01*
X0067042Y0243051D01*
X0066904Y0243105D01*
X0066767Y0243163D01*
X0066632Y0243225D01*
X0066499Y0243291D01*
X0066368Y0243360D01*
X0066238Y0243432D01*
X0066111Y0243508D01*
X0065986Y0243587D01*
X0065863Y0243670D01*
X0065742Y0243756D01*
X0065623Y0243845D01*
X0065507Y0243937D01*
X0065393Y0244032D01*
X0065282Y0244131D01*
X0065174Y0244232D01*
X0065069Y0244336D01*
X0064966Y0244443D01*
X0064866Y0244553D01*
X0064769Y0244665D01*
X0064675Y0244780D01*
X0064585Y0244897D01*
X0064497Y0245017D01*
X0064413Y0245139D01*
X0064332Y0245263D01*
X0064254Y0245390D01*
X0064180Y0245518D01*
X0064110Y0245648D01*
X0064042Y0245781D01*
X0063979Y0245915D01*
X0063919Y0246050D01*
X0063863Y0246187D01*
X0063810Y0246326D01*
X0063761Y0246466D01*
X0063716Y0246607D01*
X0063675Y0246750D01*
X0063637Y0246893D01*
X0063604Y0247038D01*
X0063574Y0247183D01*
X0063549Y0247329D01*
X0063527Y0247476D01*
X0063509Y0247623D01*
X0063495Y0247771D01*
X0063485Y0247919D01*
X0063479Y0248067D01*
X0063477Y0248215D01*
X0159000Y0240215D02*
X0189595Y0240215D01*
X0189595Y0240216D02*
X0189718Y0240218D01*
X0189840Y0240224D01*
X0189962Y0240233D01*
X0190084Y0240247D01*
X0190206Y0240264D01*
X0190327Y0240285D01*
X0190447Y0240310D01*
X0190566Y0240339D01*
X0190684Y0240371D01*
X0190802Y0240407D01*
X0190918Y0240447D01*
X0191033Y0240490D01*
X0191146Y0240537D01*
X0191258Y0240588D01*
X0191368Y0240642D01*
X0191476Y0240699D01*
X0191583Y0240760D01*
X0191687Y0240824D01*
X0191790Y0240891D01*
X0191890Y0240962D01*
X0191988Y0241035D01*
X0192084Y0241112D01*
X0192177Y0241192D01*
X0192268Y0241274D01*
X0192356Y0241360D01*
X0192442Y0241448D01*
X0192524Y0241539D01*
X0192604Y0241632D01*
X0192681Y0241728D01*
X0192754Y0241826D01*
X0192825Y0241926D01*
X0192892Y0242029D01*
X0192956Y0242133D01*
X0193017Y0242240D01*
X0193074Y0242348D01*
X0193128Y0242458D01*
X0193179Y0242570D01*
X0193226Y0242683D01*
X0193269Y0242798D01*
X0193309Y0242914D01*
X0193345Y0243032D01*
X0193377Y0243150D01*
X0193406Y0243269D01*
X0193431Y0243389D01*
X0193452Y0243510D01*
X0193469Y0243632D01*
X0193483Y0243754D01*
X0193492Y0243876D01*
X0193498Y0243998D01*
X0193500Y0244121D01*
X0193500Y0254715D01*
X0321713Y0122022D02*
X0321331Y0015523D01*
X0326921Y0015533D01*
X0324656Y0015610D02*
X0324658Y0015689D01*
X0324664Y0015769D01*
X0324674Y0015848D01*
X0324688Y0015926D01*
X0324706Y0016003D01*
X0324727Y0016080D01*
X0324753Y0016155D01*
X0324782Y0016229D01*
X0324815Y0016301D01*
X0324852Y0016372D01*
X0324892Y0016440D01*
X0324935Y0016507D01*
X0324982Y0016571D01*
X0325032Y0016633D01*
X0325085Y0016692D01*
X0325140Y0016749D01*
X0325199Y0016802D01*
X0325260Y0016853D01*
X0325324Y0016901D01*
X0325390Y0016945D01*
X0325458Y0016986D01*
X0325528Y0017023D01*
X0325600Y0017057D01*
X0325674Y0017087D01*
X0325748Y0017114D01*
X0325825Y0017136D01*
X0325902Y0017155D01*
X0325980Y0017170D01*
X0326059Y0017181D01*
X0326138Y0017188D01*
X0326217Y0017191D01*
X0326297Y0017190D01*
X0326376Y0017185D01*
X0326455Y0017176D01*
X0326533Y0017163D01*
X0326611Y0017146D01*
X0326688Y0017125D01*
X0326763Y0017101D01*
X0326837Y0017073D01*
X0326910Y0017041D01*
X0326981Y0017005D01*
X0327050Y0016966D01*
X0327117Y0016923D01*
X0327182Y0016877D01*
X0327245Y0016828D01*
X0327305Y0016776D01*
X0327362Y0016721D01*
X0327416Y0016663D01*
X0327468Y0016602D01*
X0327516Y0016539D01*
X0327561Y0016474D01*
X0327603Y0016406D01*
X0327641Y0016337D01*
X0327676Y0016265D01*
X0327707Y0016192D01*
X0327734Y0016117D01*
X0327758Y0016042D01*
X0327778Y0015965D01*
X0327794Y0015887D01*
X0327806Y0015808D01*
X0327814Y0015729D01*
X0327818Y0015650D01*
X0327818Y0015570D01*
X0327814Y0015491D01*
X0327806Y0015412D01*
X0327794Y0015333D01*
X0327778Y0015255D01*
X0327758Y0015178D01*
X0327734Y0015103D01*
X0327707Y0015028D01*
X0327676Y0014955D01*
X0327641Y0014883D01*
X0327603Y0014814D01*
X0327561Y0014746D01*
X0327516Y0014681D01*
X0327468Y0014618D01*
X0327416Y0014557D01*
X0327362Y0014499D01*
X0327305Y0014444D01*
X0327245Y0014392D01*
X0327182Y0014343D01*
X0327117Y0014297D01*
X0327050Y0014254D01*
X0326981Y0014215D01*
X0326910Y0014179D01*
X0326837Y0014147D01*
X0326763Y0014119D01*
X0326688Y0014095D01*
X0326611Y0014074D01*
X0326533Y0014057D01*
X0326455Y0014044D01*
X0326376Y0014035D01*
X0326297Y0014030D01*
X0326217Y0014029D01*
X0326138Y0014032D01*
X0326059Y0014039D01*
X0325980Y0014050D01*
X0325902Y0014065D01*
X0325825Y0014084D01*
X0325748Y0014106D01*
X0325674Y0014133D01*
X0325600Y0014163D01*
X0325528Y0014197D01*
X0325458Y0014234D01*
X0325390Y0014275D01*
X0325324Y0014319D01*
X0325260Y0014367D01*
X0325199Y0014418D01*
X0325140Y0014471D01*
X0325085Y0014528D01*
X0325032Y0014587D01*
X0324982Y0014649D01*
X0324935Y0014713D01*
X0324892Y0014780D01*
X0324852Y0014848D01*
X0324815Y0014919D01*
X0324782Y0014991D01*
X0324753Y0015065D01*
X0324727Y0015140D01*
X0324706Y0015217D01*
X0324688Y0015294D01*
X0324674Y0015372D01*
X0324664Y0015451D01*
X0324658Y0015531D01*
X0324656Y0015610D01*
X0330100Y0028415D02*
X0330100Y0041115D01*
X0328141Y0041851D02*
X0328143Y0041928D01*
X0328149Y0042005D01*
X0328159Y0042082D01*
X0328173Y0042158D01*
X0328190Y0042233D01*
X0328212Y0042307D01*
X0328237Y0042380D01*
X0328267Y0042452D01*
X0328299Y0042522D01*
X0328336Y0042590D01*
X0328375Y0042656D01*
X0328418Y0042720D01*
X0328465Y0042782D01*
X0328514Y0042841D01*
X0328567Y0042898D01*
X0328622Y0042952D01*
X0328680Y0043003D01*
X0328741Y0043051D01*
X0328804Y0043096D01*
X0328869Y0043137D01*
X0328936Y0043175D01*
X0329005Y0043210D01*
X0329076Y0043240D01*
X0329148Y0043268D01*
X0329222Y0043291D01*
X0329296Y0043311D01*
X0329372Y0043327D01*
X0329448Y0043339D01*
X0329525Y0043347D01*
X0329602Y0043351D01*
X0329680Y0043351D01*
X0329757Y0043347D01*
X0329834Y0043339D01*
X0329910Y0043327D01*
X0329986Y0043311D01*
X0330060Y0043291D01*
X0330134Y0043268D01*
X0330206Y0043240D01*
X0330277Y0043210D01*
X0330346Y0043175D01*
X0330413Y0043137D01*
X0330478Y0043096D01*
X0330541Y0043051D01*
X0330602Y0043003D01*
X0330660Y0042952D01*
X0330715Y0042898D01*
X0330768Y0042841D01*
X0330817Y0042782D01*
X0330864Y0042720D01*
X0330907Y0042656D01*
X0330946Y0042590D01*
X0330983Y0042522D01*
X0331015Y0042452D01*
X0331045Y0042380D01*
X0331070Y0042307D01*
X0331092Y0042233D01*
X0331109Y0042158D01*
X0331123Y0042082D01*
X0331133Y0042005D01*
X0331139Y0041928D01*
X0331141Y0041851D01*
X0331139Y0041774D01*
X0331133Y0041697D01*
X0331123Y0041620D01*
X0331109Y0041544D01*
X0331092Y0041469D01*
X0331070Y0041395D01*
X0331045Y0041322D01*
X0331015Y0041250D01*
X0330983Y0041180D01*
X0330946Y0041112D01*
X0330907Y0041046D01*
X0330864Y0040982D01*
X0330817Y0040920D01*
X0330768Y0040861D01*
X0330715Y0040804D01*
X0330660Y0040750D01*
X0330602Y0040699D01*
X0330541Y0040651D01*
X0330478Y0040606D01*
X0330413Y0040565D01*
X0330346Y0040527D01*
X0330277Y0040492D01*
X0330206Y0040462D01*
X0330134Y0040434D01*
X0330060Y0040411D01*
X0329986Y0040391D01*
X0329910Y0040375D01*
X0329834Y0040363D01*
X0329757Y0040355D01*
X0329680Y0040351D01*
X0329602Y0040351D01*
X0329525Y0040355D01*
X0329448Y0040363D01*
X0329372Y0040375D01*
X0329296Y0040391D01*
X0329222Y0040411D01*
X0329148Y0040434D01*
X0329076Y0040462D01*
X0329005Y0040492D01*
X0328936Y0040527D01*
X0328869Y0040565D01*
X0328804Y0040606D01*
X0328741Y0040651D01*
X0328680Y0040699D01*
X0328622Y0040750D01*
X0328567Y0040804D01*
X0328514Y0040861D01*
X0328465Y0040920D01*
X0328418Y0040982D01*
X0328375Y0041046D01*
X0328336Y0041112D01*
X0328299Y0041180D01*
X0328267Y0041250D01*
X0328237Y0041322D01*
X0328212Y0041395D01*
X0328190Y0041469D01*
X0328173Y0041544D01*
X0328159Y0041620D01*
X0328149Y0041697D01*
X0328143Y0041774D01*
X0328141Y0041851D01*
X0330100Y0028415D02*
X0358500Y0028415D01*
X0355781Y0029179D02*
X0355783Y0029278D01*
X0355789Y0029378D01*
X0355799Y0029477D01*
X0355813Y0029575D01*
X0355830Y0029673D01*
X0355852Y0029770D01*
X0355877Y0029866D01*
X0355906Y0029961D01*
X0355939Y0030055D01*
X0355976Y0030147D01*
X0356016Y0030238D01*
X0356060Y0030327D01*
X0356108Y0030415D01*
X0356159Y0030500D01*
X0356213Y0030583D01*
X0356270Y0030665D01*
X0356331Y0030743D01*
X0356395Y0030820D01*
X0356461Y0030893D01*
X0356531Y0030964D01*
X0356603Y0031032D01*
X0356678Y0031098D01*
X0356756Y0031160D01*
X0356836Y0031219D01*
X0356918Y0031275D01*
X0357002Y0031327D01*
X0357089Y0031376D01*
X0357177Y0031422D01*
X0357267Y0031464D01*
X0357359Y0031503D01*
X0357452Y0031538D01*
X0357546Y0031569D01*
X0357642Y0031596D01*
X0357739Y0031619D01*
X0357836Y0031639D01*
X0357934Y0031655D01*
X0358033Y0031667D01*
X0358132Y0031675D01*
X0358231Y0031679D01*
X0358331Y0031679D01*
X0358430Y0031675D01*
X0358529Y0031667D01*
X0358628Y0031655D01*
X0358726Y0031639D01*
X0358823Y0031619D01*
X0358920Y0031596D01*
X0359016Y0031569D01*
X0359110Y0031538D01*
X0359203Y0031503D01*
X0359295Y0031464D01*
X0359385Y0031422D01*
X0359473Y0031376D01*
X0359560Y0031327D01*
X0359644Y0031275D01*
X0359726Y0031219D01*
X0359806Y0031160D01*
X0359884Y0031098D01*
X0359959Y0031032D01*
X0360031Y0030964D01*
X0360101Y0030893D01*
X0360167Y0030820D01*
X0360231Y0030743D01*
X0360292Y0030665D01*
X0360349Y0030583D01*
X0360403Y0030500D01*
X0360454Y0030415D01*
X0360502Y0030327D01*
X0360546Y0030238D01*
X0360586Y0030147D01*
X0360623Y0030055D01*
X0360656Y0029961D01*
X0360685Y0029866D01*
X0360710Y0029770D01*
X0360732Y0029673D01*
X0360749Y0029575D01*
X0360763Y0029477D01*
X0360773Y0029378D01*
X0360779Y0029278D01*
X0360781Y0029179D01*
X0360779Y0029080D01*
X0360773Y0028980D01*
X0360763Y0028881D01*
X0360749Y0028783D01*
X0360732Y0028685D01*
X0360710Y0028588D01*
X0360685Y0028492D01*
X0360656Y0028397D01*
X0360623Y0028303D01*
X0360586Y0028211D01*
X0360546Y0028120D01*
X0360502Y0028031D01*
X0360454Y0027943D01*
X0360403Y0027858D01*
X0360349Y0027775D01*
X0360292Y0027693D01*
X0360231Y0027615D01*
X0360167Y0027538D01*
X0360101Y0027465D01*
X0360031Y0027394D01*
X0359959Y0027326D01*
X0359884Y0027260D01*
X0359806Y0027198D01*
X0359726Y0027139D01*
X0359644Y0027083D01*
X0359560Y0027031D01*
X0359473Y0026982D01*
X0359385Y0026936D01*
X0359295Y0026894D01*
X0359203Y0026855D01*
X0359110Y0026820D01*
X0359016Y0026789D01*
X0358920Y0026762D01*
X0358823Y0026739D01*
X0358726Y0026719D01*
X0358628Y0026703D01*
X0358529Y0026691D01*
X0358430Y0026683D01*
X0358331Y0026679D01*
X0358231Y0026679D01*
X0358132Y0026683D01*
X0358033Y0026691D01*
X0357934Y0026703D01*
X0357836Y0026719D01*
X0357739Y0026739D01*
X0357642Y0026762D01*
X0357546Y0026789D01*
X0357452Y0026820D01*
X0357359Y0026855D01*
X0357267Y0026894D01*
X0357177Y0026936D01*
X0357089Y0026982D01*
X0357002Y0027031D01*
X0356918Y0027083D01*
X0356836Y0027139D01*
X0356756Y0027198D01*
X0356678Y0027260D01*
X0356603Y0027326D01*
X0356531Y0027394D01*
X0356461Y0027465D01*
X0356395Y0027538D01*
X0356331Y0027615D01*
X0356270Y0027693D01*
X0356213Y0027775D01*
X0356159Y0027858D01*
X0356108Y0027943D01*
X0356060Y0028031D01*
X0356016Y0028120D01*
X0355976Y0028211D01*
X0355939Y0028303D01*
X0355906Y0028397D01*
X0355877Y0028492D01*
X0355852Y0028588D01*
X0355830Y0028685D01*
X0355813Y0028783D01*
X0355799Y0028881D01*
X0355789Y0028980D01*
X0355783Y0029080D01*
X0355781Y0029179D01*
X0367877Y0029077D02*
X0401462Y0029635D01*
X0398032Y0014159D01*
X0395572Y0014602D01*
X0394659Y0014244D02*
X0394661Y0014343D01*
X0394667Y0014443D01*
X0394677Y0014542D01*
X0394691Y0014640D01*
X0394708Y0014738D01*
X0394730Y0014835D01*
X0394755Y0014931D01*
X0394784Y0015026D01*
X0394817Y0015120D01*
X0394854Y0015212D01*
X0394894Y0015303D01*
X0394938Y0015392D01*
X0394986Y0015480D01*
X0395037Y0015565D01*
X0395091Y0015648D01*
X0395148Y0015730D01*
X0395209Y0015808D01*
X0395273Y0015885D01*
X0395339Y0015958D01*
X0395409Y0016029D01*
X0395481Y0016097D01*
X0395556Y0016163D01*
X0395634Y0016225D01*
X0395714Y0016284D01*
X0395796Y0016340D01*
X0395880Y0016392D01*
X0395967Y0016441D01*
X0396055Y0016487D01*
X0396145Y0016529D01*
X0396237Y0016568D01*
X0396330Y0016603D01*
X0396424Y0016634D01*
X0396520Y0016661D01*
X0396617Y0016684D01*
X0396714Y0016704D01*
X0396812Y0016720D01*
X0396911Y0016732D01*
X0397010Y0016740D01*
X0397109Y0016744D01*
X0397209Y0016744D01*
X0397308Y0016740D01*
X0397407Y0016732D01*
X0397506Y0016720D01*
X0397604Y0016704D01*
X0397701Y0016684D01*
X0397798Y0016661D01*
X0397894Y0016634D01*
X0397988Y0016603D01*
X0398081Y0016568D01*
X0398173Y0016529D01*
X0398263Y0016487D01*
X0398351Y0016441D01*
X0398438Y0016392D01*
X0398522Y0016340D01*
X0398604Y0016284D01*
X0398684Y0016225D01*
X0398762Y0016163D01*
X0398837Y0016097D01*
X0398909Y0016029D01*
X0398979Y0015958D01*
X0399045Y0015885D01*
X0399109Y0015808D01*
X0399170Y0015730D01*
X0399227Y0015648D01*
X0399281Y0015565D01*
X0399332Y0015480D01*
X0399380Y0015392D01*
X0399424Y0015303D01*
X0399464Y0015212D01*
X0399501Y0015120D01*
X0399534Y0015026D01*
X0399563Y0014931D01*
X0399588Y0014835D01*
X0399610Y0014738D01*
X0399627Y0014640D01*
X0399641Y0014542D01*
X0399651Y0014443D01*
X0399657Y0014343D01*
X0399659Y0014244D01*
X0399657Y0014145D01*
X0399651Y0014045D01*
X0399641Y0013946D01*
X0399627Y0013848D01*
X0399610Y0013750D01*
X0399588Y0013653D01*
X0399563Y0013557D01*
X0399534Y0013462D01*
X0399501Y0013368D01*
X0399464Y0013276D01*
X0399424Y0013185D01*
X0399380Y0013096D01*
X0399332Y0013008D01*
X0399281Y0012923D01*
X0399227Y0012840D01*
X0399170Y0012758D01*
X0399109Y0012680D01*
X0399045Y0012603D01*
X0398979Y0012530D01*
X0398909Y0012459D01*
X0398837Y0012391D01*
X0398762Y0012325D01*
X0398684Y0012263D01*
X0398604Y0012204D01*
X0398522Y0012148D01*
X0398438Y0012096D01*
X0398351Y0012047D01*
X0398263Y0012001D01*
X0398173Y0011959D01*
X0398081Y0011920D01*
X0397988Y0011885D01*
X0397894Y0011854D01*
X0397798Y0011827D01*
X0397701Y0011804D01*
X0397604Y0011784D01*
X0397506Y0011768D01*
X0397407Y0011756D01*
X0397308Y0011748D01*
X0397209Y0011744D01*
X0397109Y0011744D01*
X0397010Y0011748D01*
X0396911Y0011756D01*
X0396812Y0011768D01*
X0396714Y0011784D01*
X0396617Y0011804D01*
X0396520Y0011827D01*
X0396424Y0011854D01*
X0396330Y0011885D01*
X0396237Y0011920D01*
X0396145Y0011959D01*
X0396055Y0012001D01*
X0395967Y0012047D01*
X0395880Y0012096D01*
X0395796Y0012148D01*
X0395714Y0012204D01*
X0395634Y0012263D01*
X0395556Y0012325D01*
X0395481Y0012391D01*
X0395409Y0012459D01*
X0395339Y0012530D01*
X0395273Y0012603D01*
X0395209Y0012680D01*
X0395148Y0012758D01*
X0395091Y0012840D01*
X0395037Y0012923D01*
X0394986Y0013008D01*
X0394938Y0013096D01*
X0394894Y0013185D01*
X0394854Y0013276D01*
X0394817Y0013368D01*
X0394784Y0013462D01*
X0394755Y0013557D01*
X0394730Y0013653D01*
X0394708Y0013750D01*
X0394691Y0013848D01*
X0394677Y0013946D01*
X0394667Y0014045D01*
X0394661Y0014145D01*
X0394659Y0014244D01*
X0387744Y0014650D02*
X0364488Y0015278D01*
X0364057Y0015593D02*
X0364059Y0015678D01*
X0364065Y0015762D01*
X0364075Y0015846D01*
X0364089Y0015929D01*
X0364106Y0016012D01*
X0364128Y0016094D01*
X0364153Y0016174D01*
X0364182Y0016254D01*
X0364215Y0016331D01*
X0364252Y0016408D01*
X0364292Y0016482D01*
X0364335Y0016555D01*
X0364382Y0016625D01*
X0364432Y0016693D01*
X0364485Y0016759D01*
X0364541Y0016822D01*
X0364600Y0016883D01*
X0364662Y0016940D01*
X0364726Y0016995D01*
X0364793Y0017047D01*
X0364863Y0017095D01*
X0364934Y0017140D01*
X0365008Y0017182D01*
X0365083Y0017220D01*
X0365160Y0017255D01*
X0365239Y0017286D01*
X0365319Y0017313D01*
X0365400Y0017336D01*
X0365482Y0017356D01*
X0365565Y0017372D01*
X0365649Y0017384D01*
X0365733Y0017392D01*
X0365818Y0017396D01*
X0365902Y0017396D01*
X0365987Y0017392D01*
X0366071Y0017384D01*
X0366155Y0017372D01*
X0366238Y0017356D01*
X0366320Y0017336D01*
X0366401Y0017313D01*
X0366481Y0017286D01*
X0366560Y0017255D01*
X0366637Y0017220D01*
X0366712Y0017182D01*
X0366786Y0017140D01*
X0366857Y0017095D01*
X0366927Y0017047D01*
X0366994Y0016995D01*
X0367058Y0016940D01*
X0367120Y0016883D01*
X0367179Y0016822D01*
X0367235Y0016759D01*
X0367288Y0016693D01*
X0367338Y0016625D01*
X0367385Y0016555D01*
X0367428Y0016482D01*
X0367468Y0016408D01*
X0367505Y0016331D01*
X0367538Y0016254D01*
X0367567Y0016174D01*
X0367592Y0016094D01*
X0367614Y0016012D01*
X0367631Y0015929D01*
X0367645Y0015846D01*
X0367655Y0015762D01*
X0367661Y0015678D01*
X0367663Y0015593D01*
X0367661Y0015508D01*
X0367655Y0015424D01*
X0367645Y0015340D01*
X0367631Y0015257D01*
X0367614Y0015174D01*
X0367592Y0015092D01*
X0367567Y0015012D01*
X0367538Y0014932D01*
X0367505Y0014855D01*
X0367468Y0014778D01*
X0367428Y0014704D01*
X0367385Y0014631D01*
X0367338Y0014561D01*
X0367288Y0014493D01*
X0367235Y0014427D01*
X0367179Y0014364D01*
X0367120Y0014303D01*
X0367058Y0014246D01*
X0366994Y0014191D01*
X0366927Y0014139D01*
X0366857Y0014091D01*
X0366786Y0014046D01*
X0366712Y0014004D01*
X0366637Y0013966D01*
X0366560Y0013931D01*
X0366481Y0013900D01*
X0366401Y0013873D01*
X0366320Y0013850D01*
X0366238Y0013830D01*
X0366155Y0013814D01*
X0366071Y0013802D01*
X0365987Y0013794D01*
X0365902Y0013790D01*
X0365818Y0013790D01*
X0365733Y0013794D01*
X0365649Y0013802D01*
X0365565Y0013814D01*
X0365482Y0013830D01*
X0365400Y0013850D01*
X0365319Y0013873D01*
X0365239Y0013900D01*
X0365160Y0013931D01*
X0365083Y0013966D01*
X0365008Y0014004D01*
X0364934Y0014046D01*
X0364863Y0014091D01*
X0364793Y0014139D01*
X0364726Y0014191D01*
X0364662Y0014246D01*
X0364600Y0014303D01*
X0364541Y0014364D01*
X0364485Y0014427D01*
X0364432Y0014493D01*
X0364382Y0014561D01*
X0364335Y0014631D01*
X0364292Y0014704D01*
X0364252Y0014778D01*
X0364215Y0014855D01*
X0364182Y0014932D01*
X0364153Y0015012D01*
X0364128Y0015092D01*
X0364106Y0015174D01*
X0364089Y0015257D01*
X0364075Y0015340D01*
X0364065Y0015424D01*
X0364059Y0015508D01*
X0364057Y0015593D01*
X0367577Y0028977D02*
X0367579Y0029076D01*
X0367585Y0029176D01*
X0367595Y0029275D01*
X0367609Y0029373D01*
X0367626Y0029471D01*
X0367648Y0029568D01*
X0367673Y0029664D01*
X0367702Y0029759D01*
X0367735Y0029853D01*
X0367772Y0029945D01*
X0367812Y0030036D01*
X0367856Y0030125D01*
X0367904Y0030213D01*
X0367955Y0030298D01*
X0368009Y0030381D01*
X0368066Y0030463D01*
X0368127Y0030541D01*
X0368191Y0030618D01*
X0368257Y0030691D01*
X0368327Y0030762D01*
X0368399Y0030830D01*
X0368474Y0030896D01*
X0368552Y0030958D01*
X0368632Y0031017D01*
X0368714Y0031073D01*
X0368798Y0031125D01*
X0368885Y0031174D01*
X0368973Y0031220D01*
X0369063Y0031262D01*
X0369155Y0031301D01*
X0369248Y0031336D01*
X0369342Y0031367D01*
X0369438Y0031394D01*
X0369535Y0031417D01*
X0369632Y0031437D01*
X0369730Y0031453D01*
X0369829Y0031465D01*
X0369928Y0031473D01*
X0370027Y0031477D01*
X0370127Y0031477D01*
X0370226Y0031473D01*
X0370325Y0031465D01*
X0370424Y0031453D01*
X0370522Y0031437D01*
X0370619Y0031417D01*
X0370716Y0031394D01*
X0370812Y0031367D01*
X0370906Y0031336D01*
X0370999Y0031301D01*
X0371091Y0031262D01*
X0371181Y0031220D01*
X0371269Y0031174D01*
X0371356Y0031125D01*
X0371440Y0031073D01*
X0371522Y0031017D01*
X0371602Y0030958D01*
X0371680Y0030896D01*
X0371755Y0030830D01*
X0371827Y0030762D01*
X0371897Y0030691D01*
X0371963Y0030618D01*
X0372027Y0030541D01*
X0372088Y0030463D01*
X0372145Y0030381D01*
X0372199Y0030298D01*
X0372250Y0030213D01*
X0372298Y0030125D01*
X0372342Y0030036D01*
X0372382Y0029945D01*
X0372419Y0029853D01*
X0372452Y0029759D01*
X0372481Y0029664D01*
X0372506Y0029568D01*
X0372528Y0029471D01*
X0372545Y0029373D01*
X0372559Y0029275D01*
X0372569Y0029176D01*
X0372575Y0029076D01*
X0372577Y0028977D01*
X0372575Y0028878D01*
X0372569Y0028778D01*
X0372559Y0028679D01*
X0372545Y0028581D01*
X0372528Y0028483D01*
X0372506Y0028386D01*
X0372481Y0028290D01*
X0372452Y0028195D01*
X0372419Y0028101D01*
X0372382Y0028009D01*
X0372342Y0027918D01*
X0372298Y0027829D01*
X0372250Y0027741D01*
X0372199Y0027656D01*
X0372145Y0027573D01*
X0372088Y0027491D01*
X0372027Y0027413D01*
X0371963Y0027336D01*
X0371897Y0027263D01*
X0371827Y0027192D01*
X0371755Y0027124D01*
X0371680Y0027058D01*
X0371602Y0026996D01*
X0371522Y0026937D01*
X0371440Y0026881D01*
X0371356Y0026829D01*
X0371269Y0026780D01*
X0371181Y0026734D01*
X0371091Y0026692D01*
X0370999Y0026653D01*
X0370906Y0026618D01*
X0370812Y0026587D01*
X0370716Y0026560D01*
X0370619Y0026537D01*
X0370522Y0026517D01*
X0370424Y0026501D01*
X0370325Y0026489D01*
X0370226Y0026481D01*
X0370127Y0026477D01*
X0370027Y0026477D01*
X0369928Y0026481D01*
X0369829Y0026489D01*
X0369730Y0026501D01*
X0369632Y0026517D01*
X0369535Y0026537D01*
X0369438Y0026560D01*
X0369342Y0026587D01*
X0369248Y0026618D01*
X0369155Y0026653D01*
X0369063Y0026692D01*
X0368973Y0026734D01*
X0368885Y0026780D01*
X0368798Y0026829D01*
X0368714Y0026881D01*
X0368632Y0026937D01*
X0368552Y0026996D01*
X0368474Y0027058D01*
X0368399Y0027124D01*
X0368327Y0027192D01*
X0368257Y0027263D01*
X0368191Y0027336D01*
X0368127Y0027413D01*
X0368066Y0027491D01*
X0368009Y0027573D01*
X0367955Y0027656D01*
X0367904Y0027741D01*
X0367856Y0027829D01*
X0367812Y0027918D01*
X0367772Y0028009D01*
X0367735Y0028101D01*
X0367702Y0028195D01*
X0367673Y0028290D01*
X0367648Y0028386D01*
X0367626Y0028483D01*
X0367609Y0028581D01*
X0367595Y0028679D01*
X0367585Y0028778D01*
X0367579Y0028878D01*
X0367577Y0028977D01*
X0384242Y0014647D02*
X0384244Y0014739D01*
X0384250Y0014831D01*
X0384260Y0014922D01*
X0384274Y0015013D01*
X0384292Y0015103D01*
X0384313Y0015192D01*
X0384339Y0015281D01*
X0384368Y0015368D01*
X0384401Y0015453D01*
X0384438Y0015538D01*
X0384478Y0015620D01*
X0384522Y0015701D01*
X0384570Y0015780D01*
X0384620Y0015856D01*
X0384674Y0015931D01*
X0384732Y0016003D01*
X0384792Y0016072D01*
X0384855Y0016139D01*
X0384921Y0016203D01*
X0384990Y0016264D01*
X0385061Y0016322D01*
X0385135Y0016376D01*
X0385211Y0016428D01*
X0385289Y0016476D01*
X0385370Y0016521D01*
X0385452Y0016562D01*
X0385535Y0016600D01*
X0385621Y0016634D01*
X0385708Y0016664D01*
X0385796Y0016691D01*
X0385885Y0016713D01*
X0385975Y0016732D01*
X0386065Y0016747D01*
X0386157Y0016758D01*
X0386248Y0016765D01*
X0386340Y0016768D01*
X0386432Y0016767D01*
X0386524Y0016762D01*
X0386615Y0016753D01*
X0386706Y0016740D01*
X0386796Y0016723D01*
X0386886Y0016703D01*
X0386975Y0016678D01*
X0387062Y0016650D01*
X0387148Y0016617D01*
X0387233Y0016582D01*
X0387316Y0016542D01*
X0387397Y0016499D01*
X0387476Y0016452D01*
X0387553Y0016403D01*
X0387628Y0016349D01*
X0387701Y0016293D01*
X0387771Y0016233D01*
X0387838Y0016171D01*
X0387903Y0016106D01*
X0387965Y0016038D01*
X0388023Y0015967D01*
X0388079Y0015894D01*
X0388131Y0015818D01*
X0388180Y0015740D01*
X0388226Y0015661D01*
X0388268Y0015579D01*
X0388307Y0015496D01*
X0388342Y0015411D01*
X0388373Y0015324D01*
X0388400Y0015237D01*
X0388424Y0015148D01*
X0388444Y0015058D01*
X0388460Y0014967D01*
X0388472Y0014876D01*
X0388480Y0014785D01*
X0388484Y0014693D01*
X0388484Y0014601D01*
X0388480Y0014509D01*
X0388472Y0014418D01*
X0388460Y0014327D01*
X0388444Y0014236D01*
X0388424Y0014146D01*
X0388400Y0014057D01*
X0388373Y0013970D01*
X0388342Y0013883D01*
X0388307Y0013798D01*
X0388268Y0013715D01*
X0388226Y0013633D01*
X0388180Y0013554D01*
X0388131Y0013476D01*
X0388079Y0013400D01*
X0388023Y0013327D01*
X0387965Y0013256D01*
X0387903Y0013188D01*
X0387838Y0013123D01*
X0387771Y0013061D01*
X0387701Y0013001D01*
X0387628Y0012945D01*
X0387553Y0012891D01*
X0387476Y0012842D01*
X0387397Y0012795D01*
X0387316Y0012752D01*
X0387233Y0012712D01*
X0387148Y0012677D01*
X0387062Y0012644D01*
X0386975Y0012616D01*
X0386886Y0012591D01*
X0386796Y0012571D01*
X0386706Y0012554D01*
X0386615Y0012541D01*
X0386524Y0012532D01*
X0386432Y0012527D01*
X0386340Y0012526D01*
X0386248Y0012529D01*
X0386157Y0012536D01*
X0386065Y0012547D01*
X0385975Y0012562D01*
X0385885Y0012581D01*
X0385796Y0012603D01*
X0385708Y0012630D01*
X0385621Y0012660D01*
X0385535Y0012694D01*
X0385452Y0012732D01*
X0385370Y0012773D01*
X0385289Y0012818D01*
X0385211Y0012866D01*
X0385135Y0012918D01*
X0385061Y0012972D01*
X0384990Y0013030D01*
X0384921Y0013091D01*
X0384855Y0013155D01*
X0384792Y0013222D01*
X0384732Y0013291D01*
X0384674Y0013363D01*
X0384620Y0013438D01*
X0384570Y0013514D01*
X0384522Y0013593D01*
X0384478Y0013674D01*
X0384438Y0013756D01*
X0384401Y0013841D01*
X0384368Y0013926D01*
X0384339Y0014013D01*
X0384313Y0014102D01*
X0384292Y0014191D01*
X0384274Y0014281D01*
X0384260Y0014372D01*
X0384250Y0014463D01*
X0384244Y0014555D01*
X0384242Y0014647D01*
X0401462Y0029635D02*
X0415727Y0105876D01*
X0330377Y0124267D02*
X0330593Y0083846D01*
X0328165Y0081966D02*
X0328167Y0082045D01*
X0328173Y0082125D01*
X0328183Y0082204D01*
X0328197Y0082282D01*
X0328215Y0082359D01*
X0328236Y0082436D01*
X0328262Y0082511D01*
X0328291Y0082585D01*
X0328324Y0082657D01*
X0328361Y0082728D01*
X0328401Y0082796D01*
X0328444Y0082863D01*
X0328491Y0082927D01*
X0328541Y0082989D01*
X0328594Y0083048D01*
X0328649Y0083105D01*
X0328708Y0083158D01*
X0328769Y0083209D01*
X0328833Y0083257D01*
X0328899Y0083301D01*
X0328967Y0083342D01*
X0329037Y0083379D01*
X0329109Y0083413D01*
X0329183Y0083443D01*
X0329257Y0083470D01*
X0329334Y0083492D01*
X0329411Y0083511D01*
X0329489Y0083526D01*
X0329568Y0083537D01*
X0329647Y0083544D01*
X0329726Y0083547D01*
X0329806Y0083546D01*
X0329885Y0083541D01*
X0329964Y0083532D01*
X0330042Y0083519D01*
X0330120Y0083502D01*
X0330197Y0083481D01*
X0330272Y0083457D01*
X0330346Y0083429D01*
X0330419Y0083397D01*
X0330490Y0083361D01*
X0330559Y0083322D01*
X0330626Y0083279D01*
X0330691Y0083233D01*
X0330754Y0083184D01*
X0330814Y0083132D01*
X0330871Y0083077D01*
X0330925Y0083019D01*
X0330977Y0082958D01*
X0331025Y0082895D01*
X0331070Y0082830D01*
X0331112Y0082762D01*
X0331150Y0082693D01*
X0331185Y0082621D01*
X0331216Y0082548D01*
X0331243Y0082473D01*
X0331267Y0082398D01*
X0331287Y0082321D01*
X0331303Y0082243D01*
X0331315Y0082164D01*
X0331323Y0082085D01*
X0331327Y0082006D01*
X0331327Y0081926D01*
X0331323Y0081847D01*
X0331315Y0081768D01*
X0331303Y0081689D01*
X0331287Y0081611D01*
X0331267Y0081534D01*
X0331243Y0081459D01*
X0331216Y0081384D01*
X0331185Y0081311D01*
X0331150Y0081239D01*
X0331112Y0081170D01*
X0331070Y0081102D01*
X0331025Y0081037D01*
X0330977Y0080974D01*
X0330925Y0080913D01*
X0330871Y0080855D01*
X0330814Y0080800D01*
X0330754Y0080748D01*
X0330691Y0080699D01*
X0330626Y0080653D01*
X0330559Y0080610D01*
X0330490Y0080571D01*
X0330419Y0080535D01*
X0330346Y0080503D01*
X0330272Y0080475D01*
X0330197Y0080451D01*
X0330120Y0080430D01*
X0330042Y0080413D01*
X0329964Y0080400D01*
X0329885Y0080391D01*
X0329806Y0080386D01*
X0329726Y0080385D01*
X0329647Y0080388D01*
X0329568Y0080395D01*
X0329489Y0080406D01*
X0329411Y0080421D01*
X0329334Y0080440D01*
X0329257Y0080462D01*
X0329183Y0080489D01*
X0329109Y0080519D01*
X0329037Y0080553D01*
X0328967Y0080590D01*
X0328899Y0080631D01*
X0328833Y0080675D01*
X0328769Y0080723D01*
X0328708Y0080774D01*
X0328649Y0080827D01*
X0328594Y0080884D01*
X0328541Y0080943D01*
X0328491Y0081005D01*
X0328444Y0081069D01*
X0328401Y0081136D01*
X0328361Y0081204D01*
X0328324Y0081275D01*
X0328291Y0081347D01*
X0328262Y0081421D01*
X0328236Y0081496D01*
X0328215Y0081573D01*
X0328197Y0081650D01*
X0328183Y0081728D01*
X0328173Y0081807D01*
X0328167Y0081887D01*
X0328165Y0081966D01*
X0293500Y0055715D02*
X0257500Y0055715D01*
X0208000Y0040215D02*
X0197000Y0040215D01*
X0181000Y0056215D02*
X0165500Y0056215D01*
X0151000Y0067215D02*
X0141000Y0067215D01*
X0136000Y0072215D01*
X0136000Y0092215D01*
X0141000Y0097215D01*
X0151000Y0097215D01*
X0156000Y0092215D01*
X0156000Y0072215D01*
X0151000Y0067215D01*
X0131000Y0067215D02*
X0126000Y0072215D01*
X0126000Y0107215D01*
X0121000Y0112215D01*
X0111000Y0107215D02*
X0111000Y0072215D01*
X0116000Y0067215D01*
X0123000Y0055215D02*
X0016500Y0055215D01*
X0051000Y0067215D02*
X0051000Y0092215D01*
X0066000Y0092215D01*
X0071000Y0087215D01*
X0071000Y0067215D01*
X0081000Y0072215D02*
X0086000Y0067215D01*
X0096000Y0067215D01*
X0101000Y0072215D01*
X0101000Y0082215D02*
X0101000Y0092215D01*
X0096000Y0097215D01*
X0086000Y0097215D01*
X0081000Y0092215D01*
X0081000Y0082215D01*
X0081000Y0072215D01*
X0081000Y0082215D02*
X0082500Y0082215D01*
X0101000Y0082215D01*
X0111000Y0107215D02*
X0106000Y0112215D01*
X0051000Y0107215D02*
X0051000Y0092215D01*
X0051000Y0107215D02*
X0046000Y0112215D01*
D13*
G36*
X0322086Y0138211D02*
X0352595Y0132721D01*
X0349318Y0114515D01*
X0318809Y0120005D01*
X0322086Y0138211D01*
G37*
G36*
X0342755Y0134493D02*
X0373264Y0129003D01*
X0369987Y0110797D01*
X0339478Y0116287D01*
X0342755Y0134493D01*
G37*
G36*
X0379662Y0127852D02*
X0410171Y0122362D01*
X0406894Y0104156D01*
X0376385Y0109646D01*
X0379662Y0127852D01*
G37*
G36*
X0391472Y0125727D02*
X0421981Y0120237D01*
X0418704Y0102031D01*
X0388195Y0107521D01*
X0391472Y0125727D01*
G37*
D14*
X0028500Y0149715D03*
D15*
X0119500Y0149715D03*
D16*
G36*
X0421490Y0120326D02*
X0427394Y0119263D01*
X0424118Y0101056D01*
X0418214Y0102119D01*
X0421490Y0120326D01*
G37*
D17*
X0299500Y0095715D02*
X0262500Y0101715D01*
X0175500Y0091715D02*
X0154500Y0071215D01*
X0136500Y0092215D02*
X0126500Y0092215D01*
X0110500Y0081715D02*
X0101000Y0072215D01*
X0082500Y0082215D02*
X0072000Y0082215D01*
X0046000Y0112215D02*
X0025000Y0112215D01*
X0054829Y0179509D02*
X0058076Y0178083D01*
X0061469Y0177050D01*
X0064960Y0176425D01*
X0068500Y0176215D01*
X0069000Y0176215D01*
X0072538Y0176484D01*
X0076020Y0177168D01*
X0079397Y0178259D01*
X0082049Y0179477D01*
X0078801Y0186933D01*
X0077337Y0186087D01*
X0071844Y0184615D01*
X0066156Y0184615D01*
X0060663Y0186087D01*
X0055737Y0188931D01*
X0051716Y0192953D01*
X0048872Y0197878D01*
X0047400Y0203372D01*
X0047400Y0209059D01*
X0048872Y0214553D01*
X0051716Y0219478D01*
X0055737Y0223500D01*
X0060663Y0226343D01*
X0066156Y0227815D01*
X0071844Y0227815D01*
X0077337Y0226343D01*
X0082263Y0223500D01*
X0086284Y0219478D01*
X0089128Y0214553D01*
X0090600Y0209059D01*
X0090600Y0203372D01*
X0089128Y0197878D01*
X0086284Y0192953D01*
X0083956Y0190624D01*
X0087318Y0182906D01*
X0088436Y0183787D01*
X0090945Y0186296D01*
X0093141Y0189083D01*
X0094992Y0192111D01*
X0096473Y0195335D01*
X0097564Y0198712D01*
X0098248Y0202194D01*
X0098517Y0205732D01*
X0098366Y0209277D01*
X0097798Y0212780D01*
X0096821Y0216191D01*
X0095448Y0219463D01*
X0093699Y0222550D01*
X0091597Y0225409D01*
X0089173Y0228001D01*
X0086460Y0230288D01*
X0083496Y0232239D01*
X0080323Y0233827D01*
X0076984Y0235029D01*
X0073527Y0235829D01*
X0070000Y0236215D01*
X0066454Y0236183D01*
X0062936Y0235733D01*
X0059496Y0234871D01*
X0056182Y0233609D01*
X0053039Y0231965D01*
X0050113Y0229963D01*
X0047443Y0227629D01*
X0045067Y0224996D01*
X0043018Y0222102D01*
X0041324Y0218986D01*
X0040010Y0215692D01*
X0039093Y0212266D01*
X0038587Y0208756D01*
X0038499Y0205211D01*
X0038829Y0201680D01*
X0039573Y0198212D01*
X0040721Y0194857D01*
X0042257Y0191660D01*
X0044158Y0188667D01*
X0046400Y0185919D01*
X0048950Y0183454D01*
X0051773Y0181308D01*
X0054829Y0179509D01*
X0054062Y0179961D02*
X0081839Y0179961D01*
X0081142Y0181559D02*
X0051442Y0181559D01*
X0049340Y0183158D02*
X0080446Y0183158D01*
X0079749Y0184756D02*
X0072369Y0184756D01*
X0077800Y0186355D02*
X0079053Y0186355D01*
X0084423Y0189552D02*
X0093427Y0189552D01*
X0094405Y0191150D02*
X0084482Y0191150D01*
X0086080Y0192749D02*
X0095285Y0192749D01*
X0096019Y0194347D02*
X0087089Y0194347D01*
X0088012Y0195946D02*
X0096670Y0195946D01*
X0097187Y0197544D02*
X0088935Y0197544D01*
X0089467Y0199143D02*
X0097648Y0199143D01*
X0097962Y0200741D02*
X0089895Y0200741D01*
X0090323Y0202340D02*
X0098259Y0202340D01*
X0098380Y0203938D02*
X0090600Y0203938D01*
X0090600Y0205537D02*
X0098502Y0205537D01*
X0098457Y0207135D02*
X0090600Y0207135D01*
X0090600Y0208734D02*
X0098389Y0208734D01*
X0098195Y0210332D02*
X0090259Y0210332D01*
X0089831Y0211931D02*
X0097936Y0211931D01*
X0097583Y0213529D02*
X0089402Y0213529D01*
X0088796Y0215128D02*
X0097125Y0215128D01*
X0096596Y0216726D02*
X0087873Y0216726D01*
X0086950Y0218325D02*
X0095925Y0218325D01*
X0095187Y0219923D02*
X0085839Y0219923D01*
X0084241Y0221522D02*
X0094281Y0221522D01*
X0093279Y0223120D02*
X0082642Y0223120D01*
X0080151Y0224719D02*
X0092105Y0224719D01*
X0090748Y0226317D02*
X0077382Y0226317D01*
X0078981Y0234310D02*
X0058023Y0234310D01*
X0054466Y0232712D02*
X0082552Y0232712D01*
X0085207Y0231113D02*
X0051794Y0231113D01*
X0049600Y0229515D02*
X0087378Y0229515D01*
X0089252Y0227916D02*
X0047772Y0227916D01*
X0046259Y0226317D02*
X0060618Y0226317D01*
X0057849Y0224719D02*
X0044871Y0224719D01*
X0043739Y0223120D02*
X0055358Y0223120D01*
X0053759Y0221522D02*
X0042703Y0221522D01*
X0041834Y0219923D02*
X0052161Y0219923D01*
X0051050Y0218325D02*
X0041061Y0218325D01*
X0040423Y0216726D02*
X0050127Y0216726D01*
X0049204Y0215128D02*
X0039859Y0215128D01*
X0039431Y0213529D02*
X0048598Y0213529D01*
X0048169Y0211931D02*
X0039045Y0211931D01*
X0038815Y0210332D02*
X0047741Y0210332D01*
X0047400Y0208734D02*
X0038587Y0208734D01*
X0038547Y0207135D02*
X0047400Y0207135D01*
X0047400Y0205537D02*
X0038507Y0205537D01*
X0038618Y0203938D02*
X0047400Y0203938D01*
X0047677Y0202340D02*
X0038767Y0202340D01*
X0039030Y0200741D02*
X0048105Y0200741D01*
X0048533Y0199143D02*
X0039373Y0199143D01*
X0039801Y0197544D02*
X0049065Y0197544D01*
X0049988Y0195946D02*
X0040348Y0195946D01*
X0040966Y0194347D02*
X0050911Y0194347D01*
X0051920Y0192749D02*
X0041734Y0192749D01*
X0042580Y0191150D02*
X0053518Y0191150D01*
X0055117Y0189552D02*
X0043596Y0189552D01*
X0044741Y0187953D02*
X0057431Y0187953D01*
X0060200Y0186355D02*
X0046044Y0186355D01*
X0047603Y0184756D02*
X0065631Y0184756D01*
X0063070Y0176764D02*
X0073960Y0176764D01*
X0079622Y0178362D02*
X0057441Y0178362D01*
X0085119Y0187953D02*
X0092251Y0187953D01*
X0090992Y0186355D02*
X0085816Y0186355D01*
X0086512Y0184756D02*
X0089406Y0184756D01*
X0087637Y0183158D02*
X0087209Y0183158D01*
X0072802Y0235909D02*
X0064309Y0235909D01*
X0068378Y0371215D02*
X0077586Y0371215D01*
X0080655Y0374285D01*
X0077586Y0377354D01*
X0071447Y0377354D01*
X0068378Y0380423D01*
X0071447Y0383493D01*
X0080655Y0383493D01*
X0086794Y0383493D02*
X0089863Y0383493D01*
X0089863Y0371215D01*
X0086794Y0371215D02*
X0092932Y0371215D01*
X0099071Y0374285D02*
X0102140Y0371215D01*
X0108279Y0371215D01*
X0111348Y0374285D01*
X0111348Y0380423D01*
X0108279Y0383493D01*
X0102140Y0383493D01*
X0099071Y0380423D01*
X0099071Y0374285D01*
X0089863Y0389631D02*
X0089863Y0392701D01*
X0062239Y0383493D02*
X0059170Y0383493D01*
X0053031Y0377354D01*
X0046893Y0377354D02*
X0034616Y0377354D01*
X0034616Y0374285D02*
X0034616Y0380423D01*
X0037685Y0383493D01*
X0043824Y0383493D01*
X0046893Y0380423D01*
X0046893Y0377354D01*
X0053031Y0371215D02*
X0053031Y0383493D01*
X0043824Y0371215D02*
X0037685Y0371215D01*
X0034616Y0374285D01*
X0028477Y0377354D02*
X0028477Y0389631D01*
X0016200Y0389631D02*
X0016200Y0377354D01*
X0022339Y0371215D01*
X0028477Y0377354D01*
X0117487Y0371215D02*
X0117487Y0383493D01*
X0126694Y0383493D01*
X0129764Y0380423D01*
X0129764Y0371215D01*
X0154318Y0380423D02*
X0166595Y0380423D01*
X0172734Y0374285D02*
X0175803Y0374285D01*
X0175803Y0371215D01*
X0172734Y0371215D01*
X0172734Y0374285D01*
X0163526Y0371215D02*
X0163526Y0389631D01*
X0154318Y0380423D01*
X0181942Y0380423D02*
X0194219Y0380423D01*
X0191149Y0371215D02*
X0191149Y0389631D01*
X0181942Y0380423D01*
D18*
X0234000Y0239965D03*
D19*
X0245000Y0239965D03*
D20*
X0069000Y0248215D03*
X0069000Y0164215D03*
D21*
X0069000Y0206215D03*
D22*
X0357103Y0029437D02*
X0356443Y0030097D01*
X0357996Y0031638D01*
X0360181Y0031631D01*
X0361722Y0030078D01*
X0361715Y0027893D01*
X0360162Y0026352D01*
X0357977Y0026359D01*
X0356436Y0027912D01*
X0356443Y0030097D01*
X0357432Y0029683D01*
X0358402Y0030647D01*
X0359767Y0030642D01*
X0360731Y0029672D01*
X0360726Y0028307D01*
X0359756Y0027343D01*
X0358391Y0027348D01*
X0357427Y0028318D01*
X0357432Y0029683D01*
X0358420Y0029270D01*
X0358809Y0029655D01*
X0359354Y0029654D01*
X0359739Y0029265D01*
X0359738Y0028720D01*
X0359349Y0028335D01*
X0358804Y0028336D01*
X0358419Y0028725D01*
X0358420Y0029270D01*
X0367103Y0029402D02*
X0366443Y0030062D01*
X0367996Y0031603D01*
X0370181Y0031596D01*
X0371722Y0030043D01*
X0371715Y0027858D01*
X0370162Y0026317D01*
X0367977Y0026324D01*
X0366436Y0027877D01*
X0366443Y0030062D01*
X0367432Y0029648D01*
X0368402Y0030612D01*
X0369767Y0030607D01*
X0370731Y0029637D01*
X0370726Y0028272D01*
X0369756Y0027308D01*
X0368391Y0027313D01*
X0367427Y0028283D01*
X0367432Y0029648D01*
X0368420Y0029235D01*
X0368809Y0029620D01*
X0369354Y0029619D01*
X0369739Y0029230D01*
X0369738Y0028685D01*
X0369349Y0028300D01*
X0368804Y0028301D01*
X0368419Y0028690D01*
X0368420Y0029235D01*
X0384885Y0014505D02*
X0384225Y0015165D01*
X0385778Y0016706D01*
X0387963Y0016699D01*
X0389504Y0015146D01*
X0389497Y0012961D01*
X0387944Y0011420D01*
X0385759Y0011427D01*
X0384218Y0012980D01*
X0384225Y0015165D01*
X0385214Y0014751D01*
X0386184Y0015715D01*
X0387549Y0015710D01*
X0388513Y0014740D01*
X0388508Y0013375D01*
X0387538Y0012411D01*
X0386173Y0012416D01*
X0385209Y0013386D01*
X0385214Y0014751D01*
X0386202Y0014338D01*
X0386591Y0014723D01*
X0387136Y0014722D01*
X0387521Y0014333D01*
X0387520Y0013788D01*
X0387131Y0013403D01*
X0386586Y0013404D01*
X0386201Y0013793D01*
X0386202Y0014338D01*
X0394885Y0014470D02*
X0394225Y0015130D01*
X0395778Y0016671D01*
X0397963Y0016664D01*
X0399504Y0015111D01*
X0399497Y0012926D01*
X0397944Y0011385D01*
X0395759Y0011392D01*
X0394218Y0012945D01*
X0394225Y0015130D01*
X0395214Y0014716D01*
X0396184Y0015680D01*
X0397549Y0015675D01*
X0398513Y0014705D01*
X0398508Y0013340D01*
X0397538Y0012376D01*
X0396173Y0012381D01*
X0395209Y0013351D01*
X0395214Y0014716D01*
X0396202Y0014303D01*
X0396591Y0014688D01*
X0397136Y0014687D01*
X0397521Y0014298D01*
X0397520Y0013753D01*
X0397131Y0013368D01*
X0396586Y0013369D01*
X0396201Y0013758D01*
X0396202Y0014303D01*
D23*
X0364493Y0015980D02*
X0363973Y0016500D01*
X0365196Y0017714D01*
X0366917Y0017708D01*
X0368131Y0016485D01*
X0368125Y0014764D01*
X0366902Y0013550D01*
X0365181Y0013556D01*
X0363967Y0014779D01*
X0363973Y0016500D01*
X0364751Y0016174D01*
X0365516Y0016933D01*
X0366591Y0016930D01*
X0367350Y0016165D01*
X0367347Y0015090D01*
X0366582Y0014331D01*
X0365507Y0014334D01*
X0364748Y0015099D01*
X0364751Y0016174D01*
X0365530Y0015848D01*
X0365836Y0016152D01*
X0366265Y0016151D01*
X0366569Y0015845D01*
X0366568Y0015416D01*
X0366262Y0015112D01*
X0365833Y0015113D01*
X0365529Y0015419D01*
X0365530Y0015848D01*
X0329812Y0040510D02*
X0329292Y0039990D01*
X0328078Y0041213D01*
X0328084Y0042934D01*
X0329307Y0044148D01*
X0331028Y0044142D01*
X0332242Y0042919D01*
X0332236Y0041198D01*
X0331013Y0039984D01*
X0329292Y0039990D01*
X0329618Y0040768D01*
X0328859Y0041533D01*
X0328862Y0042608D01*
X0329627Y0043367D01*
X0330702Y0043364D01*
X0331461Y0042599D01*
X0331458Y0041524D01*
X0330693Y0040765D01*
X0329618Y0040768D01*
X0329944Y0041547D01*
X0329640Y0041853D01*
X0329641Y0042282D01*
X0329947Y0042586D01*
X0330376Y0042585D01*
X0330680Y0042279D01*
X0330679Y0041850D01*
X0330373Y0041546D01*
X0329944Y0041547D01*
X0324493Y0016120D02*
X0323973Y0016640D01*
X0325196Y0017854D01*
X0326917Y0017848D01*
X0328131Y0016625D01*
X0328125Y0014904D01*
X0326902Y0013690D01*
X0325181Y0013696D01*
X0323967Y0014919D01*
X0323973Y0016640D01*
X0324751Y0016314D01*
X0325516Y0017073D01*
X0326591Y0017070D01*
X0327350Y0016305D01*
X0327347Y0015230D01*
X0326582Y0014471D01*
X0325507Y0014474D01*
X0324748Y0015239D01*
X0324751Y0016314D01*
X0325530Y0015988D01*
X0325836Y0016292D01*
X0326265Y0016291D01*
X0326569Y0015985D01*
X0326568Y0015556D01*
X0326262Y0015252D01*
X0325833Y0015253D01*
X0325529Y0015559D01*
X0325530Y0015988D01*
X0329952Y0080510D02*
X0329432Y0079990D01*
X0328218Y0081213D01*
X0328224Y0082934D01*
X0329447Y0084148D01*
X0331168Y0084142D01*
X0332382Y0082919D01*
X0332376Y0081198D01*
X0331153Y0079984D01*
X0329432Y0079990D01*
X0329758Y0080768D01*
X0328999Y0081533D01*
X0329002Y0082608D01*
X0329767Y0083367D01*
X0330842Y0083364D01*
X0331601Y0082599D01*
X0331598Y0081524D01*
X0330833Y0080765D01*
X0329758Y0080768D01*
X0330084Y0081547D01*
X0329780Y0081853D01*
X0329781Y0082282D01*
X0330087Y0082586D01*
X0330516Y0082585D01*
X0330820Y0082279D01*
X0330819Y0081850D01*
X0330513Y0081546D01*
X0330084Y0081547D01*
D24*
X0270500Y0050215D02*
X0270500Y0030215D01*
X0265500Y0025215D01*
X0255500Y0025215D01*
X0255500Y0055215D01*
X0265500Y0055215D01*
X0270500Y0050215D01*
X0245500Y0025215D02*
X0230500Y0025215D01*
X0230500Y0055215D01*
X0220500Y0050215D02*
X0220500Y0045215D01*
X0215500Y0040215D01*
X0210500Y0040215D01*
X0220500Y0025215D01*
X0205500Y0025215D02*
X0205500Y0040215D01*
X0208000Y0040215D01*
X0210500Y0040215D01*
X0205500Y0040215D02*
X0205500Y0055215D01*
X0215500Y0055215D01*
X0220500Y0050215D01*
X0195500Y0050215D02*
X0195500Y0030215D01*
X0190500Y0025215D01*
X0180500Y0025215D01*
X0175500Y0030215D01*
X0175500Y0050215D01*
X0180500Y0055215D01*
X0190500Y0055215D01*
X0195500Y0050215D01*
X0165500Y0055215D02*
X0165500Y0030215D01*
X0159500Y0025215D01*
X0153500Y0030215D01*
X0153500Y0043715D01*
X0153500Y0030215D02*
X0147000Y0025215D01*
X0142000Y0030215D01*
X0142000Y0055215D01*
X0119500Y0055215D01*
D25*
X0220000Y0023715D02*
X0265500Y0023715D01*
D26*
X0130000Y0068215D02*
X0114500Y0068215D01*
D27*
X0202084Y0202465D02*
X0207400Y0205615D01*
X0207400Y0202465D01*
X0202084Y0202465D01*
X0203716Y0203433D02*
X0207400Y0203433D01*
X0207400Y0204431D02*
X0205401Y0204431D01*
X0207086Y0205430D02*
X0207400Y0205430D01*
X0204621Y0209424D02*
X0195355Y0209424D01*
X0193900Y0208615D02*
X0207400Y0216115D01*
X0207400Y0211115D01*
X0195900Y0204115D01*
X0193900Y0202615D01*
X0193900Y0208615D01*
X0193900Y0208425D02*
X0202980Y0208425D01*
X0201340Y0207427D02*
X0193900Y0207427D01*
X0193900Y0206428D02*
X0199699Y0206428D01*
X0198059Y0205430D02*
X0193900Y0205430D01*
X0193900Y0204431D02*
X0196419Y0204431D01*
X0194990Y0203433D02*
X0193900Y0203433D01*
X0197152Y0210422D02*
X0206261Y0210422D01*
X0207400Y0211421D02*
X0198949Y0211421D01*
X0200747Y0212419D02*
X0207400Y0212419D01*
X0207400Y0213418D02*
X0202544Y0213418D01*
X0204341Y0214416D02*
X0207400Y0214416D01*
X0207400Y0215415D02*
X0206139Y0215415D01*
X0204174Y0219409D02*
X0193900Y0219409D01*
X0193900Y0220407D02*
X0205944Y0220407D01*
X0207200Y0221115D02*
X0193900Y0213615D01*
X0193900Y0221115D01*
X0193991Y0222210D01*
X0194260Y0223275D01*
X0194702Y0224281D01*
X0195302Y0225200D01*
X0196046Y0226008D01*
X0196913Y0226683D01*
X0197879Y0227205D01*
X0198918Y0227562D01*
X0200001Y0227743D01*
X0201099Y0227743D01*
X0202182Y0227562D01*
X0203221Y0227205D01*
X0204187Y0226683D01*
X0205054Y0226008D01*
X0205798Y0225200D01*
X0206398Y0224281D01*
X0206840Y0223275D01*
X0207109Y0222210D01*
X0207200Y0221115D01*
X0207176Y0221406D02*
X0193924Y0221406D01*
X0194040Y0222404D02*
X0207060Y0222404D01*
X0206783Y0223403D02*
X0194317Y0223403D01*
X0194780Y0224401D02*
X0206320Y0224401D01*
X0205614Y0225400D02*
X0195486Y0225400D01*
X0196548Y0226398D02*
X0204552Y0226398D01*
X0202663Y0227397D02*
X0198437Y0227397D01*
X0202403Y0218410D02*
X0193900Y0218410D01*
X0193900Y0217412D02*
X0200632Y0217412D01*
X0198861Y0216413D02*
X0193900Y0216413D01*
X0193900Y0215415D02*
X0197091Y0215415D01*
X0195320Y0214416D02*
X0193900Y0214416D01*
X0255100Y0215615D02*
X0255100Y0222915D01*
X0266200Y0223115D01*
X0266200Y0222115D01*
X0255100Y0215615D01*
X0255100Y0216413D02*
X0256462Y0216413D01*
X0255100Y0217412D02*
X0258168Y0217412D01*
X0259873Y0218410D02*
X0255100Y0218410D01*
X0255100Y0219409D02*
X0261578Y0219409D01*
X0263283Y0220407D02*
X0255100Y0220407D01*
X0255100Y0221406D02*
X0264988Y0221406D01*
X0266200Y0222404D02*
X0255100Y0222404D01*
X0259885Y0213418D02*
X0266200Y0213418D01*
X0266200Y0214416D02*
X0261591Y0214416D01*
X0263296Y0215415D02*
X0266200Y0215415D01*
X0266200Y0216413D02*
X0265001Y0216413D01*
X0266200Y0217115D02*
X0266200Y0212115D01*
X0257100Y0206115D01*
X0255100Y0204615D01*
X0255100Y0210615D01*
X0266200Y0217115D01*
X0266200Y0212419D02*
X0258180Y0212419D01*
X0256475Y0211421D02*
X0265146Y0211421D01*
X0263632Y0210422D02*
X0255100Y0210422D01*
X0255100Y0209424D02*
X0262117Y0209424D01*
X0260603Y0208425D02*
X0255100Y0208425D01*
X0255100Y0207427D02*
X0259089Y0207427D01*
X0257574Y0206428D02*
X0255100Y0206428D01*
X0255100Y0205430D02*
X0256186Y0205430D01*
X0259619Y0202465D02*
X0266200Y0206615D01*
X0266200Y0202465D01*
X0259619Y0202465D01*
X0261153Y0203433D02*
X0266200Y0203433D01*
X0266200Y0204431D02*
X0262736Y0204431D01*
X0264320Y0205430D02*
X0266200Y0205430D01*
X0266200Y0206428D02*
X0265903Y0206428D01*
M02*
