G75*
%MOIN*%
%OFA0B0*%
%FSLAX25Y25*%
%IPPOS*%
%LPD*%
%AMOC8*
5,1,8,0,0,1.08239X$1,22.5*
%
%ADD10C,0.07100*%
%ADD11C,0.12800*%
%ADD12C,0.14800*%
%ADD13C,0.16800*%
%ADD14OC8,0.15800*%
%ADD15C,0.01480*%
%ADD16C,0.01200*%
D10*
X0029000Y0149215D03*
X0030500Y0149215D03*
X0032000Y0149215D03*
X0033500Y0149215D03*
X0035000Y0149215D03*
X0036500Y0149215D03*
X0038000Y0149215D03*
X0039500Y0149215D03*
X0041000Y0149215D03*
X0042500Y0149215D03*
X0044000Y0149215D03*
X0045500Y0149215D03*
X0047000Y0149215D03*
X0048500Y0149215D03*
X0050000Y0149215D03*
X0051500Y0149215D03*
X0053000Y0149215D03*
X0054500Y0149215D03*
X0056000Y0149215D03*
X0057500Y0149215D03*
X0059000Y0149215D03*
X0060500Y0149215D03*
X0062000Y0149215D03*
X0063500Y0149215D03*
X0065000Y0149215D03*
X0066500Y0149215D03*
X0068000Y0149215D03*
X0069500Y0149215D03*
X0071000Y0149215D03*
X0072500Y0149215D03*
X0074000Y0149215D03*
X0075500Y0149215D03*
X0077000Y0149215D03*
X0078500Y0149215D03*
X0080000Y0149215D03*
X0081500Y0149215D03*
X0083000Y0149215D03*
X0084500Y0149215D03*
X0086000Y0149215D03*
X0087500Y0149215D03*
X0089000Y0149215D03*
X0090500Y0149215D03*
X0092000Y0149215D03*
X0093500Y0149215D03*
X0095000Y0149215D03*
X0096500Y0149215D03*
X0098000Y0149215D03*
X0099500Y0149215D03*
X0101000Y0149215D03*
X0102500Y0149215D03*
X0104000Y0149215D03*
X0105500Y0149215D03*
X0107000Y0149215D03*
X0108500Y0149215D03*
X0110000Y0149215D03*
X0111500Y0149215D03*
X0113000Y0149215D03*
X0115000Y0149215D03*
X0116000Y0149215D03*
X0117500Y0149215D03*
X0330826Y0127495D03*
X0332302Y0127229D03*
X0333286Y0127052D03*
X0335255Y0126698D03*
X0336731Y0126432D03*
X0338207Y0126167D03*
X0339684Y0125901D03*
X0341160Y0125635D03*
X0342636Y0125370D03*
X0344112Y0125104D03*
X0345589Y0124839D03*
X0347065Y0124573D03*
X0348541Y0124307D03*
X0350018Y0124042D03*
X0351494Y0123776D03*
X0352970Y0123510D03*
X0354446Y0123245D03*
X0355923Y0122979D03*
X0357399Y0122714D03*
X0358875Y0122448D03*
X0360352Y0122182D03*
X0361828Y0121917D03*
X0363304Y0121651D03*
X0364780Y0121385D03*
X0366257Y0121120D03*
X0367733Y0120854D03*
X0369209Y0120589D03*
X0370686Y0120323D03*
X0372162Y0120057D03*
X0373638Y0119792D03*
X0375115Y0119526D03*
X0376591Y0119260D03*
X0378067Y0118995D03*
X0379543Y0118729D03*
X0381020Y0118464D03*
X0382496Y0118198D03*
X0383972Y0117932D03*
X0385449Y0117667D03*
X0386925Y0117401D03*
X0388401Y0117135D03*
X0389877Y0116870D03*
X0391354Y0116604D03*
X0392830Y0116339D03*
X0394306Y0116073D03*
X0395783Y0115807D03*
X0397259Y0115542D03*
X0398735Y0115276D03*
X0400212Y0115010D03*
X0401688Y0114745D03*
X0403164Y0114479D03*
X0404640Y0114213D03*
X0406117Y0113948D03*
X0407593Y0113682D03*
X0409069Y0113417D03*
X0410546Y0113151D03*
X0412022Y0112885D03*
X0413498Y0112620D03*
X0414974Y0112354D03*
X0416451Y0112088D03*
X0417927Y0111823D03*
X0395591Y0087860D03*
X0395591Y0086860D03*
X0395591Y0085860D03*
X0395591Y0084860D03*
X0395591Y0083860D03*
X0395591Y0082860D03*
X0395591Y0081860D03*
X0395591Y0080860D03*
X0395591Y0079860D03*
X0395591Y0078860D03*
X0395591Y0077860D03*
X0395591Y0076860D03*
X0395591Y0075860D03*
X0395591Y0074860D03*
X0395591Y0073860D03*
X0395591Y0072860D03*
X0395591Y0071860D03*
X0395591Y0070860D03*
X0395591Y0069860D03*
X0395591Y0068860D03*
X0395591Y0067860D03*
X0395591Y0066860D03*
X0395591Y0065860D03*
X0395591Y0064860D03*
X0395591Y0063860D03*
X0395591Y0062860D03*
X0395591Y0061860D03*
X0395591Y0060860D03*
X0395591Y0059860D03*
X0395591Y0058860D03*
X0395591Y0057860D03*
X0395591Y0056860D03*
X0395591Y0055860D03*
X0395591Y0054860D03*
X0395591Y0053860D03*
X0395591Y0052860D03*
X0395591Y0051860D03*
X0395591Y0050860D03*
X0395591Y0049860D03*
X0395591Y0048860D03*
X0339991Y0048860D03*
X0339991Y0049860D03*
X0339991Y0050860D03*
X0339991Y0051860D03*
X0339991Y0052860D03*
X0339991Y0053860D03*
X0339991Y0054860D03*
X0339991Y0055860D03*
X0339991Y0056860D03*
X0339991Y0057860D03*
X0339991Y0058860D03*
X0339991Y0059860D03*
X0339991Y0060860D03*
X0339991Y0061860D03*
X0339991Y0062860D03*
X0339991Y0063860D03*
X0339991Y0064860D03*
X0339991Y0065860D03*
X0339991Y0066860D03*
X0339991Y0067860D03*
X0339991Y0068860D03*
X0339991Y0069860D03*
X0339991Y0070860D03*
X0339991Y0071860D03*
X0339991Y0072860D03*
X0339991Y0073860D03*
X0339991Y0074860D03*
X0339991Y0075860D03*
X0339991Y0076860D03*
X0339991Y0077860D03*
X0339991Y0078860D03*
X0339991Y0079860D03*
X0339991Y0080860D03*
X0339991Y0081860D03*
X0339991Y0082860D03*
X0339991Y0083860D03*
X0339991Y0084860D03*
X0339991Y0085860D03*
X0339991Y0086860D03*
X0339991Y0087860D03*
D11*
X0178000Y0253715D03*
X0219500Y0256215D03*
X0240800Y0256215D03*
X0262000Y0256215D03*
D12*
X0241500Y0212715D03*
X0178500Y0212215D03*
X0340700Y0243015D03*
D13*
X0299200Y0242515D03*
X0299700Y0179515D03*
D14*
X0069000Y0164215D03*
X0069000Y0248215D03*
D15*
X0356864Y0029491D02*
X0356124Y0030231D01*
X0357864Y0031959D01*
X0360315Y0031950D01*
X0362043Y0030210D01*
X0362034Y0027759D01*
X0360294Y0026031D01*
X0357843Y0026040D01*
X0356115Y0027780D01*
X0356124Y0030231D01*
X0357232Y0029767D01*
X0358320Y0030847D01*
X0359851Y0030842D01*
X0360931Y0029754D01*
X0360926Y0028223D01*
X0359838Y0027143D01*
X0358307Y0027148D01*
X0357227Y0028236D01*
X0357232Y0029767D01*
X0358341Y0029303D01*
X0358776Y0029736D01*
X0359387Y0029733D01*
X0359820Y0029298D01*
X0359817Y0028687D01*
X0359382Y0028254D01*
X0358771Y0028257D01*
X0358338Y0028692D01*
X0358341Y0029303D01*
X0366864Y0029456D02*
X0366124Y0030196D01*
X0367864Y0031924D01*
X0370315Y0031915D01*
X0372043Y0030175D01*
X0372034Y0027724D01*
X0370294Y0025996D01*
X0367843Y0026005D01*
X0366115Y0027745D01*
X0366124Y0030196D01*
X0367232Y0029732D01*
X0368320Y0030812D01*
X0369851Y0030807D01*
X0370931Y0029719D01*
X0370926Y0028188D01*
X0369838Y0027108D01*
X0368307Y0027113D01*
X0367227Y0028201D01*
X0367232Y0029732D01*
X0368341Y0029268D01*
X0368776Y0029701D01*
X0369387Y0029698D01*
X0369820Y0029263D01*
X0369817Y0028652D01*
X0369382Y0028219D01*
X0368771Y0028222D01*
X0368338Y0028657D01*
X0368341Y0029268D01*
X0384646Y0014559D02*
X0383906Y0015299D01*
X0385646Y0017027D01*
X0388097Y0017018D01*
X0389825Y0015278D01*
X0389816Y0012827D01*
X0388076Y0011099D01*
X0385625Y0011108D01*
X0383897Y0012848D01*
X0383906Y0015299D01*
X0385014Y0014835D01*
X0386102Y0015915D01*
X0387633Y0015910D01*
X0388713Y0014822D01*
X0388708Y0013291D01*
X0387620Y0012211D01*
X0386089Y0012216D01*
X0385009Y0013304D01*
X0385014Y0014835D01*
X0386123Y0014371D01*
X0386558Y0014804D01*
X0387169Y0014801D01*
X0387602Y0014366D01*
X0387599Y0013755D01*
X0387164Y0013322D01*
X0386553Y0013325D01*
X0386120Y0013760D01*
X0386123Y0014371D01*
X0394646Y0014524D02*
X0393906Y0015264D01*
X0395646Y0016992D01*
X0398097Y0016983D01*
X0399825Y0015243D01*
X0399816Y0012792D01*
X0398076Y0011064D01*
X0395625Y0011073D01*
X0393897Y0012813D01*
X0393906Y0015264D01*
X0395014Y0014800D01*
X0396102Y0015880D01*
X0397633Y0015875D01*
X0398713Y0014787D01*
X0398708Y0013256D01*
X0397620Y0012176D01*
X0396089Y0012181D01*
X0395009Y0013269D01*
X0395014Y0014800D01*
X0396123Y0014336D01*
X0396558Y0014769D01*
X0397169Y0014766D01*
X0397602Y0014331D01*
X0397599Y0013720D01*
X0397164Y0013287D01*
X0396553Y0013290D01*
X0396120Y0013725D01*
X0396123Y0014336D01*
D16*
X0364253Y0016034D02*
X0363653Y0016634D01*
X0365064Y0018035D01*
X0367051Y0018028D01*
X0368452Y0016617D01*
X0368445Y0014630D01*
X0367034Y0013229D01*
X0365047Y0013236D01*
X0363646Y0014647D01*
X0363653Y0016634D01*
X0364552Y0016258D01*
X0365434Y0017134D01*
X0366675Y0017129D01*
X0367551Y0016247D01*
X0367546Y0015006D01*
X0366664Y0014130D01*
X0365423Y0014135D01*
X0364547Y0015017D01*
X0364552Y0016258D01*
X0365450Y0015882D01*
X0365804Y0016232D01*
X0366299Y0016231D01*
X0366649Y0015877D01*
X0366648Y0015382D01*
X0366294Y0015032D01*
X0365799Y0015033D01*
X0365449Y0015387D01*
X0365450Y0015882D01*
X0329758Y0040270D02*
X0329158Y0039670D01*
X0327757Y0041081D01*
X0327764Y0043068D01*
X0329175Y0044469D01*
X0331162Y0044462D01*
X0332563Y0043051D01*
X0332556Y0041064D01*
X0331145Y0039663D01*
X0329158Y0039670D01*
X0329534Y0040569D01*
X0328658Y0041451D01*
X0328663Y0042692D01*
X0329545Y0043568D01*
X0330786Y0043563D01*
X0331662Y0042681D01*
X0331657Y0041440D01*
X0330775Y0040564D01*
X0329534Y0040569D01*
X0329910Y0041467D01*
X0329560Y0041821D01*
X0329561Y0042316D01*
X0329915Y0042666D01*
X0330410Y0042665D01*
X0330760Y0042311D01*
X0330759Y0041816D01*
X0330405Y0041466D01*
X0329910Y0041467D01*
X0324253Y0016174D02*
X0323653Y0016774D01*
X0325064Y0018175D01*
X0327051Y0018168D01*
X0328452Y0016757D01*
X0328445Y0014770D01*
X0327034Y0013369D01*
X0325047Y0013376D01*
X0323646Y0014787D01*
X0323653Y0016774D01*
X0324552Y0016398D01*
X0325434Y0017274D01*
X0326675Y0017269D01*
X0327551Y0016387D01*
X0327546Y0015146D01*
X0326664Y0014270D01*
X0325423Y0014275D01*
X0324547Y0015157D01*
X0324552Y0016398D01*
X0325450Y0016022D01*
X0325804Y0016372D01*
X0326299Y0016371D01*
X0326649Y0016017D01*
X0326648Y0015522D01*
X0326294Y0015172D01*
X0325799Y0015173D01*
X0325449Y0015527D01*
X0325450Y0016022D01*
X0329898Y0080270D02*
X0329298Y0079670D01*
X0327897Y0081081D01*
X0327904Y0083068D01*
X0329315Y0084469D01*
X0331302Y0084462D01*
X0332703Y0083051D01*
X0332696Y0081064D01*
X0331285Y0079663D01*
X0329298Y0079670D01*
X0329674Y0080569D01*
X0328798Y0081451D01*
X0328803Y0082692D01*
X0329685Y0083568D01*
X0330926Y0083563D01*
X0331802Y0082681D01*
X0331797Y0081440D01*
X0330915Y0080564D01*
X0329674Y0080569D01*
X0330050Y0081467D01*
X0329700Y0081821D01*
X0329701Y0082316D01*
X0330055Y0082666D01*
X0330550Y0082665D01*
X0330900Y0082311D01*
X0330899Y0081816D01*
X0330545Y0081466D01*
X0330050Y0081467D01*
M02*
