%
M48
;FORMAT=1:5
M72
T01C0.03200
T02C0.06300
T03C0.07874
T04C0.12000
T05C0.14000
T06C0.16000
%
T01
X326049Y15772
X330160Y42066
X359079Y28995
X369079Y28960
X366049Y15632
X386861Y14063
X396861Y14028
X330300Y82066
T02
X29000Y149215
X30500Y149215
X32000Y149215
X33500Y149215
X35000Y149215
X36500Y149215
X38000Y149215
X39500Y149215
X41000Y149215
X42500Y149215
X44000Y149215
X45500Y149215
X47000Y149215
X48500Y149215
X50000Y149215
X51500Y149215
X53000Y149215
X54500Y149215
X56000Y149215
X57500Y149215
X59000Y149215
X60500Y149215
X62000Y149215
X63500Y149215
X65000Y149215
X66500Y149215
X68000Y149215
X69500Y149215
X71000Y149215
X72500Y149215
X74000Y149215
X75500Y149215
X77000Y149215
X78500Y149215
X80000Y149215
X81500Y149215
X83000Y149215
X84500Y149215
X86000Y149215
X87500Y149215
X89000Y149215
X90500Y149215
X92000Y149215
X93500Y149215
X95000Y149215
X96500Y149215
X98000Y149215
X99500Y149215
X101000Y149215
X102500Y149215
X104000Y149215
X105500Y149215
X107000Y149215
X108500Y149215
X110000Y149215
X111500Y149215
X113000Y149215
X115000Y149215
X116000Y149215
X117500Y149215
X330826Y127495
X332302Y127229
X333286Y127052
X335255Y126698
X336731Y126432
X338207Y126167
X339684Y125901
X341160Y125635
X342636Y125370
X344112Y125104
X345589Y124839
X347065Y124573
X348541Y124307
X350018Y124042
X351494Y123776
X352970Y123510
X354446Y123245
X355923Y122979
X357399Y122714
X358875Y122448
X360352Y122182
X361828Y121917
X363304Y121651
X364780Y121385
X366257Y121120
X367733Y120854
X369209Y120589
X370686Y120323
X372162Y120057
X373638Y119792
X375115Y119526
X376591Y119260
X378067Y118995
X379543Y118729
X381020Y118464
X382496Y118198
X383972Y117932
X385449Y117667
X386925Y117401
X388401Y117135
X389877Y116870
X391354Y116604
X392830Y116339
X394306Y116073
X395783Y115807
X397259Y115542
X398735Y115276
X400212Y115010
X401688Y114745
X403164Y114479
X404640Y114213
X406117Y113948
X407593Y113682
X409069Y113417
X410546Y113151
X412022Y112885
X413498Y112620
X414974Y112354
X416451Y112088
X417927Y111823
X395591Y87860
X395591Y86860
X395591Y85860
X395591Y84860
X395591Y83860
X395591Y82860
X395591Y81860
X395591Y80860
X395591Y79860
X395591Y78860
X395591Y77860
X395591Y76860
X395591Y75860
X395591Y74860
X395591Y73860
X395591Y72860
X395591Y71860
X395591Y70860
X395591Y69860
X395591Y68860
X395591Y67860
X395591Y66860
X395591Y65860
X395591Y64860
X395591Y63860
X395591Y62860
X395591Y61860
X395591Y60860
X395591Y59860
X395591Y58860
X395591Y57860
X395591Y56860
X395591Y55860
X395591Y54860
X395591Y53860
X395591Y52860
X395591Y51860
X395591Y50860
X395591Y49860
X395591Y48860
X339991Y48860
X339991Y49860
X339991Y50860
X339991Y51860
X339991Y52860
X339991Y53860
X339991Y54860
X339991Y55860
X339991Y56860
X339991Y57860
X339991Y58860
X339991Y59860
X339991Y60860
X339991Y61860
X339991Y62860
X339991Y63860
X339991Y64860
X339991Y65860
X339991Y66860
X339991Y67860
X339991Y68860
X339991Y69860
X339991Y70860
X339991Y71860
X339991Y72860
X339991Y73860
X339991Y74860
X339991Y75860
X339991Y76860
X339991Y77860
X339991Y78860
X339991Y79860
X339991Y80860
X339991Y81860
X339991Y82860
X339991Y83860
X339991Y84860
X339991Y85860
X339991Y86860
X339991Y87860
T03
X69000Y164215
X69000Y248215
T04
X178000Y253715
X219500Y256215
X240800Y256215
X262000Y256215
T05
X241500Y212715
X178500Y212215
X340700Y243015
T06
X299200Y242515
X299700Y179515
M30
