<?xml version="1.0" encoding="UTF-8"?>
<svg xmlns="http://www.w3.org/2000/svg" xmlns:xlink="http://www.w3.org/1999/xlink" width="77pt" height="78pt" viewBox="0 0 77 78" version="1.1">
<g id="surface16424">
<path style="fill:none;stroke-width:0.0098;stroke-linecap:round;stroke-linejoin:miter;stroke:rgb(45.882353%,94.901961%,40.392157%);stroke-opacity:1;stroke-miterlimit:10;" d="M 0.619887 1.534582 L 0.783298 1.534582 " transform="matrix(72,0,0,-72,-40.76856,114.06804)"/>
<path style="fill:none;stroke-width:0.0098;stroke-linecap:round;stroke-linejoin:miter;stroke:rgb(45.882353%,94.901961%,40.392157%);stroke-opacity:1;stroke-miterlimit:10;" d="M 0.783298 1.534582 L 0.783298 1.400793 " transform="matrix(72,0,0,-72,-40.76856,114.06804)"/>
<path style="fill:none;stroke-width:0.0098;stroke-linecap:round;stroke-linejoin:miter;stroke:rgb(45.882353%,94.901961%,40.392157%);stroke-opacity:1;stroke-miterlimit:10;" d="M 0.783298 1.400793 L 0.619887 1.400793 " transform="matrix(72,0,0,-72,-40.76856,114.06804)"/>
<path style="fill:none;stroke-width:0.0098;stroke-linecap:round;stroke-linejoin:miter;stroke:rgb(45.882353%,94.901961%,40.392157%);stroke-opacity:1;stroke-miterlimit:10;" d="M 0.619887 1.400793 L 0.619887 1.534582 " transform="matrix(72,0,0,-72,-40.76856,114.06804)"/>
<path style="fill:none;stroke-width:0.0098;stroke-linecap:round;stroke-linejoin:miter;stroke:rgb(45.882353%,94.901961%,40.392157%);stroke-opacity:1;stroke-miterlimit:10;" d="M 1.422079 1.534582 L 1.58549 1.534582 " transform="matrix(72,0,0,-72,-40.76856,114.06804)"/>
<path style="fill:none;stroke-width:0.0098;stroke-linecap:round;stroke-linejoin:miter;stroke:rgb(45.882353%,94.901961%,40.392157%);stroke-opacity:1;stroke-miterlimit:10;" d="M 1.58549 1.534582 L 1.58549 1.400793 " transform="matrix(72,0,0,-72,-40.76856,114.06804)"/>
<path style="fill:none;stroke-width:0.0098;stroke-linecap:round;stroke-linejoin:miter;stroke:rgb(45.882353%,94.901961%,40.392157%);stroke-opacity:1;stroke-miterlimit:10;" d="M 1.58549 1.400793 L 1.422079 1.400793 " transform="matrix(72,0,0,-72,-40.76856,114.06804)"/>
<path style="fill:none;stroke-width:0.0098;stroke-linecap:round;stroke-linejoin:miter;stroke:rgb(45.882353%,94.901961%,40.392157%);stroke-opacity:1;stroke-miterlimit:10;" d="M 1.422079 1.400793 L 1.422079 1.534582 " transform="matrix(72,0,0,-72,-40.76856,114.06804)"/>
<path style="fill:none;stroke-width:0.01;stroke-linecap:round;stroke-linejoin:miter;stroke:rgb(45.882353%,94.901961%,40.392157%);stroke-opacity:1;stroke-miterlimit:10;" d="M 1.002699 1.005394 L 1.202677 1.005394 " transform="matrix(72,0,0,-72,-40.76856,114.06804)"/>
<path style="fill:none;stroke-width:0.01;stroke-linecap:round;stroke-linejoin:miter;stroke:rgb(45.882353%,94.901961%,40.392157%);stroke-opacity:1;stroke-miterlimit:10;" d="M 1.202677 1.005394 L 1.202677 0.555415 " transform="matrix(72,0,0,-72,-40.76856,114.06804)"/>
<path style="fill:none;stroke-width:0.01;stroke-linecap:round;stroke-linejoin:miter;stroke:rgb(45.882353%,94.901961%,40.392157%);stroke-opacity:1;stroke-miterlimit:10;" d="M 1.202677 0.555415 L 1.002699 0.555415 " transform="matrix(72,0,0,-72,-40.76856,114.06804)"/>
<path style="fill:none;stroke-width:0.01;stroke-linecap:round;stroke-linejoin:miter;stroke:rgb(45.882353%,94.901961%,40.392157%);stroke-opacity:1;stroke-miterlimit:10;" d="M 1.002699 0.555415 L 1.002699 1.005394 " transform="matrix(72,0,0,-72,-40.76856,114.06804)"/>
</g>
</svg>
