<?xml version="1.0" encoding="UTF-8" standalone="no"?>
<!-- Created with Inkscape (http://www.inkscape.org/) -->

<svg
   xmlns:dc="http://purl.org/dc/elements/1.1/"
   xmlns:cc="http://creativecommons.org/ns#"
   xmlns:rdf="http://www.w3.org/1999/02/22-rdf-syntax-ns#"
   xmlns:svg="http://www.w3.org/2000/svg"
   xmlns="http://www.w3.org/2000/svg"
   xmlns:xlink="http://www.w3.org/1999/xlink"
   xmlns:sodipodi="http://sodipodi.sourceforge.net/DTD/sodipodi-0.dtd"
   xmlns:inkscape="http://www.inkscape.org/namespaces/inkscape"
   version="1.1"
   width="194.21057"
   height="207.21185"
   id="svg2"
   inkscape:version="0.48.4 r9939"
   sodipodi:docname="spiked wheel.svg">
  <sodipodi:namedview
     pagecolor="#ffffff"
     bordercolor="#666666"
     borderopacity="1"
     objecttolerance="10"
     gridtolerance="10"
     guidetolerance="10"
     inkscape:pageopacity="0"
     inkscape:pageshadow="2"
     inkscape:window-width="1680"
     inkscape:window-height="1028"
     id="namedview3029"
     showgrid="false"
     inkscape:zoom="2.61"
     inkscape:cx="97.2"
     inkscape:cy="96.2"
     inkscape:window-x="-8"
     inkscape:window-y="276"
     inkscape:window-maximized="1"
     inkscape:current-layer="svg2"
     inkscape:document-units="in"
     units="in"
     fit-margin-top="0"
     fit-margin-left="0"
     fit-margin-right="0"
     fit-margin-bottom="0" />
  <defs
     id="defs4">
    <pattern
       xlink:href="#Strips1_1"
       id="pattern5255"
       patternTransform="matrix(10,0,0,10,-24.388325,-22.283456)" />
    <pattern
       xlink:href="#Strips1_1"
       id="pattern5253"
       patternTransform="matrix(10,0,0,10,-11.772018,-10.121945)" />
    <pattern
       xlink:href="#Strips1_1"
       id="pattern5251"
       patternTransform="matrix(10,0,0,10,-29.794203,-25.420223)" />
    <pattern
       xlink:href="#Strips1_1"
       id="pattern5249"
       patternTransform="matrix(10,0,0,10,-52.036995,-45.135714)" />
    <pattern
       xlink:href="#Strips1_1"
       id="pattern5247"
       patternTransform="matrix(10,0,0,10,0.23836398,-3.2617502)" />
    <pattern
       xlink:href="#Strips1_1"
       id="pattern5245"
       patternTransform="matrix(10,0,0,10,-18.939426,367.15194)" />
    <pattern
       xlink:href="#Strips1_1"
       id="pattern5243"
       patternTransform="matrix(10,0,0,10,-168.20498,-51.733717)" />
    <pattern
       id="Strips1_1"
       patternTransform="translate(0,0) scale(10,10)"
       height="1"
       width="2"
       patternUnits="userSpaceOnUse">
      <rect
         id="rect4528"
         height="2"
         width="1"
         y="-0.5"
         x="0"
         style="fill:black;stroke:none" />
    </pattern>
    <linearGradient
       id="linearGradient3803">
      <stop
         id="stop3805"
         style="stop-color:#000000;stop-opacity:1"
         offset="0" />
    </linearGradient>
    <marker
       refX="0"
       refY="0"
       orient="auto"
       id="Arrow1Lstart"
       style="overflow:visible">
      <path
         d="M 0,0 5,-5 -12.5,0 5,5 0,0 z"
         transform="matrix(0.8,0,0,0.8,10,0)"
         id="path3765"
         style="fill-rule:evenodd;stroke:#000000;stroke-width:1pt;marker-start:none"
         inkscape:connector-curvature="0" />
    </marker>
    <marker
       refX="0"
       refY="0"
       orient="auto"
       id="Arrow1Lend"
       style="overflow:visible">
      <path
         d="M 0,0 5,-5 -12.5,0 5,5 0,0 z"
         transform="matrix(-0.8,0,0,-0.8,-10,0)"
         id="path3768"
         style="fill-rule:evenodd;stroke:#000000;stroke-width:1pt;marker-start:none"
         inkscape:connector-curvature="0" />
    </marker>
  </defs>
  <metadata
     id="metadata7">
    <rdf:RDF>
      <cc:Work
         rdf:about="">
        <dc:format>image/svg+xml</dc:format>
        <dc:type
           rdf:resource="http://purl.org/dc/dcmitype/StillImage" />
        <dc:title></dc:title>
      </cc:Work>
    </rdf:RDF>
  </metadata>
  <g
     transform="translate(-40.621151,-484.10916)"
     id="layer1" />
  <path
     style="fill:none;stroke:#000000;stroke-width:1.54062879"
     d="m 95.821192,141.58129 -0.837037,6.77891 -0.04655,0.69783 2.418122,7.92535 14.276223,-0.64799 -5.53378,-7.27736 0,-0.69783 -0.88354,-6.77891 c -1.56478,0.19042 -3.17324,0.29907 -4.78974,0.29907 -1.569623,0 -3.082724,-0.1193 -4.603742,-0.29907 z"
     id="path4173"
     inkscape:connector-curvature="0" />
  <path
     style="fill:none;stroke:#000000;stroke-width:1.54062879"
     d="m 78.150302,134.90207 -3.255167,4.53589 -0.325517,0.59814 -1.581081,8.12473 12.555637,6.42999 -1.348567,-8.62317 0.325518,-0.59815 2.278616,-5.93154 c -3.095198,-1.15259 -5.991183,-2.68019 -8.649439,-4.53589 z"
     id="path4171"
     inkscape:connector-curvature="0" />
  <path
     style="fill:none;stroke:#000000;stroke-width:1.54062879"
     d="m 122.83907,134.8523 c -2.65438,1.86392 -5.55635,3.37467 -8.64945,4.53589 l 2.32512,5.98139 0.32552,0.59815 5.76629,5.58263 12.55563,-6.43 -8.69593,-5.08418 -0.32552,-0.59814 z"
     id="path4169"
     inkscape:connector-curvature="0" />
  <path
     style="fill:none;stroke:#000000;stroke-width:1.54062879"
     d="m 65.176141,119.35053 -3.487677,1.5452 -0.558028,0.3489 -5.161762,6.18078 8.556435,13.50798 2.18561,-9.37084 0.558028,-0.34892 3.580682,-2.9907 c -2.277807,-2.67705 -4.206392,-5.64479 -5.673288,-8.8724 z"
     id="path4167"
     inkscape:connector-curvature="0" />
  <path
     style="fill:none;stroke:#000000;stroke-width:1.54062879"
     d="m 135.72022,119.30068 c -1.45982,3.22198 -3.35905,6.19761 -5.62679,8.8724 l 3.67369,3.04055 0.55803,0.34892 7.62639,1.74456 8.55642,-13.50798 -10.60253,1.4455 -0.55803,-0.3489 z"
     id="path4165"
     inkscape:connector-curvature="0" />
  <path
     style="fill:none;stroke:#000000;stroke-width:1.54062879"
     d="m 58.24729,97.817511 -7.347373,2.591939 1.116056,15.90054 6.231317,-6.57954 0.651032,0 3.348171,-0.49844 c -0.254546,-1.76157 -0.418522,-3.55282 -0.418522,-5.38326 0,-1.8978 0.145251,-3.76002 0.418522,-5.582633 l -3.348171,-0.448606 z"
     id="path4163"
     inkscape:connector-curvature="0" />
  <path
     style="fill:none;stroke:#000000;stroke-width:1.54062879"
     d="m 152.41457,93.082247 -9.626,4.735264 -0.65103,0 -3.48768,0.498455 c 0.26855,1.807184 0.41853,3.651814 0.41853,5.532784 0,1.83044 -0.16398,3.62169 -0.41853,5.38326 l 3.48768,0.49844 0.65103,0 7.34738,-2.59193 z"
     id="path4161"
     inkscape:connector-curvature="0" />
  <path
     style="fill:none;stroke:#000000;stroke-width:1.54062879"
     d="m 59.130835,74.240859 -6.324322,13.458134 8.323923,-1.395659 0.558028,0.29907 3.580682,1.595038 c 1.483337,-3.210279 3.430485,-6.165537 5.71979,-8.822554 l -3.720189,-3.090386 -0.558028,-0.348914 z"
     id="path4159"
     inkscape:connector-curvature="0" />
  <path
     style="fill:none;stroke:#000000;stroke-width:1.54062879"
     d="m 136.78977,65.368461 -2.46462,10.567127 -0.55803,0.348914 -3.81319,3.140231 c 2.27922,2.654814 4.19705,5.617855 5.67328,8.822554 l 3.72019,-1.644883 0.55803,-0.29907 5.16176,-6.230617 z"
     id="path4157"
     inkscape:connector-curvature="0" />
  <path
     style="fill:none;stroke:#000000;stroke-width:1.54062879"
     d="m 78.429315,55.997613 -11.99761,7.67612 8.137913,3.838059 0.325517,0.59814 3.394673,4.685424 c 2.646491,-1.825667 5.527872,-3.353125 8.602933,-4.486044 L 84.521125,62.178384 84.195607,61.5304 z"
     id="path4155"
     inkscape:connector-curvature="0" />
  <path
     style="fill:none;stroke:#000000;stroke-width:1.54062879"
     d="m 115.21268,51.411878 1.62758,10.118522 -0.32552,0.647984 -2.37162,6.180773 c 3.05727,1.139664 5.92584,2.660583 8.55643,4.486045 l 3.44118,-4.73527 0.32552,-0.59814 1.58107,-8.124724 z"
     id="path4153"
     inkscape:connector-curvature="0" />
  <path
     style="fill:none;stroke:#000000;stroke-width:1.54062879"
     d="m 103.6801,50.564514 -14.834261,1.196278 6.09181,6.679223 0.04655,0.697829 0.837038,6.878601 -0.930038,0.249224 c 1.814024,-0.257056 3.648041,-0.348914 5.533771,-0.348914 1.95007,0 3.89326,0.124189 5.76629,0.39876 l -0.97654,-0.29907 0.88354,-6.878601 0,-0.697829 z"
     id="path4151"
     inkscape:connector-curvature="0" />
  <path
     style="fill:none;stroke:#000000;stroke-width:1.301"
     d="m 116,104 -2,6 -3,5 -5,3 -6,1 -5.8,-1 -4.9,-3 -3.3,-5 -1.2,-6 1.2,-6.1 3.3,-4.9 4.9,-3.3 5.8,-1.2 6,1.2 5,3.3 3,4.9 z"
     inkscape:connector-curvature="0" />
  <path
     style="fill:none;stroke:#000000;stroke-width:1.54062879"
     d="m 157.40894,93.54125 0.58184,-0.103672 9.25584,2.209125 9.88082,6.680007 16.16594,25.75913 -26.04676,-16.52066 -9.25584,2.20912 -0.58184,-0.1037 -1.47766,6.94001 0.56697,0.17545 7.44483,6.29561 6.19784,10.61339 3.72161,26.96146 -16.36281,-23.23386 -9.23499,-2.3128 -0.48065,-0.36527 -4.13983,5.56509 0.43749,0.42269 4.15918,9.13478 1.28866,12.44449 -5.4032,25.88675 -7.49543,-28.40691 -7.38383,-6.37856 -0.28571,-0.55189 -5.98206,3.088 0.2232,0.58378 0.0491,10.16518 -3.87495,11.81126 -12.09953,23.93229 1.49848,-32.20257 -4.07137,-9.18103 -0.0343,-0.63004 -6.639789,0 -0.03427,0.63004 -4.071369,9.18103 -8.272214,8.83971 -25.628174,13.12605 19.424383,-25.50674 0.04913,-10.16518 0.223219,-0.58378 -5.982069,-3.088 -0.28571,0.55189 -7.383831,6.37856 -11.032593,4.11679 -31.929711,-2.40226 31.352338,-11.63886 4.159172,-9.13478 0.437494,-0.42269 -4.139826,-5.56509 -0.480649,0.36527 -9.234996,2.3128 -11.605501,-1.42117 -27.3414085,-8.75135 32.5035415,-4.16847 7.444842,-6.29561 0.566957,-0.17545 -1.477659,-6.94001 -0.581837,0.1037 -9.25583,-2.20912 -9.880822,-6.68001 L 5.3606841,85.310087 35.45362,95.646703 l 9.25583,-2.209125 0.581837,0.103672 1.477659,-6.940011 -0.566957,-0.175454 -7.444842,-6.295614 -6.197834,-10.613384 -8.254076,-30.357911 20.895278,26.630308 9.234996,2.312805 0.480649,0.365264 4.139826,-5.565088 -0.437494,-0.422686 -4.159172,-9.134782 -1.288672,-12.444486 12.83848,-28.728801 0.06016,31.248961 7.383831,6.378557 0.28571,0.551883 5.982069,-3.087994 L 79.497717,46.679033 79.448587,36.513857 83.323542,24.7026 105.94534,0.7703144 93.924592,32.972871 l 4.071369,9.181039 0.03427,0.630041 6.639789,0 0.0343,-0.630041 4.07137,-9.181039 8.27221,-8.8397 35.39888,-9.097969 -29.19509,21.478655 -0.0491,10.165176 -0.2232,0.583784 5.98206,3.087994 0.28571,-0.551883 7.38383,-6.378557 11.03259,-4.116794 30.42653,2.402255 -29.84915,11.638865 -4.15918,9.134782 -0.43749,0.422686 4.13983,5.565088 0.48065,-0.365264 9.23499,-2.312805 11.6055,1.421178 24.33504,15.196279 -29.49718,-2.27647 -7.44483,6.295614 -0.56697,0.175454 z"
     id="path4007"
     inkscape:connector-curvature="0"
     sodipodi:nodetypes="ccccccccccccccccccccccccccccccccccccccccccccccccccccccccccccccccccccccccccccccccccccccccccccccccccccccccccccccccc" />
</svg>
