<?xml version="1.0" encoding="UTF-8" standalone="no"?>
<svg width="21.8722mm" height="18.3444mm"
 viewBox="0 0 62 52"
 xmlns="http://www.w3.org/2000/svg" xmlns:xlink="http://www.w3.org/1999/xlink"  version="1.2" baseProfile="tiny">
<title>Qt Svg Document</title>
<desc>Generated with Qt</desc>
<defs>
</defs>
<g fill="none" stroke="black" stroke-width="1" fill-rule="evenodd" stroke-linecap="square" stroke-linejoin="bevel" >

<g fill="#ffffff" fill-opacity="1" stroke="none" transform="matrix(1,0,0,1,0,0)"
font-family=".Lucida Grande UI" font-size="13" font-weight="400" font-style="normal" 
>
<path vector-effect="non-scaling-stroke" fill-rule="evenodd" d="M0,0 L62,0 L62,52 L0,52 L0,0"/>
</g>

<g fill="none" stroke="#000000" stroke-opacity="1" stroke-width="1" stroke-linecap="round" stroke-linejoin="round" transform="matrix(1,0,0,1,0,0)"
font-family=".Lucida Grande UI" font-size="13" font-weight="400" font-style="normal" 
>
<polyline fill="none" vector-effect="non-scaling-stroke" points="53,26 52,24 52,22 52,20 51,18 50,16 49,14 48,13 47,11 45,10 44,9 42,8 40,7 38,6 37,5 35,5 33,5 31,5 29,5 27,5 25,6 23,7 21,8 19,9 18,10 16,11 15,13 14,14 13,16 12,18 11,20 11,22 11,24 11,26 11,28 11,30 11,32 12,34 13,35 14,37 15,39 16,40 18,42 19,43 21,44 23,45 25,46 27,46 29,47 31,47 33,47 35,47 37,46 38,46 40,45 42,44 44,43 45,42 47,40 48,39 49,37 50,35 51,34 52,32 52,30 52,28 53,26 " />
<polyline fill="none" vector-effect="non-scaling-stroke" points="32,16 22,26 " />
<polyline fill="none" vector-effect="non-scaling-stroke" points="22,26 32,26 " />
<polyline fill="none" vector-effect="non-scaling-stroke" points="32,26 32,16 " />
</g>
</g>
</svg>
